<?xml version="1.0" standalone="no"?>
<!DOCTYPE svg PUBLIC "-//W3C//DTD SVG 20010904//EN"
 "http://www.w3.org/TR/2001/REC-SVG-20010904/DTD/svg10.dtd">
<svg version="1.0" xmlns="http://www.w3.org/2000/svg"
 width="1600.000000pt" height="1738.000000pt" viewBox="0 0 1600.000000 1738.000000"
 preserveAspectRatio="xMidYMid meet">

<g transform="translate(0.000000,1738.000000) scale(0.100000,-0.100000)"
fill="#000000" stroke="none">
<path d="M7555 15153 c-79 -6 -155 -26 -171 -44 -9 -11 -14 -19 -10 -19 4 0
-6 -17 -22 -37 -16 -21 -34 -48 -41 -60 -7 -15 -17 -20 -29 -17 -11 4 -13 3
-5 -3 13 -10 6 -56 -8 -48 -12 8 -39 -49 -39 -82 0 -19 -3 -24 -9 -15 -6 10
-10 2 -15 -25 -16 -90 -18 -96 -28 -82 -7 10 -8 5 -4 -16 5 -23 4 -26 -4 -15
-9 12 -10 10 -9 -10 1 -14 1 -34 0 -45 -1 -17 -3 -18 -12 -5 -8 12 -9 10 -5
-10 6 -28 -18 -108 -27 -93 -6 10 -3 26 29 141 29 103 10 80 -31 -38 -20 -61
-41 -113 -46 -116 -5 -3 -9 -20 -9 -39 0 -67 -43 -237 -68 -267 -11 -14 -32
-16 -130 -14 -119 2 -282 30 -282 49 0 5 -12 6 -27 2 -23 -5 -25 -4 -14 9 11
13 11 16 0 17 -8 0 -27 2 -44 4 -16 2 -76 6 -132 8 -80 3 -100 1 -92 -9 7 -9
0 -13 -31 -16 -22 -2 -40 0 -40 4 0 5 -11 6 -24 2 -13 -3 -26 -1 -30 4 -10 16
-122 -29 -178 -73 -57 -44 -108 -130 -124 -205 -3 -19 -10 -41 -15 -50 -18
-33 -39 -125 -29 -128 6 -2 7 -10 0 -22 -6 -11 -6 -30 0 -51 6 -19 10 -47 10
-64 1 -29 1 -29 15 -11 14 19 15 17 15 -18 0 -35 2 -37 16 -25 15 12 16 11 10
-9 -5 -13 -3 -22 3 -22 6 0 11 5 11 10 0 25 15 6 17 -21 1 -19 11 -38 23 -46
11 -8 18 -19 15 -24 -4 -5 -2 -9 4 -9 5 0 13 5 16 11 5 7 15 2 28 -12 14 -15
17 -24 9 -27 -18 -6 -4 -22 20 -22 11 0 22 -8 25 -19 3 -13 11 -17 24 -14 13
4 19 0 19 -11 0 -11 5 -14 12 -10 8 5 9 2 5 -9 -7 -18 8 -24 18 -7 3 6 11 10
16 10 6 0 8 -4 5 -9 -11 -17 6 -40 27 -38 14 1 21 -3 19 -12 -2 -10 4 -12 23
-7 14 4 25 2 25 -3 0 -5 12 -12 28 -16 25 -7 25 -8 7 -15 -17 -6 -15 -8 14
-15 18 -4 50 -18 70 -32 23 -16 46 -23 63 -21 15 3 26 0 25 -6 -1 -5 8 -10 21
-11 13 0 28 -8 33 -17 6 -10 16 -18 23 -18 7 0 28 -8 47 -17 19 -10 52 -18 74
-19 50 -1 108 -14 115 -25 3 -4 25 -10 48 -11 23 -2 42 -6 42 -9 0 -3 24 -7
53 -8 39 -1 56 -6 67 -22 14 -18 33 -21 170 -29 168 -11 242 -6 278 17 13 8
26 12 29 9 3 -3 12 2 20 10 9 8 25 14 37 13 57 -6 140 34 214 102 58 53 122
145 122 174 0 8 11 34 25 58 15 28 26 68 30 108 3 35 10 65 15 67 32 11 81
464 95 877 8 227 -4 293 -81 462 -8 18 -18 35 -23 37 -5 3 -12 17 -15 30 -7
29 -62 86 -82 86 -8 0 -14 4 -14 9 0 17 -138 73 -171 69 -8 -1 -32 -3 -54 -5z
m-304 -280 c-12 -20 -14 -14 -5 12 4 9 9 14 11 11 3 -2 0 -13 -6 -23z m-788
-620 c-7 -2 -21 -2 -30 0 -10 3 -4 5 12 5 17 0 24 -2 18 -5z m-541 -145 c-7
-7 -12 -8 -12 -2 0 14 12 26 19 19 2 -3 -1 -11 -7 -17z"/>
<path d="M7342 15091 c2 -7 7 -12 11 -12 12 1 9 15 -3 20 -7 2 -11 -2 -8 -8z"/>
<path d="M7301 15043 c-9 -23 -9 -25 2 -13 7 8 19 21 27 28 12 10 12 12 -1 12
-9 0 -21 -12 -28 -27z"/>
<path d="M6135 14300 c-3 -6 1 -7 9 -4 18 7 21 14 7 14 -6 0 -13 -4 -16 -10z"/>
<path d="M6600 14252 c0 -5 7 -9 15 -9 8 0 15 4 15 9 0 4 -7 8 -15 8 -8 0 -15
-4 -15 -8z"/>
<path d="M5850 14075 c-7 -9 -8 -15 -2 -15 5 0 12 7 16 15 3 8 4 15 2 15 -2 0
-9 -7 -16 -15z"/>
<path d="M5827 14013 c-4 -3 -7 -11 -7 -17 0 -6 5 -5 12 2 6 6 9 14 7 17 -3 3
-9 2 -12 -2z"/>
<path d="M5797 13938 c-8 -24 -19 -54 -23 -68 -3 -14 -12 -28 -18 -32 -8 -6
-7 -11 3 -17 12 -8 13 -14 3 -36 -18 -38 -14 -44 7 -12 10 15 16 38 14 50 -3
13 5 51 17 86 24 71 22 95 -3 29z"/>
<path d="M5767 13740 c-3 -11 -3 -20 -1 -20 2 0 8 9 14 20 6 11 7 20 2 20 -6
0 -12 -9 -15 -20z"/>
<path d="M9368 13753 c6 -2 18 -2 25 0 6 3 1 5 -13 5 -14 0 -19 -2 -12 -5z"/>
<path d="M9313 13743 c9 -2 23 -2 30 0 6 3 -1 5 -18 5 -16 0 -22 -2 -12 -5z"/>
<path d="M9220 13724 c-30 -8 -74 -27 -96 -42 -63 -41 -135 -112 -128 -124 4
-6 3 -9 -2 -5 -5 3 -23 -6 -39 -20 -17 -14 -24 -22 -17 -18 7 4 -1 -16 -19
-45 -17 -28 -31 -63 -31 -77 0 -26 -34 -101 -83 -183 -24 -40 -26 -41 -21 -15
l7 30 -22 -35 c-12 -19 -28 -45 -36 -58 -8 -12 -18 -20 -23 -17 -5 3 -18 -3
-30 -15 -19 -19 -20 -19 -20 -1 0 14 -6 17 -24 14 -14 -3 -27 -13 -29 -22 -3
-10 -5 -8 -6 7 -1 18 -5 22 -21 17 -10 -3 -36 -2 -56 4 l-36 10 6 -35 c8 -40
-10 -48 -20 -9 -8 34 -23 32 -30 -4 -4 -18 -15 -32 -28 -36 -39 -14 -70 -14
-78 -2 -5 8 -8 5 -9 -8 0 -19 -1 -19 -8 -1 -6 16 -9 17 -22 4 -8 -8 -18 -14
-24 -14 -5 0 -14 -24 -18 -52 -5 -31 -13 -50 -19 -46 -5 4 -7 22 -4 43 6 36 6
36 -14 -9 -10 -25 -19 -37 -19 -27 -1 20 -21 24 -21 3 0 -7 -6 -19 -14 -25 -8
-7 -18 -27 -22 -44 -3 -18 -10 -37 -14 -42 -38 -47 -53 -320 -20 -359 7 -9 10
-27 8 -41 -4 -20 -2 -23 7 -15 10 8 16 2 25 -25 6 -19 18 -35 26 -35 8 0 14
-6 14 -14 0 -8 9 -12 25 -10 14 1 32 -4 39 -12 8 -8 19 -14 24 -14 5 0 15 -13
22 -30 12 -30 35 -44 24 -15 -8 19 -3 19 32 0 31 -16 49 -73 20 -62 -9 4 -16
2 -16 -3 0 -5 30 -19 68 -30 56 -18 93 -21 235 -21 100 0 165 -4 162 -10 -4
-5 1 -9 9 -9 8 0 18 5 21 10 3 6 14 10 23 10 15 0 15 -2 2 -11 -11 -7 14 -9
85 -6 81 3 111 9 158 30 59 27 78 44 30 27 -27 -10 -27 -9 -8 6 11 9 39 24 61
34 23 10 45 23 48 29 4 6 12 11 18 11 6 0 3 -10 -8 -22 -12 -14 -3 -10 22 10
76 58 148 146 220 267 91 153 94 158 95 192 l1 28 8 -25 c4 -14 8 -22 9 -19 1
3 17 71 37 150 20 79 40 189 45 244 l8 100 -3 -125 -4 -125 14 65 c9 41 12 94
9 143 -3 46 -2 77 4 77 5 0 12 -8 14 -17 4 -14 5 -12 6 5 1 16 -5 22 -19 22
-17 0 -20 7 -22 48 -1 36 -2 39 -5 15 -2 -18 -8 -33 -14 -33 -5 0 -9 15 -9 33
0 17 -7 54 -15 81 -8 27 -15 64 -15 83 0 18 -4 33 -10 33 -5 0 -7 -8 -3 -17 5
-15 3 -16 -7 -6 -11 10 -11 15 0 28 10 12 8 21 -14 50 -35 45 -44 45 -16 -1
12 -19 20 -38 16 -41 -3 -4 -6 -1 -6 5 0 6 -20 36 -45 66 -24 30 -38 53 -30
50 8 -4 15 -1 15 4 0 6 -9 9 -21 7 -11 -2 -43 11 -75 31 -103 66 -154 78 -234
58z m-665 -641 l18 -28 -21 19 c-12 11 -22 23 -22 28 0 14 7 9 25 -19z m-425
-598 c0 -8 -2 -15 -4 -15 -2 0 -6 7 -10 15 -3 8 -1 15 4 15 6 0 10 -7 10 -15z
m363 -293 c20 -13 37 -29 37 -33 0 -12 -5 -11 -45 5 -18 8 -36 12 -39 9 -8 -9
-33 15 -39 37 -4 17 -1 19 21 14 15 -4 44 -18 65 -32z m67 -2 c0 -5 -7 -7 -15
-4 -8 4 -15 8 -15 10 0 2 7 4 15 4 8 0 15 -4 15 -10z"/>
<path d="M9460 13726 c0 -2 8 -10 18 -17 15 -13 16 -12 3 4 -13 16 -21 21 -21
13z"/>
<path d="M9565 13640 c47 -55 48 -56 37 -35 -6 11 -23 31 -39 45 l-28 25 30
-35z"/>
<path d="M8994 13608 l-19 -23 23 19 c21 18 27 26 19 26 -2 0 -12 -10 -23 -22z"/>
<path d="M9556 13598 c3 -5 10 -6 15 -3 13 9 11 12 -6 12 -8 0 -12 -4 -9 -9z"/>
<path d="M8960 13560 c-6 -11 -8 -20 -6 -20 3 0 10 9 16 20 6 11 8 20 6 20 -3
0 -10 -9 -16 -20z"/>
<path d="M9620 13571 c0 -6 4 -13 10 -16 6 -3 7 1 4 9 -7 18 -14 21 -14 7z"/>
<path d="M9686 13385 c8 -37 14 -45 14 -19 0 10 -5 26 -10 34 -8 11 -9 7 -4
-15z"/>
<path d="M9698 13333 c7 -3 16 -2 19 1 4 3 -2 6 -13 5 -11 0 -14 -3 -6 -6z"/>
<path d="M9722 13260 c0 -14 2 -19 5 -12 2 6 2 18 0 25 -3 6 -5 1 -5 -13z"/>
<path d="M11242 13270 c-12 -5 -39 -23 -60 -38 -20 -16 -55 -40 -77 -53 l-40
-23 33 38 c18 21 31 40 28 43 -7 7 -53 -26 -60 -43 -3 -8 -11 -14 -19 -14 -22
0 -81 -71 -117 -142 -23 -43 -37 -62 -40 -52 -6 17 -48 -114 -80 -248 -24
-104 -24 -102 -5 -94 22 8 18 -4 -7 -25 -26 -24 -4 -22 -263 -23 -146 -1 -229
-6 -248 -14 -16 -7 -26 -8 -22 -3 3 6 -9 9 -28 8 -89 -6 -212 -145 -221 -249
-2 -24 -1 -34 1 -24 9 36 92 152 132 184 l41 33 -50 -67 c-69 -90 -98 -150
-111 -232 -11 -67 -6 -144 9 -139 4 1 18 -9 32 -21 59 -54 114 -92 148 -102
20 -5 92 -14 160 -20 68 -6 139 -17 159 -25 19 -8 39 -13 43 -10 5 3 11 1 15
-4 6 -10 -64 -7 -229 9 -93 10 -126 6 -60 -6 22 -3 44 -11 50 -15 20 -16 591
-58 582 -43 -3 5 42 10 101 10 71 1 98 -1 81 -7 -20 -7 -18 -8 10 -3 60 9 108
9 103 0 -7 -10 8 -2 49 26 50 35 187 265 172 289 -4 7 -3 9 3 6 14 -9 37 48
29 68 -3 9 -2 14 2 11 8 -5 28 76 48 187 4 23 12 37 21 37 8 0 11 4 8 10 -3 5
-2 18 3 27 16 31 29 450 16 513 -11 50 -26 80 -38 73 -8 -5 -8 -3 0 8 6 8 8
25 3 39 -4 14 -8 18 -8 10 -1 -13 -3 -13 -10 0 -6 8 -7 18 -5 22 3 5 0 7 -8 6
-8 -2 -12 4 -10 15 2 9 -1 17 -5 16 -14 -4 -48 14 -66 34 -14 16 -33 21 -95
24 -42 1 -87 -1 -100 -7z m335 -292 c-3 -7 -5 -2 -5 12 0 14 2 19 5 13 2 -7 2
-19 0 -25z m-150 -870 c-3 -8 -6 -5 -6 6 -1 11 2 17 5 13 3 -3 4 -12 1 -19z
m-1030 -204 c-3 -3 -12 -4 -19 -1 -8 3 -5 6 6 6 11 1 17 -2 13 -5z m496 -41
c-7 -2 -19 -2 -25 0 -7 3 -2 5 12 5 14 0 19 -2 13 -5z"/>
<path d="M6930 13049 c0 -5 5 -7 10 -4 6 3 10 8 10 11 0 2 -4 4 -10 4 -5 0
-10 -5 -10 -11z"/>
<path d="M8066 12734 c-4 -14 -5 -28 -3 -31 3 -2 8 8 11 23 4 14 5 28 3 31 -3
2 -8 -8 -11 -23z"/>
<path d="M8058 12635 c2 -19 6 -35 8 -35 2 0 4 16 4 35 0 19 -4 35 -8 35 -4 0
-6 -16 -4 -35z"/>
<path d="M10347 12646 c-26 -7 -51 -17 -55 -21 -4 -5 2 -5 13 0 11 4 109 11
218 15 109 4 200 10 204 14 12 12 -331 5 -380 -8z"/>
<path d="M10756 12624 c-5 -14 -4 -15 9 -4 17 14 19 20 6 20 -5 0 -12 -7 -15
-16z"/>
<path d="M10244 12604 c-18 -14 -18 -14 6 -3 31 14 36 19 24 19 -6 0 -19 -7
-30 -16z"/>
<path d="M10338 12608 c9 -9 15 -9 24 0 9 9 7 12 -12 12 -19 0 -21 -3 -12 -12z"/>
<path d="M10448 12613 c17 -2 47 -2 65 0 17 2 3 4 -33 4 -36 0 -50 -2 -32 -4z"/>
<path d="M8023 12579 c-2 -23 3 -25 10 -4 4 8 3 16 -1 19 -4 3 -9 -4 -9 -15z"/>
<path d="M8050 12556 c0 -19 -6 -37 -12 -39 -10 -4 -10 -6 -1 -6 18 -1 41 38
36 60 -9 31 -23 22 -23 -15z"/>
<path d="M8061 12484 c0 -11 3 -14 6 -6 3 7 2 16 -1 19 -3 4 -6 -2 -5 -13z"/>
<path d="M8225 12280 c-3 -5 -1 -10 4 -10 6 0 11 5 11 10 0 6 -2 10 -4 10 -3
0 -8 -4 -11 -10z"/>
<path d="M8260 12255 c7 -8 17 -15 22 -15 6 0 5 7 -2 15 -7 8 -17 15 -22 15
-6 0 -5 -7 2 -15z"/>
<path d="M8763 12123 c9 -2 23 -2 30 0 6 3 -1 5 -18 5 -16 0 -22 -2 -12 -5z"/>
<path d="M10140 11985 c0 -7 61 -37 66 -33 2 3 -12 12 -31 21 -19 9 -35 15
-35 12z"/>
<path d="M8478 11386 c-58 -16 -243 -153 -439 -326 -31 -27 -74 -55 -81 -52
-5 1 -8 -2 -8 -7 0 -14 -91 -102 -237 -232 -17 -15 -33 -26 -35 -23 -2 2 -20
-13 -39 -33 -19 -21 -23 -29 -10 -18 14 11 22 15 18 9 -4 -6 -54 -49 -113 -95
-58 -46 -183 -146 -277 -221 -94 -75 -173 -135 -175 -133 -2 2 -15 -9 -29 -26
-25 -29 -50 -40 -38 -16 4 6 -10 -7 -30 -31 -24 -27 -43 -41 -52 -37 -9 3 -28
-8 -47 -28 -50 -53 -137 -118 -148 -110 -6 3 -8 1 -4 -5 3 -6 -6 -19 -21 -30
-46 -31 -60 -35 -28 -8 17 14 26 26 22 26 -15 0 -76 -52 -74 -62 1 -6 -6 -12
-15 -13 -9 -2 -38 -19 -64 -39 -26 -20 -51 -36 -55 -36 -5 0 -9 -6 -9 -13 0
-7 -32 -38 -72 -68 -87 -65 -124 -90 -83 -55 16 14 27 28 23 31 -8 8 -69 -45
-63 -55 3 -5 0 -12 -6 -16 -8 -4 -9 -3 -5 4 17 28 -23 8 -69 -35 -27 -25 -43
-42 -35 -37 13 7 13 6 1 -10 -8 -9 -20 -15 -28 -12 -8 3 -12 2 -8 -3 4 -8
-262 -213 -560 -431 -55 -40 -114 -86 -132 -102 -19 -19 -36 -27 -44 -23 -7 5
-10 4 -6 -3 8 -12 -72 -74 -85 -66 -5 3 -7 0 -6 -8 2 -7 -5 -12 -14 -12 -10 1
-15 -2 -13 -7 8 -12 -75 -70 -88 -62 -6 3 -7 1 -3 -5 8 -13 -90 -82 -117 -82
-11 0 -33 -10 -50 -21 -18 -12 -5 3 28 34 33 30 57 58 52 63 -4 4 -7 2 -7 -4
0 -7 -4 -12 -10 -12 -22 0 -276 -193 -260 -198 6 -2 18 2 28 10 9 7 2 -6 -16
-28 -17 -23 -32 -48 -32 -55 -1 -8 -42 -44 -93 -82 -51 -37 -108 -81 -127 -97
-77 -66 -202 -152 -184 -126 11 14 25 26 32 26 8 0 10 5 6 13 -4 6 -4 9 0 6 4
-4 18 3 30 15 45 42 105 86 116 86 11 0 120 79 120 87 0 3 -7 3 -15 -1 -24 -9
-17 12 8 25 38 21 112 99 93 99 -9 0 -19 -7 -22 -15 -4 -8 -10 -12 -15 -9 -5
3 -12 -2 -15 -10 -3 -9 -12 -16 -19 -16 -6 0 -20 -9 -30 -20 -10 -11 -24 -20
-31 -20 -7 0 -14 -4 -16 -8 -6 -16 -541 -419 -678 -511 -130 -88 -322 -237
-396 -307 -19 -17 -35 -29 -37 -27 -3 2 -16 -10 -30 -26 -13 -16 -27 -28 -30
-25 -2 3 -14 -7 -25 -21 -11 -14 -22 -25 -24 -23 -4 4 -85 -61 -148 -117 -25
-22 -60 -52 -78 -66 -30 -23 -32 -27 -17 -39 15 -12 16 -12 13 2 -1 9 0 16 4
15 4 -1 22 13 42 32 19 18 40 31 48 28 9 -4 7 -6 -4 -6 -10 -1 -18 -5 -18 -10
0 -11 -67 -76 -79 -76 -5 0 -29 -20 -54 -45 -74 -75 -160 -145 -200 -164 -21
-10 -41 -24 -44 -32 -3 -8 -10 -14 -16 -14 -6 0 0 11 13 25 13 14 29 25 35 25
6 0 23 12 37 28 28 31 128 119 173 153 48 36 50 39 31 39 -10 0 -31 -14 -48
-30 -16 -17 -38 -35 -48 -40 -55 -30 -363 -307 -355 -320 5 -9 -13 -25 -28
-25 -12 0 -197 -168 -197 -179 0 -11 29 13 127 108 112 108 86 63 -33 -60
-103 -104 -160 -150 -147 -118 3 8 11 14 19 14 8 0 14 5 14 10 0 31 -40 -6
-44 -42 -2 -13 -9 -42 -15 -65 -14 -51 -9 -122 13 -180 8 -24 12 -43 8 -43 -4
0 1 -7 11 -14 10 -8 19 -18 19 -23 3 -23 11 -43 18 -43 5 0 6 -8 3 -19 -2 -10
4 -26 14 -36 10 -10 19 -22 19 -27 1 -4 2 -12 3 -18 0 -5 7 -10 14 -10 12 0
37 -44 37 -67 0 -8 11 -41 25 -74 14 -33 23 -64 20 -69 -4 -6 -1 -10 4 -10 6
0 11 6 11 13 1 15 69 -123 70 -140 0 -7 6 -13 13 -13 17 0 59 -94 51 -115 -5
-12 -2 -16 12 -13 13 2 20 -4 22 -19 2 -12 11 -25 20 -28 9 -3 25 -22 34 -42
15 -32 15 -38 1 -59 -17 -27 -12 -30 17 -12 24 15 38 3 23 -21 -16 -25 -4 -35
14 -13 10 12 16 14 19 5 3 -7 12 -13 19 -13 7 0 18 -14 24 -31 6 -17 15 -28
20 -24 6 3 16 -3 22 -14 7 -10 19 -17 26 -14 17 7 17 23 -1 23 -8 0 -17 4 -21
9 -3 6 7 6 26 1 36 -11 114 4 140 26 9 8 19 11 22 7 4 -3 7 -1 7 6 0 7 4 10 9
7 5 -3 12 1 15 9 3 8 9 14 13 13 4 -1 23 6 41 15 17 10 32 16 32 14 0 -8 -135
-94 -167 -107 -18 -7 -33 -16 -33 -21 0 -5 -7 -6 -16 -2 -11 4 -22 -1 -30 -12
-24 -32 -16 -33 47 -8 127 51 235 126 364 252 55 53 108 100 118 104 11 4 15
12 11 18 -4 7 -3 9 4 5 6 -3 36 9 66 29 30 19 59 35 64 35 10 0 21 -315 23
-634 1 -116 5 -269 9 -341 5 -81 7 68 5 400 -2 292 1 539 5 550 5 11 9 -554 9
-1255 l1 -1275 25 -100 c14 -55 26 -118 26 -140 1 -22 3 -32 6 -22 2 9 9 17
14 17 5 0 9 -149 9 -367 1 -203 5 -451 10 -553 5 -102 14 -293 20 -425 17
-359 22 -418 40 -422 13 -4 13 -3 0 6 -8 6 -10 11 -4 11 6 0 19 -10 27 -23
l16 -22 0 26 c1 15 7 32 15 38 11 9 14 2 20 -35 3 -26 6 -64 6 -84 0 -38 11
-50 48 -50 22 0 66 -46 52 -55 -37 -23 40 -46 200 -60 87 -8 140 -17 140 -25
0 -4 -19 -6 -42 -5 -24 1 -31 0 -15 -2 15 -2 27 -8 27 -12 0 -11 111 -21 242
-22 102 -1 134 -8 106 -25 -7 -4 -84 -8 -172 -8 -109 0 -142 -3 -101 -7 33 -4
285 -8 560 -8 472 -2 646 -7 1050 -30 94 -6 278 -13 410 -18 348 -11 222 -21
-269 -22 -225 0 -411 -3 -414 -6 -3 -3 30 -5 74 -5 258 0 1270 -23 1549 -35
410 -19 2935 -22 2935 -4 0 5 -5 7 -12 3 -7 -4 -8 -3 -4 4 5 8 15 8 32 2 17
-7 23 -7 19 0 -4 6 12 10 42 10 123 -1 940 22 953 26 13 5 13 6 0 14 -14 9 87
15 163 10 21 -1 27 3 27 20 0 12 4 19 8 16 4 -3 26 -1 48 4 21 5 166 10 322
10 155 1 282 5 282 9 0 5 17 12 38 15 59 10 67 12 77 18 6 3 47 8 92 10 44 1
79 6 77 10 -3 4 10 5 28 2 32 -6 32 -6 13 9 -23 19 -13 22 17 6 11 -6 22 -8
25 -6 3 3 -8 12 -24 21 l-28 15 38 1 c20 0 37 5 37 10 0 6 15 17 33 25 24 10
28 15 16 20 -20 8 -19 50 1 50 10 0 14 -8 12 -22 -3 -19 10 -31 20 -20 1 1 5
1019 8 2262 3 1243 9 2270 14 2283 9 23 35 30 37 10 1 -7 2 -283 2 -613 l0
-600 7 535 c5 400 9 543 19 568 7 17 14 32 15 32 1 0 45 -42 97 -93 52 -51
114 -111 139 -132 25 -21 38 -34 30 -30 -13 8 -13 7 -1 -8 15 -18 26 -23 16
-7 -8 13 1 13 26 -1 11 -5 17 -14 14 -18 -2 -5 14 -21 38 -36 27 -19 37 -22
27 -10 -14 17 -13 18 10 12 14 -4 33 -7 43 -7 9 0 16 -4 15 -9 -4 -14 3 -15
71 -7 76 9 106 22 146 67 16 19 80 89 142 155 61 67 109 125 105 129 -4 3 -1
5 7 3 10 -2 17 9 21 32 6 32 36 90 47 90 6 0 -8 -44 -17 -50 -4 -3 -10 -16
-14 -30 -5 -15 3 -7 20 20 15 25 34 51 41 58 7 7 13 21 13 30 0 9 5 24 11 32
8 11 9 8 4 -15 l-6 -30 26 30 c14 17 60 67 102 113 135 146 153 185 153 329 0
95 0 96 -45 169 -24 41 -41 74 -37 74 7 0 29 -33 58 -88 10 -19 14 -22 14 -10
0 10 -12 41 -27 68 -23 42 -32 50 -50 45 -20 -5 -21 -2 -17 27 3 25 -2 40 -22
63 -14 17 -23 23 -19 15 5 -8 15 -23 22 -32 10 -11 12 -22 5 -33 -8 -15 -12
-13 -33 16 -13 19 -67 91 -121 161 -67 88 -96 133 -92 145 4 12 3 14 -3 6 -7
-9 -28 11 -75 70 -63 79 -150 175 -309 342 -142 149 -194 207 -197 218 -1 7 4
2 13 -9 9 -12 64 -66 123 -120 106 -98 105 -97 -49 66 -86 91 -188 201 -226
245 -38 44 -206 220 -374 390 -370 377 -459 470 -459 478 0 3 -18 25 -39 49
-22 23 -38 45 -36 48 6 10 -52 76 -60 68 -4 -4 8 -21 26 -37 18 -17 29 -31 23
-31 -15 0 -69 59 -61 67 10 9 -95 113 -106 106 -6 -3 -7 -1 -3 5 3 6 2 13 -4
17 -5 3 -10 1 -10 -5 0 -12 -79 46 -95 70 -21 31 -22 59 -7 156 12 81 15 281
19 1083 5 1102 9 1036 -67 1105 -42 37 -102 60 -196 72 -48 6 -54 9 -34 15 14
4 43 8 65 9 l40 2 -49 9 c-27 4 -245 9 -485 11 -406 3 -439 2 -473 -15 -20
-10 -39 -26 -43 -35 -5 -14 -4 -14 12 0 41 35 45 28 7 -13 -44 -46 -66 -106
-44 -119 9 -6 9 -12 0 -30 -9 -16 -11 -61 -6 -159 8 -179 24 -875 20 -879 -6
-8 -198 120 -299 199 -262 205 -367 286 -413 319 -28 19 -53 43 -56 54 -3 12
-10 16 -21 12 -9 -3 -14 -2 -10 3 3 5 -9 20 -27 32 -34 24 -166 133 -228 189
-19 17 -80 63 -135 102 -55 40 -147 106 -205 148 -142 104 -238 170 -258 177
-10 4 -30 17 -47 29 -16 12 -39 24 -50 26 -11 2 -19 9 -18 16 8 36 -311 58
-419 28z m140 -151 c-3 -14 -1 -25 3 -25 5 0 9 9 9 19 0 31 18 34 32 7 7 -13
54 -56 103 -96 50 -39 98 -80 108 -92 10 -12 49 -47 87 -77 245 -200 322 -261
380 -300 36 -24 104 -77 152 -117 48 -40 113 -92 145 -115 32 -23 83 -65 113
-93 30 -29 93 -84 140 -123 47 -39 131 -111 186 -160 56 -48 164 -142 240
-207 77 -66 190 -169 253 -229 63 -60 131 -120 152 -134 35 -23 57 -45 27 -27
-27 17 164 -164 297 -281 77 -68 218 -202 314 -299 96 -96 179 -172 184 -169
6 3 7 1 4 -4 -4 -6 17 -32 46 -57 89 -81 374 -356 485 -470 315 -323 557 -577
637 -670 50 -57 133 -150 186 -207 123 -133 244 -272 289 -332 19 -25 39 -47
44 -47 5 0 3 7 -4 15 -7 8 -9 15 -4 14 5 0 25 -19 44 -42 l34 -42 -32 29 c-67
62 -27 8 81 -108 139 -150 229 -253 289 -331 26 -33 85 -100 132 -149 l86 -89
-21 -34 c-38 -62 -229 -296 -337 -415 -86 -94 -109 -114 -118 -103 -6 8 -40
28 -75 44 -35 16 -87 43 -116 60 -34 20 -53 26 -55 19 -6 -17 -223 129 -273
183 l-40 43 45 -37 c53 -44 168 -123 225 -156 l40 -23 -30 26 c-16 14 -55 43
-85 63 -30 21 -112 80 -182 130 -70 51 -131 93 -136 93 -5 0 -36 20 -68 45
-31 25 -60 45 -63 45 -4 0 -235 227 -514 505 -278 277 -531 522 -561 544 -52
39 -74 61 -61 61 4 0 18 -9 32 -20 l25 -19 59 62 c32 34 64 67 70 72 43 40 57
59 61 80 6 30 1 31 -25 7 -19 -16 -19 -16 -12 8 3 14 14 32 24 40 9 8 17 26
18 40 l2 25 -24 -27 c-22 -26 -64 -41 -50 -18 3 5 0 7 -7 5 -7 -3 -26 -26 -41
-50 -15 -25 -37 -50 -49 -55 -13 -5 -17 -9 -9 -9 8 -1 0 -18 -23 -45 -20 -24
-36 -47 -36 -50 0 -15 27 2 42 27 10 15 22 27 28 27 15 0 -16 -56 -35 -63 -8
-4 -15 -13 -15 -22 0 -8 -3 -15 -8 -15 -9 0 -47 43 -43 50 1 3 -6 7 -17 10
-18 5 -145 99 -215 161 l-30 25 18 35 c10 19 45 69 79 113 34 43 70 90 81 105
11 14 33 37 49 51 55 46 169 240 152 257 -4 4 -32 -18 -63 -50 -34 -35 -62
-56 -70 -53 -8 3 -11 1 -8 -4 8 -12 -17 -60 -44 -84 -12 -11 -21 -16 -21 -12
0 12 50 105 60 111 5 3 15 15 20 25 9 17 8 19 -10 12 -23 -9 -78 -74 -179
-212 -96 -132 -148 -178 -188 -163 -21 7 -92 68 -111 95 -11 15 0 40 89 190
55 95 118 191 138 213 74 79 81 93 81 161 0 66 -9 84 -30 59 -15 -18 -34 -20
-24 -2 13 22 -12 -5 -65 -72 -28 -35 -51 -70 -51 -77 0 -7 -9 -28 -20 -46 -11
-18 -20 -27 -20 -20 0 7 8 25 17 40 36 59 -20 -6 -81 -95 -34 -48 -74 -94 -90
-103 -16 -8 -47 -34 -69 -57 -22 -24 -45 -43 -51 -43 -21 0 -65 54 -80 98 -9
24 -21 73 -27 108 -6 35 -16 64 -23 65 -6 1 -27 2 -46 4 -91 6 -150 39 -275
154 -27 26 -70 63 -95 83 -25 21 -40 38 -33 38 6 0 18 -6 25 -12 8 -7 27 -24
43 -38 28 -24 28 -24 -6 24 -31 45 -170 156 -365 291 -78 54 -256 203 -216
181 19 -11 14 -1 -10 20 -19 15 -20 16 -9 2 28 -37 -4 -15 -83 55 -104 93
-174 151 -261 217 -101 77 -106 79 -45 21 30 -29 43 -45 29 -36 -15 8 -51 41
-80 73 -117 124 -423 402 -444 402 -4 0 -20 9 -36 21 -51 36 -31 11 24 -30 58
-43 170 -146 147 -135 -14 7 -117 89 -199 160 -61 52 -97 73 -166 99 -89 34
-190 34 -260 1 -44 -21 -184 -118 -210 -146 -5 -6 -43 -44 -82 -84 -40 -40
-73 -76 -73 -80 0 -9 -109 -110 -124 -114 -6 -2 0 6 14 17 14 11 21 21 16 21
-5 0 -1 9 9 20 10 11 22 17 26 14 5 -3 9 2 9 11 0 10 5 13 13 9 6 -4 9 -3 4 1
-4 5 3 20 15 34 17 19 13 17 -17 -7 -106 -86 -240 -185 -335 -247 -125 -82
-134 -87 -100 -58 36 32 16 28 -33 -6 -53 -36 -94 -80 -143 -152 -22 -31 -79
-98 -128 -150 -49 -52 -83 -85 -76 -74 8 11 30 37 49 58 55 58 29 44 -61 -35
-46 -39 -90 -77 -98 -84 -14 -12 -16 -9 -18 23 -4 50 -12 56 -12 9 0 -39 -19
-84 -44 -105 -13 -11 -17 -10 -25 10 -5 13 -12 53 -16 89 -4 36 -13 87 -20
115 l-12 50 -18 -60 c-9 -33 -22 -89 -27 -125 -6 -36 -16 -75 -22 -88 -11 -21
-14 -15 -25 57 -6 45 -19 98 -27 118 l-14 38 4 -35 c11 -92 -36 -292 -74 -315
-11 -7 -13 -2 -28 65 l-10 45 1 -52 c0 -29 -2 -56 -6 -59 -4 -4 -7 -15 -7 -24
0 -16 -49 -89 -61 -90 -7 0 -27 150 -35 268 -4 51 -11 95 -16 98 -12 8 -38
-59 -45 -115 -3 -28 2 -78 12 -122 9 -42 15 -94 13 -115 l-3 -39 -18 39 c-9
21 -22 66 -28 100 -6 33 -13 74 -16 89 -9 48 -27 24 -45 -59 -9 -43 -27 -133
-41 -199 -14 -66 -26 -109 -26 -95 -2 43 -78 341 -80 315 -1 -6 6 -65 14 -130
20 -154 12 -266 -20 -303 l-23 -27 -6 80 c-4 44 -13 116 -21 160 -8 44 -15 90
-15 103 0 32 -25 27 -40 -7 -17 -43 -13 -264 6 -333 8 -29 -13 -20 -25 10 -6
15 -15 56 -20 92 -6 36 -18 87 -29 114 l-19 48 -7 -76 c-8 -84 -21 -129 -68
-226 -17 -36 -35 -73 -40 -82 -13 -28 -9 -34 7 -12 15 19 15 19 8 -1 -7 -23
-58 -101 -84 -130 -10 -11 -37 -42 -61 -69 -24 -27 -70 -67 -103 -89 -33 -23
-80 -59 -104 -81 -40 -37 -44 -39 -38 -16 4 14 12 68 17 120 14 135 30 219 50
266 10 22 21 62 24 89 4 26 12 58 17 69 8 16 6 16 -10 -4 -11 -14 -23 -33 -27
-42 -3 -10 -9 -18 -14 -18 -4 0 -6 -9 -3 -20 4 -14 0 -20 -11 -20 -9 0 -16 -8
-16 -17 0 -10 -9 -36 -19 -58 l-19 -40 -1 35 c0 19 6 62 13 95 l14 60 -25 -30
c-18 -22 -22 -24 -13 -7 6 13 9 31 7 40 -4 14 -6 13 -12 -5 -4 -13 -11 -23
-15 -23 -4 0 -12 -19 -19 -42 -7 -24 -25 -77 -41 -118 -16 -41 -38 -113 -50
-159 -12 -46 -39 -129 -60 -185 -53 -140 -55 -145 -30 -108 32 47 36 39 5 -10
-14 -24 -30 -42 -36 -40 -6 1 -8 -2 -4 -8 7 -11 -54 -104 -63 -96 -7 8 -62
-44 -62 -58 0 -6 13 5 30 24 16 19 29 30 30 24 0 -5 -14 -23 -30 -39 -16 -16
-30 -25 -30 -21 0 12 -48 -29 -137 -115 l-82 -80 -7 48 c-4 26 -2 125 5 218
14 206 14 305 1 305 -27 0 -69 -139 -75 -250 -3 -53 -2 -77 3 -65 8 18 10 17
16 -10 17 -82 35 -236 29 -252 -3 -10 -11 -24 -16 -31 -16 -21 -36 56 -43 168
-3 52 -10 109 -15 125 -5 17 -10 42 -11 56 -3 31 -24 28 -32 -4 -2 -12 -12
-67 -21 -122 -9 -54 -29 -140 -46 -189 -16 -49 -28 -95 -25 -102 18 -46 -326
-402 -365 -378 -7 4 -9 3 -6 -3 7 -12 -70 -90 -79 -80 -12 11 -23 98 -23 182
-1 44 -6 98 -12 120 l-11 39 -19 -23 c-27 -33 -40 -89 -42 -184 -2 -66 -7 -90
-26 -120 -28 -45 -40 -42 -17 4 20 40 20 45 1 29 -20 -17 -20 5 0 44 19 36 19
42 -1 25 -18 -15 -27 -35 -54 -124 -16 -50 -16 -57 -3 -40 l16 20 -8 -20 c-4
-11 -10 -28 -12 -37 -3 -10 -9 -15 -14 -12 -5 3 -6 -1 -3 -9 3 -8 -6 -23 -20
-35 -14 -11 -26 -27 -26 -35 0 -9 -5 -19 -12 -23 -8 -5 -9 -2 -5 9 9 25 2 21
-18 -9 -11 -18 -13 -24 -4 -19 8 5 11 4 6 -1 -5 -5 -10 -7 -12 -4 -2 3 -20
-11 -40 -30 -20 -19 -80 -65 -133 -101 -53 -36 -107 -79 -118 -97 l-22 -32
-17 93 c-9 50 -19 106 -21 122 -3 28 -2 29 11 11 8 -10 12 -23 9 -27 -3 -5 -1
-9 5 -9 39 0 69 45 82 120 7 41 -2 109 -30 225 l-7 30 -21 -41 c-12 -22 -29
-88 -39 -146 -12 -74 -21 -105 -29 -102 -17 7 -40 -48 -55 -131 -13 -71 -45
-155 -58 -155 -5 0 -14 6 -22 13 -8 6 -6 2 3 -9 13 -16 15 -23 6 -26 -7 -2
-13 -12 -15 -22 -4 -28 -57 -128 -71 -133 -6 -3 -10 -10 -7 -17 5 -14 -75
-120 -84 -111 -3 3 0 11 6 17 17 17 15 28 -4 21 -13 -5 -15 -2 -9 18 7 21 6
22 -8 11 -8 -7 -18 -24 -21 -38 -5 -17 -12 -24 -21 -20 -7 2 -15 0 -18 -7 -13
-39 -58 138 -51 201 3 36 3 37 -13 15 -19 -28 -43 -30 -43 -3 0 11 -4 20 -8
20 -13 0 -34 123 -26 156 l7 29 -22 -27 c-30 -37 -39 -35 -47 8 -4 20 -15 59
-25 87 -10 27 -16 53 -14 58 3 4 0 11 -6 15 -6 4 -16 -1 -21 -10 -5 -9 -14
-16 -19 -16 -6 0 -8 4 -5 9 3 5 -3 44 -14 86 -11 43 -20 91 -20 107 0 17 -4
27 -10 23 -6 -3 -10 -2 -10 4 0 5 5 13 10 16 6 3 10 19 10 34 0 49 42 93 246
261 44 35 122 103 174 150 255 229 313 278 668 558 37 29 105 79 152 111 115
80 598 466 655 524 7 7 4 8 -10 3 -11 -4 -15 -4 -10 1 6 4 26 22 45 38 l35 30
-29 -32 c-17 -18 -27 -33 -23 -33 24 0 427 341 422 357 -3 7 8 15 23 19 38 8
93 37 99 51 3 7 9 10 14 7 5 -3 12 2 15 10 3 9 14 16 24 16 10 0 27 11 38 25
11 13 22 21 26 18 3 -3 6 -1 6 5 0 7 7 12 15 12 9 0 18 7 21 15 4 8 12 15 20
15 8 0 13 3 11 8 -4 13 68 76 109 95 29 13 34 14 20 2 -11 -8 -16 -15 -10 -15
5 0 41 27 79 60 39 33 74 60 78 60 5 0 5 5 2 10 -4 6 -2 9 4 8 6 -2 43 22 82
52 268 207 414 324 411 332 -1 5 1 7 6 4 8 -5 53 29 155 117 26 23 52 41 57
39 6 -1 9 2 8 7 -2 5 6 17 17 25 19 15 19 15 -7 14 -15 -1 -25 -5 -23 -9 3 -3
-9 -19 -25 -34 -17 -16 -30 -24 -30 -17 0 7 -7 9 -17 5 -24 -8 -15 1 47 47 43
32 56 37 68 28 11 -10 13 -8 10 8 -2 14 2 18 17 16 11 -2 17 -1 13 3 -10 11
-2 18 213 178 106 80 257 194 333 252 105 80 141 103 148 93 7 -10 9 -10 5 2
-6 20 21 50 40 43 11 -5 10 -11 -10 -32 -13 -14 -27 -34 -31 -44 -4 -14 4 -11
34 13 22 17 40 38 40 46 0 7 9 19 20 26 11 7 20 18 20 25 0 7 4 13 9 13 5 0
12 7 15 16 6 15 4 15 -11 3 -10 -8 -21 -18 -25 -24 -4 -5 -10 -7 -13 -4 -3 4
19 25 50 48 30 23 55 38 55 34 0 -4 7 2 15 14 9 13 43 44 77 69 59 46 61 46
54 21 -6 -25 -5 -27 13 -15 11 7 17 15 13 18 -4 3 -8 13 -10 23 -2 11 4 17 18
17 11 0 19 4 17 8 -3 13 131 113 138 103 11 -19 38 -3 103 61 76 73 237 209
249 208 5 0 16 7 26 15 34 29 16 0 -30 -50 -41 -43 -43 -45 -8 -14 22 20 53
45 69 57 43 33 224 204 348 329 61 62 114 112 117 111 21 -2 31 4 31 20 0 21
8 32 23 32 5 0 7 -11 5 -25z m3040 -590 c3 -382 -16 -1058 -33 -1155 -3 -14
-9 -76 -15 -137 -20 -215 -24 -215 -221 -16 -85 85 -182 175 -216 199 -87 63
-204 192 -241 266 -48 95 -64 188 -65 373 -1 185 12 362 24 305 3 -19 7 99 8
263 l1 297 378 -2 377 -3 3 -390z m-3733 277 c-6 -4 -26 -21 -45 -37 l-35 -30
34 38 c19 20 39 37 45 37 6 0 6 -3 1 -8z m-85 -65 c0 -2 -15 -16 -32 -33 l-33
-29 29 33 c28 30 36 37 36 29z m-70 -60 c0 -2 -10 -12 -22 -23 l-23 -19 19 23
c18 21 26 27 26 19z m-543 -662 c0 -8 -4 -12 -9 -9 -5 3 -6 10 -3 15 9 13 12
11 12 -6z m-967 -495 c0 -5 -5 -10 -11 -10 -5 0 -7 5 -4 10 3 6 8 10 11 10 2
0 4 -4 4 -10z m2236 -102 c8 -27 371 -379 391 -379 4 -1 35 -26 68 -58 33 -31
95 -85 137 -119 42 -34 94 -82 115 -106 21 -24 83 -80 138 -124 55 -44 167
-142 249 -218 82 -77 178 -164 212 -194 157 -138 262 -231 292 -262 18 -18 49
-49 69 -68 601 -570 1208 -1127 1224 -1123 5 2 8 -2 6 -9 -1 -7 5 -13 13 -13
8 0 14 -6 13 -12 -2 -11 282 -280 462 -437 55 -48 172 -156 260 -240 88 -84
195 -184 239 -222 43 -38 99 -88 124 -110 l46 -41 -18 -124 c-23 -164 -39
-187 -30 -44 3 61 4 108 1 105 -3 -3 -13 -117 -22 -255 -9 -137 -25 -356 -36
-485 -57 -678 -59 -747 -59 -2263 0 -1185 -2 -1360 -15 -1373 -8 -8 -20 -14
-27 -13 -23 5 -118 -13 -118 -21 0 -14 -61 -30 -120 -31 -30 -1 -59 -4 -64 -7
-6 -3 -57 -6 -115 -7 -58 0 -115 -5 -125 -10 -15 -6 -17 -5 -11 4 6 10 0 11
-26 5 -19 -4 -89 -7 -156 -6 -67 0 -125 -3 -128 -8 -3 -5 19 -6 49 -3 110 11
114 -22 5 -37 -35 -5 -93 -14 -129 -20 -36 -6 -249 -17 -475 -25 -447 -17
-535 -23 -535 -36 0 -5 28 -10 63 -10 l62 -2 -75 -7 c-113 -12 -330 -29 -462
-36 l-118 -7 -1 1349 c0 742 -4 1428 -8 1524 -8 206 -19 238 -111 332 l-56 57
-590 3 c-324 2 -677 -1 -784 -6 -184 -8 -198 -7 -255 13 -33 11 -53 21 -45 22
8 1 -79 8 -195 15 -250 15 -538 17 -563 5 -9 -5 -34 -16 -55 -25 -21 -9 -35
-21 -32 -26 4 -6 -1 -7 -12 -3 -10 3 -15 3 -11 -2 4 -4 -10 -21 -32 -38 -50
-36 -70 -73 -70 -130 0 -76 -12 -167 -23 -167 -6 0 -8 42 -5 113 3 86 8 118
22 139 18 27 18 28 -3 28 -14 0 -23 -9 -28 -27 -9 -32 -9 15 -2 -1736 5 -1122
8 -1320 20 -1328 19 -12 -11 -12 -386 -9 -319 3 -554 17 -558 35 -1 6 52 12
138 15 131 5 136 5 70 12 -38 5 -100 8 -137 8 -37 0 -99 5 -138 12 -61 11 -73
10 -80 -2 -7 -10 -10 16 -10 77 0 84 2 91 18 86 15 -3 19 -15 21 -51 2 -57 11
-70 11 -16 1 21 6 66 13 99 8 37 10 91 6 140 -3 44 -6 74 -7 68 -3 -18 -22
-16 -22 2 0 8 5 15 10 15 6 0 10 8 10 18 0 13 -2 14 -9 4 -7 -11 -10 -10 -15
3 -3 9 -6 26 -6 38 0 12 -4 17 -9 11 -8 -9 -33 -134 -32 -166 0 -10 -8 -18
-17 -18 -16 -1 -15 -2 1 -14 12 -9 19 -32 23 -67 l4 -54 -14 38 c-9 21 -12 45
-9 54 5 12 2 15 -10 10 -11 -4 -17 2 -22 24 -4 17 -10 28 -13 24 -9 -8 -42
-117 -42 -137 0 -10 -4 -18 -10 -18 -5 0 -10 -10 -10 -22 0 -13 -9 -42 -20
-65 -17 -39 -22 -43 -55 -43 -19 0 -34 -3 -33 -7 1 -5 -1 -18 -6 -30 -7 -23
-9 -23 -144 -18 -75 3 -263 10 -417 15 -305 10 -688 30 -694 36 -2 2 -2 6 0 8
7 7 169 15 354 17 173 2 176 3 75 9 -58 4 -172 9 -255 10 -84 1 -139 5 -125 9
21 7 17 9 -27 15 -51 8 -52 8 -59 49 -4 23 -10 78 -14 122 -4 44 -8 64 -9 44
-1 -43 -27 -101 -35 -78 -12 36 -26 452 -20 598 7 158 8 163 31 174 12 5 23
14 23 18 0 9 45 60 160 181 52 55 102 111 111 125 10 14 39 49 66 76 l48 51
-48 -34 c-27 -19 -75 -59 -108 -88 -36 -33 -59 -48 -59 -39 0 14 66 77 80 77
3 0 52 44 107 98 96 92 239 268 284 350 12 20 30 47 41 58 15 17 16 22 5 27
-9 3 -22 -9 -36 -34 -35 -62 -59 -44 -35 26 16 48 11 56 -13 19 -18 -28 -91
-104 -100 -104 -2 0 5 13 17 30 12 16 18 30 13 30 -5 0 -17 -15 -27 -32 -10
-18 -31 -46 -45 -63 -21 -23 -21 -26 -3 -11 16 14 22 16 22 5 -1 -19 -35 -59
-50 -59 -10 0 -10 3 0 15 8 9 8 15 2 15 -15 0 -53 -56 -44 -65 4 -5 2 -5 -4
-2 -10 6 -38 -24 -212 -232 -35 -42 -81 -93 -103 -114 -47 -45 -53 -74 -6 -31
46 43 71 61 66 48 -2 -6 -34 -37 -72 -69 -37 -32 -65 -60 -62 -63 6 -6 -14
-32 -25 -32 -5 0 -12 15 -15 32 -4 18 -12 36 -17 39 -16 10 -22 266 -9 344 13
75 5 62 230 364 68 91 162 225 209 296 47 72 111 166 142 210 32 44 65 96 73
116 13 33 13 37 -4 47 -11 7 -16 18 -13 27 4 8 2 15 -4 15 -6 0 -13 13 -17 30
-10 45 -29 37 -59 -25 -15 -30 -61 -93 -102 -140 -46 -51 -73 -89 -68 -96 4
-7 3 -9 -3 -6 -14 9 -37 -19 -27 -34 4 -7 3 -9 -3 -6 -6 4 -30 -19 -55 -51
-52 -67 -208 -281 -208 -286 0 -2 -12 -25 -26 -51 -29 -51 -44 -47 -44 13 0
51 -14 38 -34 -33 -10 -36 -22 -68 -26 -70 -22 -14 -54 245 -45 364 8 118 26
203 50 236 12 17 33 54 48 83 26 50 65 106 126 182 15 19 36 49 47 65 10 17
46 65 79 108 101 132 126 167 121 176 -3 5 3 16 14 26 25 23 26 35 1 28 -11
-3 -30 -24 -42 -48 -14 -27 -26 -40 -31 -32 -3 6 -4 16 0 22 7 11 9 17 11 39
0 7 12 25 26 40 26 28 13 36 -17 9 -26 -24 -34 -9 -8 17 12 12 19 24 16 27 -9
10 -27 -9 -67 -73 -41 -65 -53 -78 -42 -46 4 12 -2 10 -21 -8 -14 -14 -28 -35
-30 -47 -3 -12 -12 -34 -20 -50 l-15 -28 6 35 6 35 -22 -22 c-27 -28 -71 -110
-71 -133 0 -25 -12 -32 -25 -13 -20 27 -42 8 -49 -42 -7 -44 -34 -85 -56 -85
-28 0 -40 48 -42 177 -2 72 -6 126 -10 120 -4 -7 -8 -37 -8 -67 0 -30 -3 -86
-7 -125 l-7 -70 -6 48 c-8 61 5 190 24 242 8 22 18 55 21 74 4 18 29 67 56
109 27 41 49 80 49 87 0 7 15 32 33 56 19 24 42 60 52 79 10 19 32 52 49 72
18 20 42 56 54 80 13 24 31 58 42 77 12 22 16 40 11 50 -5 9 -5 25 0 36 4 11
8 29 8 40 -1 11 -6 2 -13 -20 -8 -27 -14 -35 -18 -25 -4 8 -4 1 -1 -17 7 -42
-4 -83 -22 -83 -8 0 -22 -15 -30 -32 l-15 -33 6 50 c4 28 8 63 9 79 1 18 12
38 28 51 27 21 36 45 16 45 -5 0 -8 -4 -4 -9 3 -6 0 -14 -7 -18 -32 -21 -100
-103 -103 -124 -17 -120 -53 -207 -42 -99 l6 55 -24 -28 c-22 -25 -35 -59 -49
-128 -5 -23 -11 -26 -38 -25 -29 1 -33 5 -36 34 -2 17 -8 32 -13 32 -6 0 -8 4
-5 8 2 4 1 14 -4 22 -6 9 -10 -1 -15 -32 -8 -50 -20 -76 -31 -65 -16 15 -44
702 -44 1053 l0 230 29 40 c16 21 69 72 118 111 254 206 525 424 583 467 36
28 101 79 144 115 44 36 101 82 127 101 49 36 386 306 404 323 7 7 6 8 -2 3
-21 -12 -15 -1 14 25 l28 24 -20 -24 c-11 -13 -15 -22 -10 -20 17 7 200 148
309 239 56 47 149 119 205 160 219 159 260 189 322 241 35 30 84 69 109 87 25
18 90 67 145 107 55 41 106 75 113 75 6 0 12 4 12 9 0 4 30 29 68 54 37 25 92
69 122 96 30 28 60 51 66 51 6 0 17 7 24 15 11 13 8 13 -21 3 -19 -6 -50 -22
-69 -36 -35 -24 -35 -24 4 12 22 20 45 36 51 36 7 0 18 7 25 15 7 8 18 15 24
14 21 -3 36 1 34 9 -4 9 39 52 51 52 5 0 19 12 31 28 12 15 24 25 27 23 3 -1
17 7 31 20 15 13 59 51 98 84 39 34 108 88 155 119 113 76 168 119 168 132 1
6 28 35 60 65 231 209 348 299 186 143 -95 -91 -91 -93 16 -7 88 71 202 162
327 261 111 86 232 198 232 213 0 18 29 8 36 -13z m115 -81 c10 -18 6 -17 -20
7 -36 34 -39 41 -11 26 11 -6 25 -20 31 -33z m-968 -167 c-30 -26 -145 -101
-149 -97 -11 10 108 105 132 105 14 0 22 -4 17 -8z m2418 -717 c13 -16 12 -17
-3 -4 -10 7 -18 15 -18 17 0 8 8 3 21 -13z m-4881 -19 c0 -8 -19 -13 -24 -6
-3 5 1 9 9 9 8 0 15 -2 15 -3z m4961 -51 c13 -16 12 -17 -3 -4 -10 7 -18 15
-18 17 0 8 8 3 21 -13z m-3237 -175 c-3 -7 -28 -30 -55 -51 -30 -22 -49 -45
-49 -57 0 -11 -5 -20 -11 -20 -5 0 -7 6 -3 13 5 6 -16 -9 -46 -35 -63 -56 -95
-65 -35 -11 22 20 65 60 97 90 31 29 60 53 66 53 5 0 15 7 22 15 15 18 21 19
14 3z m-5 -45 c-18 -23 -48 -46 -73 -56 -23 -9 -24 -10 32 37 48 39 62 46 41
19z m-2557 -66 c-12 -13 -22 -27 -22 -33 -1 -12 -39 -39 -67 -48 -13 -4 -23
-11 -23 -16 0 -5 -9 -14 -19 -20 -15 -7 -19 -7 -17 5 3 21 52 56 69 49 8 -3
18 -1 22 5 3 7 0 8 -9 5 -32 -12 -14 12 32 43 57 38 62 40 34 10z m268 -104
c0 -5 -13 -17 -28 -27 l-27 -19 24 26 c26 28 31 32 31 20z m-457 -28 c-3 -9
-8 -14 -10 -11 -3 3 -2 9 2 15 9 16 15 13 8 -4z m2434 -3 c-22 -25 -22 -39 1
-20 9 8 24 19 32 23 31 18 -8 -20 -41 -39 -31 -19 -32 -19 -25 0 9 24 -4 11
-18 -18 -6 -12 -27 -31 -46 -42 -29 -16 -23 -8 31 47 37 37 70 67 74 67 5 0 1
-8 -8 -18z m4907 -26 c-9 -15 -19 -25 -21 -22 -5 5 30 56 35 51 2 -2 -4 -15
-14 -29z m-7402 -17 c-18 -17 -30 -35 -27 -39 3 -5 -12 -21 -32 -36 -21 -15
-55 -41 -76 -57 -26 -20 -42 -26 -49 -19 -6 6 5 17 35 32 31 16 48 32 58 57 7
18 20 39 28 46 12 10 13 9 6 -3 -5 -8 11 2 35 22 53 43 67 41 22 -3z m23 -14
c-16 -14 -34 -25 -40 -25 -5 1 4 12 20 25 17 14 35 25 40 25 6 -1 -3 -12 -20
-25z m1748 10 c-3 -9 -8 -14 -10 -11 -3 3 -2 9 2 15 9 16 15 13 8 -4z m-443
-112 c-1 -31 -3 -35 -11 -20 -6 9 -7 26 -4 37 10 30 15 24 15 -17z m-1520 -57
c0 -3 -4 -8 -10 -11 -5 -3 -10 -1 -10 4 0 6 5 11 10 11 6 0 10 -2 10 -4z
m1507 -18 c-3 -8 -6 -5 -6 6 -1 11 2 17 5 13 3 -3 4 -12 1 -19z m-1592 1 c-5
-7 3 -9 25 -6 26 5 29 3 19 -9 -6 -7 -15 -11 -20 -8 -5 3 -8 0 -7 -7 2 -6 -3
-14 -11 -17 -8 -3 -11 0 -7 7 13 20 -29 7 -55 -18 -13 -13 -34 -30 -46 -38
-13 -9 -23 -19 -23 -24 0 -14 -63 -68 -79 -69 -7 0 -11 -6 -8 -14 3 -8 -4 -22
-16 -33 l-22 -18 19 23 c25 29 11 28 -26 -3 -16 -14 -38 -25 -48 -25 -10 0
-22 -5 -26 -12 -4 -7 -3 -8 4 -4 7 4 12 2 12 -3 0 -6 -6 -11 -13 -11 -8 0 -33
-14 -56 -31 -29 -21 -39 -24 -33 -12 11 19 133 136 143 137 4 1 28 19 54 41
27 22 64 51 84 64 20 13 52 38 71 56 29 27 47 39 68 44 2 1 0 -4 -3 -10z
m2455 -12 c0 -5 -164 -142 -180 -151 -8 -4 9 15 38 43 29 28 56 51 60 51 4 0
23 14 42 30 35 29 40 33 40 27z m-883 -89 c-3 -7 -5 -2 -5 12 0 14 2 19 5 13
2 -7 2 -19 0 -25z m7 -65 c3 -27 2 -51 -4 -57 -11 -11 -11 -11 -15 57 -3 61
10 61 19 0z m36 -26 c0 -13 -6 -32 -14 -43 -13 -17 -13 -14 -3 24 13 47 17 52
17 19z m-1475 -41 c-53 -43 -83 -58 -91 -45 -4 7 -3 10 2 6 5 -3 32 10 59 29
58 39 73 44 30 10z m9135 -7 c0 -6 -4 -7 -10 -4 -5 3 -10 11 -10 16 0 6 5 7
10 4 6 -3 10 -11 10 -16z m89 -100 c29 -33 52 -61 50 -63 -2 -2 -30 26 -63 61
-32 34 -54 63 -49 63 5 0 33 -27 62 -61z m41 -540 c0 -6 -4 -7 -10 -4 -5 3
-10 11 -10 16 0 6 5 7 10 4 6 -3 10 -11 10 -16z m-10710 -710 c0 -6 -4 -7 -10
-4 -5 3 -10 11 -10 16 0 6 5 7 10 4 6 -3 10 -11 10 -16z m1330 -22 c0 -2 -19
-21 -42 -42 l-43 -40 40 43 c36 39 45 47 45 39z m10050 -39 c0 -16 -68 -107
-130 -175 -25 -28 -72 -81 -106 -119 -113 -128 -116 -129 -33 -19 118 156 200
255 222 266 10 6 16 13 14 16 -3 2 2 13 11 23 21 23 22 23 22 8z m275 -150
c-4 -17 -22 -53 -41 -79 -36 -52 -164 -188 -164 -175 0 13 72 101 81 99 5 -2
9 3 9 11 0 8 8 21 19 28 10 7 18 15 19 18 0 7 76 130 80 130 2 0 0 -14 -3 -32z
m-10415 -175 c0 -18 -100 -83 -100 -66 0 9 81 82 93 83 4 0 7 -8 7 -17z
m10191 -110 c-8 -15 -10 -15 -11 -2 0 17 10 32 18 25 2 -3 -1 -13 -7 -23z
m-733 -27 c31 -24 71 -56 87 -70 17 -14 35 -26 41 -26 6 0 19 -10 27 -22 13
-19 16 -20 16 -5 1 9 6 17 11 17 13 0 13 -6 -2 -30 -11 -17 -14 -17 -28 -5 -8
8 -61 51 -117 96 -57 44 -103 83 -103 85 0 10 15 1 68 -40z m137 -54 c-3 -3
-11 0 -18 7 -9 10 -8 11 6 5 10 -3 15 -9 12 -12z m-9895 -27 c0 -2 -10 -9 -22
-15 -22 -11 -22 -10 -4 4 21 17 26 19 26 11z m-65 -38 c-23 -16 -63 -32 -52
-21 10 10 51 32 62 33 5 1 1 -5 -10 -12z m10170 -297 c3 -5 1 -10 -4 -10 -6 0
-11 5 -11 10 0 6 2 10 4 10 3 0 8 -4 11 -10z m-334 -67 c13 -16 12 -17 -3 -4
-17 13 -22 21 -14 21 2 0 10 -8 17 -17z m-8770 -216 l-23 -22 17 28 c10 15 20
25 23 22 3 -3 -5 -16 -17 -28z m-31 -171 c0 -2 -7 -9 -15 -16 -13 -11 -14 -10
-9 4 5 14 24 23 24 12z m171 -520 c-7 -8 -21 -31 -31 -52 l-20 -39 6 39 c7 40
46 96 52 76 2 -6 -1 -17 -7 -24z m4964 -15 c-25 -4 -21 -6 25 -11 81 -10 -327
-11 -526 -3 -123 6 -154 10 -114 14 70 7 655 8 615 0z m-1257 -8 c-10 -2 -26
-2 -35 0 -10 3 -2 5 17 5 19 0 27 -2 18 -5z m1389 1 c-3 -3 -12 -4 -19 -1 -8
3 -5 6 6 6 11 1 17 -2 13 -5z m105 -133 c30 -60 32 -71 39 -215 11 -223 11
-2886 0 -2886 -5 0 -12 28 -16 61 -4 34 -11 705 -15 1493 -8 1564 -4 1475 -65
1596 -14 27 -25 55 -25 62 0 22 48 -43 82 -111z m-5292 69 c0 -5 -10 -15 -22
-21 -23 -12 -23 -12 -4 10 21 23 26 26 26 11z m4690 -156 c85 -8 188 -15 227
-17 l73 -2 0 -45 c0 -25 5 -76 10 -114 6 -39 11 -115 12 -170 1 -56 4 -93 6
-83 2 9 7 17 11 17 15 0 24 -383 35 -1380 1 -179 0 -293 -3 -255 -4 49 -13
-64 -29 -375 -30 -585 -28 -570 -56 -570 -12 0 -26 -4 -32 -10 -5 -5 -78 -13
-162 -17 -137 -5 -152 -5 -152 10 0 10 -6 17 -12 17 -10 0 -12 48 -10 212 3
221 -4 305 -19 218 -4 -25 -9 -128 -10 -230 -2 -144 -4 -106 -9 170 -7 384
-24 746 -42 905 -6 55 -12 302 -13 548 l-3 448 -31 63 c-43 89 -116 159 -191
187 -70 25 -79 43 -17 35 l42 -6 -45 16 c-36 12 -121 16 -440 21 -449 7 -585
1 -587 -25 -1 -9 -4 -35 -9 -56 -5 -27 -4 -37 4 -33 5 4 13 26 17 50 7 38 9
40 16 19 5 -13 7 -27 5 -30 -2 -4 -10 -77 -17 -162 -9 -118 -15 -148 -21 -125
-5 17 -6 46 -3 65 3 21 2 30 -3 22 -4 -6 -10 -108 -12 -225 -8 -384 -4 -1689
6 -1855 l9 -162 -145 1 c-103 0 -162 5 -205 17 l-60 17 -6 110 c-12 215 -30
1689 -27 2207 2 397 6 530 15 539 10 10 14 9 19 -5 4 -10 4 -543 2 -1184 -5
-935 -3 -1214 8 -1402 8 -129 12 -240 10 -247 -3 -7 1 -13 8 -13 8 0 17 7 20
16 3 9 5 115 4 237 -1 122 -4 197 -7 167 l-7 -55 -8 87 c-5 48 -7 133 -4 188
2 55 0 100 -4 100 -4 0 -7 24 -6 53 l1 52 7 -45 c7 -44 7 -43 8 20 1 36 -2 60
-6 54 -4 -7 -9 433 -11 977 l-3 989 131 0 c71 0 140 4 153 10 27 11 244 40
315 41 26 1 59 5 73 9 41 14 1003 1 1180 -16z m-930 -649 c129 1 205 1 168 -2
-74 -4 -94 -23 -25 -23 68 0 121 11 105 22 -8 6 -4 7 12 2 14 -4 75 -8 135 -9
l110 -2 7 -94 c4 -52 8 -568 10 -1147 2 -846 0 -1054 -10 -1061 -7 -4 -33 -6
-57 -5 -25 1 -45 -2 -45 -7 0 -5 7 -9 15 -9 8 0 15 -7 15 -16 0 -12 -9 -14
-37 -12 -24 2 -37 8 -35 16 1 6 -4 12 -10 13 -7 0 -4 4 7 8 25 11 -272 24
-415 19 -82 -3 -68 -4 65 -6 242 -3 250 -21 10 -24 l-190 -2 180 -6 180 -6
-193 -2 c-106 -1 -191 1 -189 6 3 4 -16 5 -42 4 l-48 -4 -7 71 c-3 39 -6 570
-6 1180 l0 1110 28 -8 c15 -5 133 -7 262 -6z m-314 -1170 c1 -646 -2 -1175 -6
-1175 -4 0 -11 7 -14 16 -8 22 -7 2319 1 2327 3 4 9 7 12 7 3 0 7 -529 7
-1175z m1632 838 l-2 -228 -6 173 c-5 167 -3 282 6 282 2 0 3 -102 2 -227z
m-4613 -3 c9 -27 -1 -40 -30 -40 -24 0 -24 0 -7 30 20 35 28 37 37 10z m-35
-59 c0 -5 -15 -31 -33 -57 -67 -100 -80 -114 -99 -108 -13 4 -16 1 -12 -10 6
-17 -61 -106 -80 -106 -6 0 -3 7 6 14 10 7 15 16 12 19 -11 10 33 70 95 130
33 32 68 73 77 92 15 33 34 47 34 26z m-655 -460 c-9 -190 -28 -165 -29 39 -1
117 2 151 14 165 14 17 15 16 18 -21 2 -21 1 -104 -3 -183z m404 143 c-21 -23
-49 -32 -49 -17 0 13 52 53 62 47 5 -3 -1 -17 -13 -30z m-99 -69 c-13 -14 -26
-23 -28 -20 -3 3 5 16 18 30 13 14 26 23 28 20 3 -3 -5 -16 -18 -30z m-50
-120 c0 -2 -10 -10 -22 -16 -21 -11 -22 -11 -9 4 13 16 31 23 31 12z m-50 -80
c-13 -14 -26 -23 -28 -20 -4 4 38 44 47 45 3 0 -6 -11 -19 -25z m2607 -1137
c-1 -46 -3 -11 -3 77 0 88 2 125 3 83 2 -42 2 -114 0 -160z m-9 -125 c-14 -18
-27 -7 -21 16 4 16 8 17 18 8 9 -8 10 -16 3 -24z m-1080 20 c-10 -2 -26 -2
-35 0 -10 3 -2 5 17 5 19 0 27 -2 18 -5z m1702 -103 c0 -18 -6 -20 -82 -19
-46 0 -103 4 -128 9 -34 6 -21 7 55 5 55 -1 81 -1 58 2 -69 7 -49 23 27 23 63
0 70 -2 70 -20z m878 -7 c-10 -2 -28 -2 -40 0 -13 2 -5 4 17 4 22 1 32 -1 23
-4z m185 -10 c-7 -2 -19 -2 -25 0 -7 3 -2 5 12 5 14 0 19 -2 13 -5z m-3895
-168 c2 -2 -11 -5 -28 -7 -21 -3 -30 0 -30 9 0 10 8 11 28 7 15 -4 28 -8 30
-9z m1147 -15 c17 -4 -62 -7 -175 -7 l-205 1 160 6 c88 3 167 6 175 7 8 0 29
-3 45 -7z m802 -76 c-3 -3 -12 -4 -19 -1 -8 3 -5 6 6 6 11 1 17 -2 13 -5z"/>
<path d="M7661 10476 c-9 -11 -8 -15 4 -20 11 -4 14 -2 9 6 -5 8 -2 9 9 5 9
-3 19 -1 23 6 4 7 4 9 -1 5 -4 -4 -14 -3 -20 2 -9 7 -16 6 -24 -4z"/>
<path d="M7613 10398 c1 -7 -4 -12 -11 -10 -8 1 -11 -2 -7 -8 5 -8 11 -8 21 1
7 6 11 15 8 20 -8 13 -14 11 -11 -3z"/>
<path d="M7559 10343 l-24 -28 28 24 c15 14 27 26 27 28 0 8 -8 1 -31 -24z"/>
<path d="M7469 10318 c-19 -37 -51 -68 -63 -61 -6 3 -5 0 2 -8 10 -11 8 -17
-10 -32 -23 -18 -23 -18 -1 -8 23 11 38 29 38 45 0 5 6 11 14 14 9 3 11 0 6
-9 -5 -7 8 0 28 15 42 32 43 34 20 32 -11 0 -17 6 -17 17 2 23 -3 22 -17 -5z
m21 -22 c0 -2 -8 -10 -17 -17 -16 -13 -17 -12 -4 4 13 16 21 21 21 13z"/>
<path d="M7375 10250 c-3 -5 -1 -10 4 -10 6 0 11 5 11 10 0 6 -2 10 -4 10 -3
0 -8 -4 -11 -10z"/>
<path d="M7350 10216 c7 -7 14 -6 21 1 9 9 7 12 -9 10 -14 -1 -18 -5 -12 -11z"/>
<path d="M7119 10055 c-1 -3 -2 -8 -3 -12 -1 -5 -5 -13 -9 -19 -4 -7 0 -14 8
-18 8 -3 17 0 21 6 4 7 3 8 -4 4 -7 -4 -12 -3 -12 2 0 6 7 12 15 16 8 3 15 10
15 16 0 10 -29 15 -31 5z"/>
<path d="M7031 9939 c-17 -14 -27 -17 -35 -9 -12 12 -29 14 -22 1 7 -10 -111
-111 -130 -111 -8 0 -14 -5 -14 -11 0 -5 -4 -8 -9 -5 -5 4 -40 -25 -78 -63
-38 -38 -81 -73 -96 -76 -15 -4 -27 -10 -27 -14 0 -4 -19 -22 -42 -39 -53 -39
-108 -87 -88 -76 8 4 40 27 70 50 30 23 102 73 160 112 58 38 115 78 127 88
12 11 54 44 94 74 83 63 126 99 119 99 -3 0 -16 -9 -29 -20z"/>
<path d="M8315 9860 l-20 -9 20 1 c11 0 34 4 50 8 l30 8 -30 0 c-16 0 -39 -3
-50 -8z"/>
<path d="M6449 9503 c-13 -16 -12 -17 4 -4 9 7 17 15 17 17 0 8 -8 3 -21 -13z"/>
<path d="M7809 9433 c-13 -16 -12 -17 4 -4 9 7 17 15 17 17 0 8 -8 3 -21 -13z"/>
<path d="M4183 7048 c-30 -50 -43 -118 -43 -217 0 -89 0 -91 24 -91 21 0 25 6
31 48 7 47 16 292 10 292 -2 0 -12 -15 -22 -32z"/>
<path d="M3737 6981 c-45 -50 -63 -88 -61 -126 1 -16 3 -68 4 -115 l2 -85 24
65 c13 36 25 97 28 135 5 75 18 128 37 151 26 31 -1 11 -34 -25z"/>
<path d="M3657 6863 c-4 -3 -7 -11 -7 -17 0 -6 5 -5 12 2 6 6 9 14 7 17 -3 3
-9 2 -12 -2z"/>
<path d="M12040 6753 c119 -111 252 -245 421 -421 63 -67 122 -122 129 -122 8
0 23 -8 35 -17 11 -10 -9 9 -45 41 -36 33 -150 146 -253 252 -104 107 -235
232 -290 279 l-102 86 105 -98z"/>
<path d="M3611 6811 c-21 -39 -43 -262 -28 -278 4 -3 7 -35 7 -70 0 -35 3 -62
8 -60 4 3 18 38 31 79 13 40 28 82 33 93 10 23 7 115 -4 115 -5 0 -8 21 -8 48
0 83 -17 114 -39 73z"/>
<path d="M9948 6753 c7 -3 16 -2 19 1 4 3 -2 6 -13 5 -11 0 -14 -3 -6 -6z"/>
<path d="M10480 6751 c-528 -7 -484 -3 -617 -68 -40 -19 -61 -38 -85 -77 -33
-53 -34 -55 -38 -83 -1 -12 -3 -14 -7 -5 -3 9 -11 4 -21 -15 -14 -25 -17 -127
-23 -828 -5 -440 -5 -824 -2 -853 5 -47 11 -59 50 -98 25 -24 42 -44 39 -44
-4 0 0 -13 8 -29 19 -36 41 -40 281 -51 99 -5 206 -14 237 -20 32 -6 126 -12
210 -12 125 -2 161 1 198 16 35 13 96 19 265 26 121 5 240 11 265 13 25 2 56
1 70 -3 14 -5 19 -8 11 -9 -8 -1 -12 -3 -9 -6 3 -3 13 -3 22 1 15 6 15 7 -1
19 -15 12 -16 14 -3 18 8 3 22 8 30 10 8 3 3 6 -12 6 -16 1 -32 -6 -38 -16 -9
-15 -10 -14 -5 7 9 33 56 72 116 96 l49 18 -2 341 c-1 187 -4 306 -8 265 l-6
-75 -2 67 c-1 37 -7 70 -13 74 -8 5 -10 45 -7 136 3 71 3 168 -1 216 l-6 87
-6 -60 c-4 -38 -6 -1 -8 105 -1 91 -6 258 -11 372 l-9 207 -33 63 c-49 94
-110 150 -184 171 -84 24 -146 25 -694 18z m-170 -231 l138 0 1 -415 2 -415
-168 6 c-254 9 -308 24 -73 20 l195 -3 -155 8 c-85 5 -180 13 -210 17 l-55 7
-6 165 c-4 91 -10 268 -14 394 l-8 229 108 -6 c59 -4 170 -7 245 -7z m723 -34
c72 -30 71 -24 81 -367 5 -170 7 -311 4 -314 -2 -3 -72 -16 -154 -30 -82 -14
-161 -29 -175 -34 l-26 -9 -6 226 c-8 271 -7 458 2 492 5 18 18 27 51 36 62
17 184 17 223 0z m-1316 -28 c-3 -8 -6 -5 -6 6 -1 11 2 17 5 13 3 -3 4 -12 1
-19z m1690 -995 c-1 -54 -3 -10 -3 97 0 107 2 151 3 98 2 -54 2 -142 0 -195z
m-271 -20 c-3 -32 -8 -128 -11 -213 -3 -85 -8 -198 -11 -251 l-6 -96 -164 1
-164 1 0 263 0 262 28 0 c16 0 55 5 88 12 49 10 55 13 34 19 -22 6 -20 7 18
14 23 4 45 12 48 16 3 5 22 9 42 10 20 1 48 5 62 9 14 4 29 8 33 9 5 1 6 -25
3 -56z m41 42 c0 -11 -4 -12 -14 -4 -7 6 -13 13 -13 15 0 2 6 4 13 4 8 0 14
-7 14 -15z m-797 -75 c30 -4 48 -8 41 -9 -12 -1 -12 -4 -3 -13 9 -9 12 -81 12
-264 0 -220 -2 -253 -16 -258 -9 -3 -109 -6 -222 -6 l-207 0 3 272 c2 200 6
274 15 280 15 10 304 9 377 -2z m387 -442 c-1 -51 -3 -12 -3 87 0 99 2 141 3
93 2 -48 2 -129 0 -180z m196 -105 c-18 -2 -48 -2 -65 0 -18 2 -4 4 32 4 36 0
50 -2 33 -4z"/>
<path d="M6088 6633 c6 -2 18 -2 25 0 6 3 1 5 -13 5 -14 0 -19 -2 -12 -5z"/>
<path d="M5415 6580 c-101 -12 -211 -39 -235 -58 -42 -35 -43 -67 -25 -1477 5
-350 10 -455 25 -455 3 0 3 23 0 51 -9 66 -1 166 12 147 6 -8 7 7 4 42 -9 85
2 46 19 -65 20 -144 33 -205 44 -218 5 -7 9 -15 8 -18 -3 -11 99 -76 129 -82
109 -24 282 -60 354 -74 66 -13 171 -18 475 -23 l390 -6 -402 -2 c-353 -2
-491 4 -579 23 -15 3 -24 -1 -29 -13 -5 -13 -4 -14 6 -5 9 9 19 9 44 -1 42
-18 1195 -34 1195 -17 0 6 -8 11 -17 12 -15 0 -14 2 3 9 30 12 65 101 81 210
16 106 13 325 -7 520 -8 75 -12 303 -11 660 0 300 -2 561 -5 581 -9 61 -96
179 -132 179 -5 0 -12 6 -15 14 -5 13 0 13 35 0 23 -8 48 -20 56 -27 13 -10
14 -9 2 9 -14 22 -81 56 -150 75 -53 14 -1159 22 -1275 9z m833 -200 c2 -5 16
-10 30 -11 19 -1 13 -4 -17 -10 -24 -5 -48 -6 -52 -3 -5 3 -9 1 -9 -4 0 -6 61
-13 138 -16 75 -4 160 -9 188 -12 l52 -5 7 -152 c4 -84 5 -219 3 -302 l-3
-150 -50 -7 c-27 -4 -120 -16 -205 -28 -85 -11 -164 -23 -175 -26 -20 -5 -20
0 -20 372 l0 376 55 -5 c30 -3 56 -11 58 -17z m-365 -363 c2 -252 0 -304 -12
-299 -7 3 -16 0 -20 -6 -8 -13 -365 2 -405 17 -14 6 -31 21 -37 34 -6 12 -20
27 -32 32 -21 10 -22 14 -22 184 1 128 4 176 13 179 7 2 13 11 14 20 1 10 5
-21 8 -68 l6 -85 3 110 c3 111 7 165 13 170 3 4 461 21 466 18 2 -1 4 -138 5
-306z m-705 -604 c-1 -296 -3 -372 -9 -278 -14 254 -9 685 7 685 2 0 3 -183 2
-407z m697 -392 c0 -313 -3 -399 -13 -410 -29 -30 -277 7 -258 38 4 5 1 13 -5
17 -8 4 -9 3 -5 -4 9 -14 -4 -15 -24 -2 -13 9 -13 10 0 10 11 1 10 4 -4 15
-14 11 -16 15 -5 15 8 0 -9 13 -36 29 -28 16 -57 36 -64 45 -7 9 -17 14 -21
11 -5 -3 -11 12 -14 32 -9 62 -19 581 -11 593 5 7 76 10 234 9 l227 -2 -1
-396z m725 4 c1 -221 5 -350 11 -335 8 24 8 23 5 -5 -2 -16 -5 -37 -7 -45 -5
-17 50 -28 60 -12 4 7 13 5 26 -4 17 -13 -15 -14 -258 -12 l-277 3 -4 155 c-2
85 -9 218 -16 295 -15 166 -10 267 14 290 9 9 42 20 74 25 31 4 69 11 83 15
14 3 81 9 150 13 105 6 125 5 131 -8 4 -8 7 -177 8 -375z m107 -217 c-1 -51
-3 -10 -3 92 0 102 2 143 3 93 2 -51 2 -135 0 -185z m-1530 20 c-2 -13 -4 -5
-4 17 -1 22 1 32 4 23 2 -10 2 -28 0 -40z m1500 -90 c-3 -8 -6 -5 -6 6 -1 11
2 17 5 13 3 -3 4 -12 1 -19z m-1153 -23 c11 -8 14 -15 7 -15 -7 0 -9 -5 -5
-12 4 -7 3 -8 -5 -4 -6 4 -9 11 -6 16 3 5 -3 13 -12 19 -10 6 -13 10 -8 10 6
0 19 -6 29 -14z m1183 -27 c-3 -8 -6 -5 -6 6 -1 11 2 17 5 13 3 -3 4 -12 1
-19z"/>
<path d="M5376 5923 c-8 -51 -8 -73 2 -73 4 0 8 25 9 55 3 64 -2 71 -11 18z"/>
<path d="M5381 5814 c0 -11 3 -14 6 -6 3 7 2 16 -1 19 -3 4 -6 -2 -5 -13z"/>
<path d="M10190 4540 c-51 -4 29 -7 195 -7 154 0 307 3 340 7 74 9 -412 9
-535 0z"/>
<path d="M11028 4543 c7 -3 16 -2 19 1 4 3 -2 6 -13 5 -11 0 -14 -3 -6 -6z"/>
<path d="M10857 4530 c4 -4 33 -4 63 0 l55 8 -63 -1 c-34 0 -59 -3 -55 -7z"/>
<path d="M10218 4513 c12 -2 32 -2 45 0 12 2 2 4 -23 4 -25 0 -35 -2 -22 -4z"/>
<path d="M10612 4513 c37 -2 100 -2 140 0 40 1 10 3 -67 3 -77 0 -110 -1 -73
-3z"/>
<path d="M5241 2649 c-13 -11 -21 -22 -17 -26 3 -3 15 4 26 17 31 36 27 40 -9
9z"/>
<path d="M5155 2626 c-11 -8 -18 -26 -18 -45 0 -17 -4 -31 -9 -31 -5 0 -6 6
-2 13 5 9 4 9 -6 0 -11 -10 -11 -15 0 -28 12 -14 9 -21 -18 -48 l-32 -32 0 26
c0 14 6 31 13 38 10 11 9 13 -1 9 -15 -4 -31 -30 -63 -101 -19 -42 -25 -48
-45 -43 -20 5 -24 3 -24 -18 0 -16 -15 -41 -40 -67 -22 -23 -40 -46 -40 -50 0
-4 -6 -12 -14 -16 -8 -4 -24 -27 -36 -51 -17 -32 -25 -40 -31 -30 -7 11 -11
10 -19 -2 -14 -22 -12 -30 8 -24 10 3 9 0 -4 -7 -12 -6 -31 -36 -44 -67 -19
-44 -25 -52 -30 -36 -6 17 -8 17 -15 -6 -5 -14 -9 -36 -10 -50 -1 -14 -16 -46
-35 -72 -39 -55 -63 -108 -50 -108 6 0 10 5 10 12 0 6 2 9 5 6 3 -3 1 -17 -5
-32 -10 -28 -3 -116 10 -116 8 0 10 16 10 78 1 32 19 72 40 89 22 17 34 4 13
-14 -17 -13 -16 -14 10 -8 24 5 27 3 28 -22 0 -19 5 -10 14 27 7 30 11 58 9
62 -3 5 2 8 10 8 8 0 18 -5 21 -10 13 -21 69 59 59 84 -4 11 8 31 41 64 29 29
48 57 49 72 0 14 3 27 6 30 3 3 12 19 20 35 9 17 25 34 37 40 12 5 24 18 27
30 3 11 28 44 56 74 27 29 50 57 50 62 0 5 15 26 34 47 67 71 107 125 122 161
8 20 25 44 37 53 12 10 17 18 10 18 -6 0 -26 -17 -44 -37 -17 -21 -28 -32 -25
-25 10 18 -2 15 -25 -7 -38 -35 -54 -32 -57 12 -1 21 3 45 9 53 15 18 8 18
-16 0z m54 -125 c-18 -23 -37 -41 -43 -40 -6 0 -5 3 2 6 6 2 12 13 12 23 0 18
48 65 58 56 2 -3 -11 -23 -29 -45z m-69 -21 c0 -5 -8 -10 -17 -10 -15 0 -16 2
-3 10 19 12 20 12 20 0z m-20 -49 c-10 -21 -30 -37 -30 -26 0 14 21 45 31 45
6 0 6 -7 -1 -19z m-80 -96 c-7 -8 -17 -15 -23 -15 -6 0 -2 7 9 15 25 19 30 19
14 0z m-10 -45 c0 -5 -4 -10 -10 -10 -5 0 -10 5 -10 10 0 6 5 10 10 10 6 0 10
-4 10 -10z m-80 -80 c0 -11 -7 -20 -15 -20 -18 0 -19 12 -3 28 16 16 18 15 18
-8z m-68 -127 c-9 -3 -10 -9 -3 -17 8 -9 2 -21 -20 -42 l-30 -29 3 28 c5 31
32 67 50 66 10 0 10 -2 0 -6z m-123 -139 c-8 -24 -8 -25 6 -14 8 7 15 20 15
29 1 13 3 13 15 -3 19 -26 19 -36 -5 -66 l-19 -25 -18 20 c-25 29 -27 44 -7
66 23 25 25 24 13 -7z m-92 -62 c-3 -22 -47 -80 -47 -62 0 13 38 80 46 80 2 0
3 -8 1 -18z m48 -52 c3 -5 1 -10 -4 -10 -6 0 -11 5 -11 10 0 6 2 10 4 10 3 0
8 -4 11 -10z"/>
<path d="M5182 2590 c-7 -11 -8 -20 -3 -20 9 0 24 30 18 36 -1 2 -8 -6 -15
-16z"/>
<path d="M5670 2287 c0 -9 9 -19 20 -22 16 -5 19 -12 15 -28 -4 -12 -3 -18 2
-12 5 6 11 12 15 15 4 3 -6 18 -22 34 -21 19 -30 23 -30 13z"/>
<path d="M5574 2232 c-39 -47 -170 -176 -232 -227 -17 -15 -30 -30 -27 -35 3
-4 -7 -29 -22 -55 -21 -39 -23 -49 -12 -57 12 -8 11 -9 -1 -5 -22 7 -54 -22
-78 -69 -11 -21 -32 -52 -47 -68 -14 -15 -24 -30 -21 -33 2 -3 -4 -24 -14 -48
-15 -35 -16 -43 -4 -38 19 7 18 0 -5 -25 -10 -12 -21 -19 -24 -15 -4 3 -18
-18 -32 -48 -13 -30 -20 -55 -15 -57 6 -2 10 -17 10 -32 0 -16 4 -31 9 -35 13
-8 22 25 23 87 0 32 7 60 16 71 21 24 30 8 38 -65 4 -32 10 -58 15 -58 9 0 25
53 34 115 4 22 8 49 10 60 2 11 4 25 5 30 1 6 6 -3 11 -20 5 -16 6 -39 3 -50
-7 -20 -7 -20 16 0 27 25 62 94 53 108 -3 6 -1 7 4 4 6 -4 18 4 27 18 9 14 23
25 31 25 8 0 15 9 15 19 0 11 5 23 10 26 6 3 10 11 10 16 0 6 -4 7 -10 4 -5
-3 -10 -1 -10 5 0 7 6 10 14 7 9 -4 22 5 32 21 10 14 26 35 36 46 10 11 18 25
18 31 0 6 23 33 50 60 28 27 50 54 50 59 0 6 23 32 51 59 28 27 48 51 44 55
-4 4 -10 1 -12 -5 -6 -18 -20 -16 -27 3 -3 8 -2 12 4 9 5 -3 17 7 26 22 10 15
27 36 38 45 13 11 16 18 8 18 -7 0 -29 -17 -48 -37 -32 -35 -34 -36 -25 -10 7
17 7 27 1 27 -14 0 -13 53 1 67 7 7 7 13 1 17 -5 3 -27 -15 -48 -42z m16 -27
c-7 -9 -15 -13 -19 -10 -3 3 1 10 9 15 21 14 24 12 10 -5z m-13 -39 c-3 -7 -1
-18 5 -24 8 -8 8 -16 -2 -27 -19 -23 -31 -18 -24 13 9 42 13 52 20 52 3 0 4
-6 1 -14z m-32 -16 c-3 -5 -12 -10 -18 -10 -7 0 -6 4 3 10 19 12 23 12 15 0z
m-5 -34 c0 -8 -7 -16 -15 -20 -13 -4 -14 -2 -5 14 13 23 20 26 20 6z m15 -62
c-19 -21 -24 -23 -19 -8 4 10 14 25 22 31 26 22 24 7 -3 -23z m-96 -13 c-18
-17 -34 -29 -36 -27 -8 8 28 55 45 59 27 6 26 1 -9 -32z m36 -11 c-3 -5 -11
-10 -16 -10 -6 0 -7 5 -4 10 3 6 11 10 16 10 6 0 7 -4 4 -10z m-115 -25 c-7
-8 -9 -15 -5 -15 4 0 2 -7 -5 -15 -14 -16 -30 -20 -30 -6 0 13 42 63 48 57 2
-3 -1 -12 -8 -21z m95 -25 c-10 -11 -20 -18 -23 -15 -3 3 3 14 13 25 10 11 20
18 23 15 3 -3 -3 -14 -13 -25z m-120 -40 c-3 -5 -11 -10 -16 -10 -6 0 -7 5 -4
10 3 6 11 10 16 10 6 0 7 -4 4 -10z m-64 -63 c-10 -9 -11 -8 -5 6 3 10 9 15
12 12 3 -3 0 -11 -7 -18z m102 -11 c-21 -28 -28 -26 -18 3 3 12 13 21 21 21
12 0 12 -4 -3 -24z m-83 -96 c-6 -11 -18 -20 -28 -20 -14 1 -13 4 7 20 29 25
34 25 21 0z m-115 -69 c-20 -39 -40 -52 -30 -20 6 20 31 49 42 49 2 0 -3 -13
-12 -29z m110 -1 c-3 -5 -10 -10 -16 -10 -5 0 -9 5 -9 10 0 6 7 10 16 10 8 0
12 -4 9 -10z m-75 -34 c0 -2 -7 -9 -15 -16 -13 -11 -14 -10 -9 4 5 14 24 23
24 12z m-53 -78 c-3 -8 -6 -5 -6 6 -1 11 2 17 5 13 3 -3 4 -12 1 -19z"/>
<path d="M5710 2160 c-9 -6 -10 -10 -3 -10 6 0 15 5 18 10 8 12 4 12 -15 0z"/>
<path d="M10821 2083 c-8 -8 -14 -28 -15 -44 -1 -16 -6 -29 -13 -29 -6 0 -9
-9 -6 -20 7 -25 12 -25 29 -2 12 15 13 13 4 -12 -7 -19 -7 -33 -1 -39 6 -6 12
4 16 29 3 22 8 49 11 62 2 12 0 22 -6 22 -6 0 -8 -4 -5 -10 3 -5 1 -10 -4 -10
-16 0 -13 22 5 48 17 25 6 29 -15 5z"/>
<path d="M10715 2060 c-5 -8 -8 -25 -7 -37 2 -11 -2 -24 -8 -28 -9 -6 -9 -10
1 -16 10 -6 9 -12 -6 -29 -11 -12 -19 -31 -17 -41 2 -10 -1 -19 -7 -19 -5 0
-11 -8 -14 -17 -2 -11 -7 -3 -11 20 -11 49 -24 47 -28 -5 -4 -42 -4 -42 -16
-18 -12 25 -12 25 -6 -5 12 -59 13 -85 3 -90 -5 -4 -3 -13 6 -21 8 -9 15 -24
15 -35 0 -11 5 -17 10 -14 6 3 14 -5 20 -19 16 -44 16 -45 22 102 5 95 21 139
34 88 6 -26 4 -42 -12 -81 -7 -18 -6 -18 9 -7 8 8 18 23 20 35 3 20 4 20 15
-7 16 -36 24 -30 14 10 -6 19 -4 38 5 54 7 14 13 19 13 12 0 -7 5 -10 10 -7 6
3 10 15 10 27 0 17 -3 18 -15 8 -20 -17 -31 10 -16 39 16 28 14 36 -6 20 -15
-13 -15 -12 -5 8 15 28 15 44 0 41 -6 -2 -14 8 -18 22 -5 20 -8 22 -15 10z"/>
<path d="M10850 2011 c0 -5 5 -13 10 -16 6 -3 10 -2 10 4 0 5 -4 13 -10 16 -5
3 -10 2 -10 -4z"/>
<path d="M6131 1955 c-8 -22 -14 -52 -12 -67 1 -15 -1 -33 -5 -39 -4 -7 -8
-40 -10 -73 -2 -58 1 -59 21 -1 7 18 9 17 21 -10 l13 -30 1 36 c0 19 5 40 12
47 9 9 9 12 1 12 -8 0 -11 16 -9 45 1 25 -1 45 -5 45 -4 0 -9 17 -11 38 l-3
37 -14 -40z"/>
<path d="M6040 1919 c0 -11 -4 -28 -9 -37 -5 -9 -12 -42 -16 -72 -4 -30 -11
-56 -16 -58 -5 -2 -9 -8 -9 -13 0 -6 4 -8 9 -4 13 8 26 -57 26 -132 0 -55 1
-60 12 -40 12 22 12 22 13 -5 0 -16 5 -28 10 -28 6 0 10 6 9 13 -1 6 1 32 5
57 12 81 14 135 4 147 -5 7 -6 19 -1 30 5 10 8 25 7 33 -1 8 -3 29 -4 45 -2
25 -3 26 -7 7 -8 -41 -23 -12 -16 33 4 31 2 45 -6 45 -6 0 -11 -9 -11 -21z"/>
<path d="M11145 1870 c-3 -5 1 -10 9 -10 9 0 16 5 16 10 0 6 -4 10 -9 10 -6 0
-13 -4 -16 -10z"/>
<path d="M11070 1863 c0 -6 4 -14 9 -18 15 -9 -22 -85 -41 -85 -11 0 -18 -8
-18 -19 0 -30 -17 -35 -31 -9 -9 16 -9 23 0 26 13 4 5 22 -10 22 -6 0 -7 -4
-4 -10 3 -5 2 -10 -4 -10 -6 0 -5 -11 2 -29 10 -28 8 -32 -24 -62 -18 -17 -26
-29 -17 -26 13 5 15 2 11 -10 -4 -11 -2 -14 5 -9 19 11 14 -26 -7 -53 -11 -15
-24 -22 -34 -18 -11 4 -14 -1 -13 -19 1 -18 4 -21 11 -12 6 7 24 25 41 40 27
25 30 26 31 8 1 -11 -2 -22 -8 -25 -15 -10 -10 -25 6 -19 11 5 15 -1 15 -25 0
-21 4 -29 13 -25 8 3 13 12 13 22 0 58 5 92 13 88 5 -3 12 9 15 27 7 32 7 32
24 11 9 -12 22 -30 29 -40 11 -16 12 -16 7 -1 -4 9 -2 17 3 17 5 0 8 13 5 29
-2 16 1 32 8 36 8 5 8 11 -2 23 -7 9 -8 13 -2 9 15 -9 45 36 35 52 -4 6 -14 9
-22 6 -9 -3 -19 6 -27 25 -14 30 -9 55 9 45 5 -4 9 -1 9 4 0 6 -5 11 -11 11
-7 0 -18 8 -25 18 -7 9 -14 12 -14 5z m0 -184 c0 -4 -11 -9 -25 -11 -14 -3
-25 -1 -25 3 0 5 6 9 13 10 9 0 9 2 -1 6 -10 4 -10 8 -1 19 10 12 14 12 25 -3
7 -10 14 -21 14 -24z m15 -39 c3 -5 1 -10 -4 -10 -6 0 -11 5 -11 10 0 6 2 10
4 10 3 0 8 -4 11 -10z"/>
<path d="M11178 1853 c-14 -3 -17 -14 -16 -44 1 -22 5 -42 10 -45 5 -3 6 -14
3 -25 -4 -11 -2 -19 5 -19 6 0 10 15 8 38 -2 25 1 36 9 35 9 -2 10 4 3 23 -6
14 -8 30 -4 35 3 5 4 8 2 8 -2 -1 -11 -3 -20 -6z"/>
<path d="M10535 1763 c-7 -49 -21 -83 -38 -94 -5 -4 -3 -20 6 -40 8 -19 18
-47 22 -63 5 -25 26 -56 38 -56 2 0 7 18 11 41 4 22 14 51 22 65 11 16 13 28
6 37 -5 6 -19 45 -32 85 -12 39 -23 72 -25 72 -1 0 -6 -21 -10 -47z"/>
<path d="M11116 1801 c-4 -7 -5 -15 -2 -18 9 -9 19 4 14 18 -4 11 -6 11 -12 0z"/>
<path d="M4650 1759 c-7 -11 -10 -23 -7 -25 2 -2 9 7 15 21 14 30 7 33 -8 4z"/>
<path d="M4656 1695 c-11 -8 -17 -17 -14 -20 2 -3 13 4 23 15 21 23 18 25 -9
5z"/>
<path d="M10426 1654 c4 -10 11 -25 17 -31 6 -9 6 -17 -1 -26 -21 -25 -18
-129 5 -177 12 -25 24 -54 27 -64 11 -33 16 -11 21 89 6 111 -4 155 -47 199
-20 20 -26 23 -22 10z"/>
<path d="M10895 1630 c-3 -5 -1 -10 4 -10 6 0 11 5 11 10 0 6 -2 10 -4 10 -3
0 -8 -4 -11 -10z"/>
<path d="M10350 1511 c0 -5 5 -13 10 -16 6 -4 7 -11 4 -17 -4 -6 -10 -6 -17 1
-15 15 -24 14 -24 -4 0 -8 7 -15 15 -15 12 0 14 -11 8 -63 -3 -35 -4 -66 -1
-69 3 -3 17 -3 31 0 25 5 26 7 21 53 -4 34 -2 51 8 59 13 10 13 15 1 32 -18
26 -56 52 -56 39z m27 -153 c-3 -8 -6 -5 -6 6 -1 11 2 17 5 13 3 -3 4 -12 1
-19z"/>
<path d="M5750 1350 c-6 -11 -8 -20 -6 -20 3 0 10 9 16 20 6 11 8 20 6 20 -3
0 -10 -9 -16 -20z"/>
<path d="M5052 1340 c-10 -17 -10 -20 3 -20 8 0 15 9 15 20 0 11 -1 20 -3 20
-1 0 -8 -9 -15 -20z"/>
<path d="M3785 7830 c4 -6 11 -8 16 -5 14 9 11 15 -7 15 -8 0 -12 -5 -9 -10z"/>
<path d="M9513 3605 c0 -27 2 -38 4 -22 2 15 2 37 0 50 -2 12 -4 0 -4 -28z"/>
<path d="M8909 3607 c13 -16 12 -17 -15 -7 -25 9 -20 2 31 -50 33 -33 61 -56
63 -50 5 13 -41 81 -71 107 -20 16 -20 16 -8 0z"/>
<path d="M9511 3524 c0 -11 3 -14 6 -6 3 7 2 16 -1 19 -3 4 -6 -2 -5 -13z"/>
<path d="M7732 3500 c0 -19 2 -27 5 -17 2 9 2 25 0 35 -3 9 -5 1 -5 -18z"/>
<path d="M7673 2660 c0 -30 2 -43 4 -27 2 15 2 39 0 55 -2 15 -4 2 -4 -28z"/>
<path d="M9036 2579 c-7 -71 -8 -144 -2 -138 7 6 19 199 14 199 -3 0 -8 -28
-12 -61z"/>
<path d="M7643 2390 c0 -41 2 -58 4 -37 2 20 2 54 0 75 -2 20 -4 3 -4 -38z"/>
<path d="M9072 2290 c0 -14 2 -19 5 -12 2 6 2 18 0 25 -3 6 -5 1 -5 -13z"/>
<path d="M7642 2280 c0 -14 2 -19 5 -12 2 6 2 18 0 25 -3 6 -5 1 -5 -13z"/>
<path d="M7642 2205 c0 -16 2 -22 5 -12 2 9 2 23 0 30 -3 6 -5 -1 -5 -18z"/>
<path d="M7664 2015 c0 -66 1 -92 3 -57 2 34 2 88 0 120 -2 31 -3 3 -3 -63z"/>
<path d="M9061 2104 c0 -11 3 -14 6 -6 3 7 2 16 -1 19 -3 4 -6 -2 -5 -13z"/>
<path d="M9063 2005 c0 -44 2 -61 4 -37 2 23 2 59 0 80 -2 20 -4 1 -4 -43z"/>
<path d="M7363 1865 c0 -27 2 -38 4 -22 2 15 2 37 0 50 -2 12 -4 0 -4 -28z"/>
<path d="M9101 1714 c0 -11 3 -14 6 -6 3 7 2 16 -1 19 -3 4 -6 -2 -5 -13z"/>
<path d="M8068 3413 c34 -2 88 -2 120 0 31 2 3 3 -63 3 -66 0 -92 -1 -57 -3z"/>
<path d="M10634 11209 c-19 -22 -19 -22 4 -8 12 8 22 17 22 21 0 12 -6 9 -26
-13z"/>
<path d="M7970 11029 c0 -5 5 -7 10 -4 6 3 10 8 10 11 0 2 -4 4 -10 4 -5 0
-10 -5 -10 -11z"/>
<path d="M7639 10773 c-13 -16 -12 -17 4 -4 16 13 21 21 13 21 -2 0 -10 -8
-17 -17z"/>
<path d="M7170 10398 c-14 -11 -24 -25 -22 -30 1 -5 -2 -7 -8 -3 -6 4 -36 -15
-67 -42 -31 -26 -70 -58 -87 -70 -16 -13 -25 -23 -19 -23 6 0 16 7 23 15 7 8
18 15 24 15 7 0 31 16 53 35 22 19 44 31 48 27 5 -4 5 -2 1 5 -3 7 2 14 13 18
11 3 31 21 46 40 30 40 29 42 -5 13z"/>
<path d="M7039 10233 c-13 -16 -12 -17 4 -4 9 7 17 15 17 17 0 8 -8 3 -21 -13z"/>
<path d="M6945 10170 c-10 -11 -14 -20 -8 -20 5 0 18 9 28 20 10 11 14 20 8
20 -5 0 -18 -9 -28 -20z"/>
<path d="M6594 9969 c-19 -22 -19 -22 4 -8 12 8 22 17 22 21 0 12 -6 9 -26
-13z"/>
<path d="M6535 9924 l-30 -25 33 16 c17 8 32 20 32 25 0 14 -1 13 -35 -16z"/>
<path d="M6435 9850 c-3 -5 -1 -10 4 -10 6 0 11 5 11 10 0 6 -2 10 -4 10 -3 0
-8 -4 -11 -10z"/>
<path d="M6385 9814 c-16 -13 -24 -24 -17 -24 14 0 58 37 51 44 -2 2 -17 -7
-34 -20z"/>
<path d="M5865 9423 c-55 -40 -124 -90 -152 -110 -29 -20 -53 -40 -53 -44 0
-5 -7 -9 -15 -9 -8 0 -14 -5 -12 -12 1 -7 -4 -12 -11 -13 -7 0 -16 -5 -20 -11
-4 -6 -14 -14 -22 -17 -8 -3 -3 -5 11 -4 19 1 25 5 21 16 -3 9 -1 12 6 7 6 -3
13 -2 17 4 3 5 16 15 28 22 20 10 21 10 8 -6 -12 -14 -11 -16 6 -13 26 4 70
40 66 53 -5 14 59 70 135 120 29 20 50 40 47 45 -4 5 2 9 13 9 10 0 26 8 35
18 37 41 -12 16 -108 -55z"/>
<path d="M5373 9057 c-24 -17 -41 -33 -38 -35 3 -3 13 2 23 11 10 10 23 17 28
17 5 0 15 9 22 20 15 25 16 25 -35 -13z"/>
<path d="M5245 8961 c-3 -5 -2 -12 3 -15 5 -3 9 1 9 9 0 17 -3 19 -12 6z"/>
<path d="M5215 8940 c-3 -5 -1 -10 4 -10 6 0 11 5 11 10 0 6 -2 10 -4 10 -3 0
-8 -4 -11 -10z"/>
<path d="M5155 8880 c-21 -22 -36 -40 -33 -40 8 0 78 68 78 75 0 10 -6 5 -45
-35z"/>
<path d="M13545 7140 c10 -11 20 -20 23 -20 3 0 -3 9 -13 20 -10 11 -20 20
-23 20 -3 0 3 -9 13 -20z"/>
<path d="M13585 7087 c8 -12 52 -56 97 -97 l83 -73 -95 96 c-52 54 -96 97 -98
97 -1 0 4 -10 13 -23z"/>
<path d="M13820 6841 c0 -6 4 -13 10 -16 6 -3 7 1 4 9 -7 18 -14 21 -14 7z"/>
<path d="M13877 6760 c20 -27 39 -47 41 -45 5 5 -66 95 -74 95 -2 0 12 -22 33
-50z"/>
<path d="M13948 6665 c11 -16 37 -48 57 -70 l37 -40 -31 40 c-16 22 -42 54
-56 70 l-27 30 20 -30z"/>
<path d="M2940 5430 c0 -5 5 -10 10 -10 6 0 10 5 10 10 0 6 -4 10 -10 10 -5 0
-10 -4 -10 -10z"/>
<path d="M2981 5420 c0 -8 4 -22 9 -30 12 -18 12 -2 0 25 -6 13 -9 15 -9 5z"/>
<path d="M13280 5210 c0 -5 5 -10 11 -10 5 0 7 5 4 10 -3 6 -8 10 -11 10 -2 0
-4 -4 -4 -10z"/>
<path d="M12813 1470 c0 -41 2 -58 4 -37 2 20 2 54 0 75 -2 20 -4 3 -4 -38z"/>
<path d="M11460 840 c0 -5 5 -10 10 -10 6 0 10 5 10 10 0 6 -4 10 -10 10 -5 0
-10 -4 -10 -10z"/>
<path d="M7750 750 l-335 -5 390 -9 c503 -12 1944 -12 2370 0 l330 9 -210 6
c-241 7 -2045 6 -2545 -1z"/>
</g>
</svg>
