<?xml version="1.0" standalone="no"?>
<!DOCTYPE svg PUBLIC "-//W3C//DTD SVG 20010904//EN"
 "http://www.w3.org/TR/2001/REC-SVG-20010904/DTD/svg10.dtd">
<svg version="1.0" xmlns="http://www.w3.org/2000/svg"
 width="1200.000000pt" height="1005.000000pt" viewBox="0 0 1200.000000 1005.000000"
 preserveAspectRatio="xMidYMid meet">
<metadata>
Created by potrace 1.16, written by Peter Selinger 2001-2019
</metadata>
<g transform="translate(0.000000,1005.000000) scale(0.100000,-0.100000)"
fill="#000000" stroke="none">
<path d="M5145 9199 c-76 -19 -178 -79 -234 -137 -29 -32 -57 -66 -62 -77 -5
-11 -20 -39 -33 -63 -33 -57 -48 -120 -53 -219 -4 -81 -5 -83 -31 -88 -38 -8
-82 -21 -117 -35 -29 -12 -32 -11 -75 32 -25 24 -63 57 -85 72 -22 16 -44 34
-50 40 -13 14 -72 47 -165 92 -114 55 -132 63 -165 70 -16 4 -34 10 -40 14 -5
4 -68 20 -140 35 -114 24 -152 27 -315 27 -102 0 -212 -4 -245 -10 -117 -20
-230 -44 -240 -52 -5 -4 -23 -10 -40 -14 -66 -15 -314 -139 -401 -201 -84 -60
-83 -60 -182 -152 -42 -40 -80 -73 -84 -73 -3 0 -30 16 -59 34 -36 25 -69 37
-108 42 -70 8 -81 17 -81 63 0 20 -4 41 -8 46 -4 6 -14 28 -21 50 -50 149
-226 258 -421 259 -83 1 -250 -36 -250 -54 0 -5 -12 -13 -27 -19 -45 -18 -66
-33 -117 -81 -85 -79 -169 -210 -211 -330 -19 -54 -65 -247 -65 -273 0 -30
-41 -160 -56 -178 -8 -8 -14 -20 -14 -25 0 -11 -76 -94 -86 -94 -4 0 -15 -7
-24 -15 -10 -9 -46 -23 -81 -32 -61 -15 -114 -12 -205 13 -13 3 -28 -1 -38
-11 -17 -17 -22 -65 -7 -65 5 0 13 -9 16 -20 4 -11 42 -55 85 -98 58 -57 101
-88 162 -119 114 -57 158 -71 270 -84 268 -31 534 58 818 275 36 27 72 57 81
65 45 45 90 81 99 81 5 0 1 -23 -10 -52 -30 -84 -80 -328 -80 -395 0 -29 -3
-31 -49 -37 -110 -15 -204 -102 -217 -203 -6 -54 11 -153 27 -153 5 0 9 -6 9
-14 0 -23 81 -83 130 -96 26 -7 69 -10 103 -6 l58 6 20 -48 c42 -98 59 -131
69 -137 5 -3 10 -12 10 -20 0 -14 73 -129 97 -153 7 -7 13 -17 13 -22 0 -15
201 -212 265 -261 124 -93 287 -187 406 -235 99 -39 209 -74 234 -74 44 0 35
-46 -22 -108 -7 -7 -13 -20 -13 -28 0 -8 -4 -14 -9 -14 -5 0 -18 -15 -29 -32
-11 -18 -27 -42 -36 -53 -9 -11 -35 -45 -59 -75 -59 -77 -86 -108 -214 -237
-61 -62 -116 -113 -122 -113 -6 0 -11 -4 -11 -9 0 -4 -25 -28 -56 -52 -32 -24
-64 -51 -74 -59 -23 -21 -73 -56 -150 -107 -36 -24 -69 -46 -75 -51 -5 -4 -17
-11 -25 -15 -8 -4 -33 -18 -55 -32 -22 -14 -52 -31 -67 -37 -16 -7 -28 -15
-28 -19 0 -4 -12 -10 -27 -14 -16 -4 -34 -12 -42 -18 -7 -6 -27 -17 -45 -23
-17 -6 -38 -14 -46 -18 -11 -4 -23 8 -43 43 -50 90 -118 131 -217 131 -96 0
-176 -43 -228 -123 -25 -38 -27 -51 -27 -138 0 -88 2 -99 29 -139 62 -94 135
-135 241 -134 130 1 235 83 272 211 13 48 24 67 43 77 216 110 371 202 471
279 26 20 51 37 55 37 4 0 12 6 18 13 6 8 47 42 91 77 129 103 345 326 433
447 11 15 23 26 26 23 4 -5 -11 -73 -39 -175 -8 -27 -17 -66 -21 -85 -3 -19
-10 -48 -14 -65 -5 -16 -37 -145 -71 -285 -34 -140 -65 -264 -70 -275 -4 -11
-14 -51 -23 -90 -8 -38 -22 -99 -31 -135 -9 -36 -22 -90 -30 -120 -37 -155
-48 -196 -56 -211 -4 -9 -11 -34 -14 -55 -4 -22 -27 -118 -52 -214 -25 -96
-52 -200 -59 -230 -7 -30 -18 -73 -24 -95 -21 -77 -71 -270 -80 -305 -20 -87
-44 -177 -51 -195 -4 -11 -21 -76 -38 -145 -17 -69 -40 -159 -52 -200 -11 -41
-27 -100 -35 -130 -7 -30 -20 -77 -27 -105 -17 -63 -11 -135 12 -136 41 -3
136 3 246 17 241 29 706 72 718 67 4 -2 5 -14 3 -26 -3 -12 -11 -69 -20 -127
-8 -58 -25 -170 -36 -250 -12 -80 -26 -174 -32 -210 -5 -36 -16 -112 -24 -170
-26 -193 -36 -264 -53 -363 l-17 -98 -25 20 c-37 29 -136 79 -173 87 -17 3
-37 11 -45 18 -24 19 -246 14 -311 -7 -188 -61 -234 -210 -112 -365 59 -74
155 -127 269 -147 175 -31 350 47 453 203 17 25 28 52 26 59 -3 7 -1 37 5 66
5 28 16 99 24 157 8 58 19 137 25 175 11 75 26 181 60 420 11 83 27 191 35
240 8 50 17 113 20 140 3 28 11 81 18 119 14 78 23 86 110 86 29 0 81 5 117
10 36 5 135 17 220 25 85 8 196 19 245 24 50 5 125 12 167 16 l77 6 0 -213 c1
-205 30 -659 51 -783 5 -33 14 -96 20 -140 16 -132 38 -269 51 -319 9 -35 9
-49 0 -60 -18 -22 3 -88 37 -117 42 -36 90 -69 100 -69 5 0 15 -6 21 -14 7 -8
24 -17 39 -21 15 -4 41 -13 57 -20 142 -65 405 -33 498 61 202 202 -170 531
-478 423 -59 -21 -152 -76 -176 -105 -11 -13 -15 -6 -27 48 -14 65 -35 218
-52 373 -35 313 -41 413 -43 680 l-2 290 90 7 c120 10 389 36 550 53 72 8 167
17 211 21 63 5 88 12 110 29 l28 22 -17 74 c-9 41 -25 119 -37 174 -11 55 -27
125 -35 155 -7 30 -19 78 -25 105 -25 111 -39 165 -69 270 -18 61 -39 135 -48
165 -8 30 -23 80 -33 110 -10 30 -35 109 -55 175 -21 66 -43 136 -51 155 -7
19 -23 67 -35 105 -12 39 -25 75 -29 80 -4 6 -22 53 -40 105 -18 52 -36 100
-40 105 -4 6 -11 25 -15 43 -3 17 -10 32 -15 32 -5 0 -12 15 -15 32 -4 18 -13
44 -20 58 -11 21 -43 96 -74 175 -5 11 -20 45 -34 75 -93 201 -126 270 -188
394 -37 77 -66 142 -64 145 3 2 13 -3 22 -11 38 -34 343 -168 380 -168 11 0
23 -4 29 -9 26 -24 235 -55 416 -60 l186 -6 34 -50 c126 -189 400 -157 477 55
27 72 26 115 0 186 -71 189 -327 238 -459 88 -34 -39 -70 -114 -70 -147 0 -43
-28 -51 -154 -43 -215 13 -404 53 -571 121 -64 26 -190 89 -193 98 -2 4 -8 7
-14 7 -8 0 -93 55 -108 70 -3 3 -22 16 -43 30 -28 19 -53 53 -98 135 -34 61
-67 117 -75 126 -8 8 -14 19 -14 23 0 4 -8 20 -19 34 -10 15 -22 37 -25 49 -6
19 -2 25 21 33 50 19 204 98 237 123 137 99 187 140 253 205 186 184 335 447
378 667 7 39 17 85 20 102 l7 33 52 -6 c155 -18 290 67 303 191 16 153 -92
233 -299 224 l-79 -4 -62 185 c-34 102 -65 187 -69 190 -3 3 -12 27 -18 53 -7
26 -16 50 -21 53 -5 3 -9 12 -9 20 0 25 48 15 100 -21 27 -19 53 -35 57 -35 3
0 14 -6 22 -13 21 -18 190 -89 261 -110 271 -79 584 -54 850 70 69 32 90 50
90 78 0 28 -10 36 -90 66 -85 31 -180 124 -228 221 -38 78 -81 198 -87 246 -3
17 -9 40 -14 50 -5 9 -19 49 -31 87 -12 39 -30 88 -41 111 -10 22 -19 43 -19
47 0 3 -15 32 -34 64 -63 108 -147 180 -258 224 -62 24 -229 34 -293 18z m214
-90 c60 -19 122 -52 160 -86 20 -18 39 -33 44 -33 4 0 7 -4 7 -9 0 -6 11 -21
23 -35 32 -35 105 -183 112 -228 3 -21 10 -38 14 -38 5 0 12 -17 16 -37 8 -46
43 -162 56 -185 5 -10 9 -22 9 -27 0 -5 5 -22 12 -38 6 -15 11 -31 10 -35 -1
-5 3 -8 8 -8 6 0 10 -9 10 -19 0 -11 6 -26 13 -33 19 -22 59 -99 53 -105 -6
-6 -109 61 -126 82 -7 8 -19 15 -27 15 -7 0 -16 7 -19 15 -4 8 -10 15 -15 15
-4 0 -44 24 -87 53 -102 67 -109 72 -157 96 -119 59 -238 80 -355 62 -69 -11
-74 -10 -87 9 -17 24 -60 49 -123 71 -40 14 -45 20 -53 55 -4 21 -3 64 2 94
10 64 47 164 61 168 6 2 10 8 10 14 0 15 91 108 125 126 84 47 225 66 304 41z
m-1579 -248 c128 -19 221 -42 277 -67 17 -8 37 -14 45 -14 21 0 166 -78 245
-131 99 -67 225 -194 268 -271 6 -9 29 -49 52 -88 63 -106 63 -110 11 -110
-24 1 -63 5 -88 11 -25 5 -81 16 -125 24 -160 29 -232 44 -330 70 -55 15 -120
30 -144 36 -24 5 -49 13 -55 18 -6 5 -30 12 -53 16 -24 4 -43 11 -43 16 0 5
-3 8 -7 7 -8 -1 -13 0 -103 34 -46 17 -232 106 -328 157 -46 25 -185 122 -236
164 -84 72 -84 70 -45 79 19 4 49 13 68 19 61 20 264 47 366 48 55 0 156 -8
225 -18z m-1911 -36 c99 -50 166 -141 176 -238 l6 -52 -53 -24 c-29 -14 -72
-44 -95 -69 -41 -43 -42 -43 -121 -47 -53 -3 -96 -11 -126 -24 -25 -12 -50
-21 -55 -21 -6 0 -11 -5 -11 -10 0 -6 -8 -14 -17 -17 -32 -13 -73 -61 -141
-168 -6 -11 -17 -30 -22 -43 -38 -89 -154 -206 -240 -242 -14 -5 -34 -15 -45
-22 -24 -14 -123 -38 -185 -45 l-45 -5 56 53 c30 30 65 72 76 94 47 88 50 97
104 335 11 47 23 101 27 120 5 19 14 44 20 55 6 11 23 47 38 80 15 33 30 62
33 65 4 3 15 18 25 34 53 84 157 168 246 199 71 25 79 26 190 23 90 -3 112 -8
159 -31z m954 -190 c-15 -25 -34 -58 -42 -73 -8 -15 -19 -32 -25 -38 -6 -6
-18 -22 -26 -34 -48 -71 -136 -176 -210 -251 -109 -111 -340 -294 -340 -270 0
20 74 155 132 241 118 176 298 347 473 451 33 19 61 32 63 27 2 -4 -9 -28 -25
-53z m157 33 c0 -13 52 -131 61 -138 3 -3 12 -18 21 -35 13 -28 12 -33 -15
-84 -15 -29 -35 -60 -43 -68 -8 -8 -14 -18 -14 -22 0 -4 -8 -17 -17 -29 -10
-11 -25 -30 -33 -42 -55 -81 -284 -311 -353 -355 -9 -5 -55 -37 -103 -70 -48
-33 -102 -67 -118 -76 -76 -42 -229 -115 -279 -133 -17 -6 -18 -2 -12 45 4 28
15 74 25 102 17 47 25 56 92 97 151 93 256 177 388 312 108 110 110 112 167
187 24 31 47 61 53 68 5 7 10 16 10 21 0 5 6 15 14 21 8 7 42 59 76 117 53 91
80 119 80 82z m183 -48 c45 -33 91 -67 102 -75 10 -8 25 -15 32 -15 7 0 13 -4
13 -9 0 -5 8 -11 18 -15 9 -3 40 -19 67 -35 50 -30 212 -111 221 -111 3 0 24
-9 47 -19 24 -11 55 -23 70 -26 15 -4 30 -11 33 -16 3 -5 14 -9 26 -9 11 0 34
-6 51 -14 29 -13 111 -37 267 -79 136 -37 364 -81 599 -116 35 -6 64 -11 65
-13 2 -4 17 -45 63 -171 20 -54 33 -100 31 -103 -15 -14 -420 63 -501 95 -16
6 -38 11 -50 11 -12 0 -34 6 -48 14 -14 7 -42 16 -62 20 -20 4 -49 13 -64 21
-15 8 -36 15 -45 15 -10 0 -80 23 -157 50 -77 28 -143 50 -148 50 -4 1 -26 9
-48 20 -22 11 -43 19 -47 20 -7 0 -152 70 -198 96 -108 59 -253 186 -321 279
-30 42 -109 180 -109 192 0 9 19 -2 93 -57z m1762 -113 c129 -84 98 -262 -53
-301 l-51 -14 -22 47 c-30 61 -118 211 -137 234 -17 19 -18 18 23 37 75 34
186 33 240 -3z m-2705 -63 c92 -27 121 -61 81 -95 -10 -9 -36 -43 -57 -75 -21
-33 -41 -61 -44 -64 -6 -5 -65 -116 -85 -157 -27 -59 -152 4 -192 96 -47 110
21 248 145 293 59 22 85 22 152 2z m3070 -8 c81 -16 194 -68 305 -141 17 -11
32 -22 35 -25 3 -3 12 -9 21 -15 23 -14 107 -72 122 -85 24 -20 88 -60 97 -60
4 0 10 -3 12 -7 2 -5 29 -21 61 -38 81 -42 84 -39 -68 -76 -128 -30 -361 -30
-490 0 -122 29 -285 98 -364 153 -25 17 -25 18 -5 38 10 11 26 28 35 38 29 31
51 107 48 161 l-4 51 35 6 c19 3 40 7 45 9 19 7 41 5 115 -9z m-2065 -141 c48
-47 94 -85 101 -85 8 0 14 -4 14 -9 0 -6 11 -16 24 -23 14 -7 56 -32 95 -55
38 -23 80 -44 93 -48 13 -4 30 -13 38 -20 8 -7 28 -16 45 -19 16 -4 32 -11 35
-15 3 -4 59 -27 125 -50 66 -24 134 -49 152 -57 17 -8 36 -14 43 -14 7 0 26
-6 43 -14 18 -8 66 -24 107 -36 41 -12 102 -30 135 -39 33 -10 105 -28 160
-40 55 -12 116 -26 135 -31 31 -9 98 -18 245 -36 70 -8 97 -12 99 -16 1 -2 12
-46 25 -98 50 -204 34 -506 -35 -657 -8 -17 -14 -35 -14 -40 -1 -36 -180 -333
-201 -333 -5 0 -9 -4 -9 -10 0 -21 -225 -229 -262 -243 -10 -3 -18 -11 -18
-17 0 -5 -6 -10 -13 -10 -8 0 -24 -8 -35 -18 -38 -33 -308 -162 -339 -162 -8
0 -29 -6 -46 -14 -18 -8 -59 -19 -92 -25 -33 -6 -85 -16 -115 -22 -66 -13
-451 -6 -495 9 -16 6 -52 15 -80 20 -73 14 -200 55 -270 86 -141 63 -220 107
-320 178 -89 63 -245 210 -300 283 -65 86 -133 199 -152 250 -7 17 -21 55 -33
85 -45 114 -61 201 -67 357 -6 156 -1 203 20 203 6 1 30 9 52 20 22 11 44 19
48 20 12 0 246 116 279 138 14 9 48 30 75 46 95 57 230 171 351 294 67 69 122
132 122 138 0 7 6 17 13 21 6 4 26 28 42 53 17 25 35 50 40 56 6 6 19 27 30
47 11 20 20 37 21 37 1 0 41 -38 89 -85z m-1411 -30 c-8 -45 13 -143 40 -185
30 -45 86 -100 103 -100 22 0 15 -14 -29 -56 -151 -145 -341 -266 -503 -323
-167 -58 -404 -61 -530 -6 -16 7 -45 18 -62 25 -18 7 -33 16 -33 21 0 5 -5 9
-11 9 -6 0 -22 9 -36 20 l-26 20 29 0 c108 2 339 34 359 49 5 5 24 12 40 15
44 10 157 76 201 117 53 48 79 86 126 183 78 156 151 225 261 245 65 11 79 5
71 -34z m3456 -771 c41 -28 50 -45 50 -99 0 -59 -18 -82 -84 -109 -40 -17
-132 -21 -153 -8 -8 5 -15 42 -19 93 -3 46 -7 90 -10 98 -10 31 17 41 105 41
64 0 93 -4 111 -16z m-3308 -321 c10 -75 15 -140 12 -145 -3 -4 -26 -8 -51 -8
-58 0 -107 30 -133 81 -34 65 -22 126 32 175 29 27 44 32 88 33 l36 1 16 -137z
m2143 -1258 c15 -27 35 -63 45 -80 31 -49 50 -96 50 -124 0 -18 14 -39 45 -68
25 -23 45 -47 45 -53 0 -6 16 -38 35 -71 19 -33 38 -71 41 -84 3 -13 12 -29
20 -36 8 -6 14 -15 14 -19 0 -5 41 -93 90 -197 50 -103 95 -197 100 -208 4
-11 18 -41 29 -67 12 -27 30 -69 42 -95 11 -27 29 -66 40 -89 10 -23 19 -48
19 -57 0 -9 5 -19 10 -22 6 -3 15 -26 21 -51 6 -24 15 -44 20 -44 5 0 9 -6 9
-14 0 -8 14 -50 31 -93 18 -43 45 -116 61 -163 16 -47 33 -94 37 -105 13 -28
40 -113 52 -158 5 -21 13 -45 18 -55 5 -9 21 -57 36 -107 15 -49 30 -99 35
-110 5 -11 17 -49 26 -85 9 -36 32 -123 51 -195 20 -71 40 -155 47 -185 6 -30
14 -59 17 -65 4 -5 9 -28 13 -50 4 -22 13 -67 21 -100 20 -84 55 -243 55 -248
0 -7 -66 -15 -255 -32 -93 -8 -181 -17 -195 -20 -24 -4 -58 -7 -245 -21 -49
-3 -99 -8 -110 -11 -11 -2 -72 -8 -135 -14 -63 -5 -173 -16 -245 -24 -265 -29
-839 -86 -1193 -119 -84 -8 -165 -17 -180 -20 -15 -3 -81 -11 -147 -16 -66 -6
-135 -13 -154 -17 l-34 -6 7 52 c4 29 11 60 16 69 8 16 17 49 55 207 8 33 24
92 35 130 11 39 25 97 32 130 6 33 14 62 18 65 4 3 14 37 23 75 8 39 22 97 31
130 8 33 22 89 31 125 8 36 19 72 24 80 5 9 12 36 15 60 4 25 11 54 15 65 5
11 21 72 36 135 27 116 44 182 71 275 18 63 32 120 51 210 8 39 18 79 23 90 4
11 27 101 50 200 23 99 49 197 56 218 8 20 14 47 14 58 0 12 8 51 19 87 22 80
52 199 85 342 7 30 15 62 18 70 9 22 78 316 89 380 5 30 14 63 20 73 6 10 13
41 16 69 l6 50 36 -5 c192 -27 301 -31 442 -13 79 9 173 26 209 36 121 35 123
35 175 -65z m1702 -407 c34 -14 92 -75 99 -103 14 -60 8 -127 -16 -156 -69
-85 -136 -108 -215 -75 -66 28 -125 105 -125 164 0 122 144 218 257 170z
m-4071 -569 c40 -15 76 -69 88 -131 4 -20 13 -39 21 -42 24 -9 17 -36 -22 -84
-43 -53 -85 -72 -150 -71 -61 1 -83 8 -121 37 -33 26 -72 105 -72 146 0 36 36
101 68 122 61 40 124 48 188 23z m1136 -3650 c63 -22 158 -82 198 -124 l22
-24 -71 -70 c-54 -55 -81 -74 -116 -83 -25 -7 -45 -16 -45 -20 0 -4 -34 -8
-76 -8 -79 0 -160 20 -206 52 -14 10 -29 18 -33 18 -11 0 -66 64 -76 88 -12
31 -11 99 1 123 12 21 60 50 100 60 14 4 73 7 132 8 86 1 120 -3 170 -20z
m2109 -45 c33 -15 59 -31 59 -35 0 -5 5 -9 10 -9 29 0 90 -97 90 -142 0 -18
-12 -41 -32 -64 -62 -67 -237 -93 -370 -55 -78 22 -152 61 -197 102 l-32 28
20 40 c24 45 87 103 151 136 38 21 60 24 144 25 86 0 106 -3 157 -26z"/>
<path d="M4171 7512 c-60 -20 -117 -81 -138 -149 -15 -48 -15 -58 -3 -96 11
-29 21 -43 36 -45 35 -5 54 23 54 82 0 47 4 57 34 88 36 37 88 54 122 41 11
-4 35 -22 54 -40 33 -30 35 -36 36 -100 1 -94 1 -93 34 -93 23 0 33 7 45 30
16 31 21 140 6 140 -5 0 -12 13 -16 28 -6 30 -41 72 -79 97 -37 24 -136 33
-185 17z"/>
<path d="M2845 7479 c-69 -8 -100 -23 -144 -67 -64 -65 -119 -204 -104 -263
12 -45 83 -29 83 19 0 16 4 32 8 38 5 5 14 28 21 52 23 82 127 155 195 138 43
-11 94 -64 126 -132 16 -35 30 -71 30 -79 0 -32 52 -40 87 -13 22 17 -48 179
-104 243 -46 52 -115 75 -198 64z"/>
<path d="M4280 6679 c-51 -57 -146 -137 -195 -166 -161 -92 -259 -123 -420
-130 -219 -9 -395 37 -548 144 -86 60 -127 61 -127 3 0 -25 11 -36 84 -84 46
-31 87 -56 92 -56 5 0 23 -7 39 -16 36 -19 165 -60 215 -69 167 -28 224 -29
365 -3 71 13 187 49 230 72 17 9 36 16 43 16 6 0 12 5 12 10 0 6 6 10 13 10
27 0 156 97 235 177 82 84 97 114 70 141 -25 25 -53 12 -108 -49z"/>
<path d="M9005 9054 c-171 -19 -342 -50 -435 -78 -139 -43 -226 -72 -230 -78
-3 -3 -19 -10 -35 -14 -17 -4 -39 -13 -50 -20 -11 -8 -27 -14 -36 -14 -10 0
-19 -3 -21 -8 -1 -4 -46 -29 -98 -56 -52 -26 -102 -54 -111 -62 -8 -8 -21 -14
-27 -14 -7 0 -12 -4 -12 -8 0 -5 -11 -14 -24 -20 -13 -6 -52 -32 -86 -59 -101
-79 -102 -79 -143 -60 -60 29 -182 152 -226 228 -23 39 -44 83 -48 97 -3 14
-12 37 -19 51 -8 14 -14 32 -14 39 0 6 -4 12 -9 12 -5 0 -16 3 -24 6 -30 11
-93 -84 -121 -180 -27 -91 -16 -199 28 -286 12 -24 10 -27 -25 -49 -55 -35
-169 -150 -217 -217 -103 -148 -158 -305 -168 -485 -7 -116 -6 -120 16 -144
36 -39 74 -33 98 15 7 14 20 38 29 54 20 37 179 203 187 195 3 -3 -3 -41 -14
-85 -35 -135 -48 -314 -34 -462 7 -70 18 -140 24 -156 6 -16 9 -30 8 -31 -2
-1 -21 -12 -43 -26 -92 -55 -129 -122 -129 -234 -1 -126 46 -200 157 -251 56
-25 73 -28 182 -28 l120 -1 44 -87 c24 -49 48 -88 52 -88 5 0 9 -6 9 -12 0 -7
11 -26 25 -42 14 -16 25 -33 25 -37 0 -10 204 -213 252 -250 98 -77 268 -176
406 -235 l44 -19 -6 -59 c-3 -32 -6 -80 -6 -106 0 -44 -2 -47 -42 -70 -24 -13
-64 -38 -89 -57 -26 -18 -51 -33 -57 -33 -6 0 -12 -4 -14 -9 -1 -5 -39 -36
-83 -71 -89 -69 -319 -300 -341 -342 -8 -16 -18 -28 -22 -28 -6 0 -54 -65 -87
-119 -5 -9 -16 -20 -22 -24 -7 -4 -13 -13 -13 -18 0 -6 -13 -29 -29 -52 -33
-49 -151 -278 -151 -294 0 -6 -6 -24 -14 -40 -20 -39 -50 -117 -72 -189 l-19
-61 -45 3 c-141 10 -288 -106 -304 -240 -8 -59 5 -130 34 -187 26 -50 96 -116
131 -124 16 -4 31 -11 34 -16 8 -12 152 -12 159 0 3 5 20 12 38 15 43 8 123
77 150 130 18 32 22 59 22 126 1 73 -3 92 -26 136 -14 27 -45 68 -67 90 l-41
39 37 110 c21 61 40 112 44 115 4 3 10 20 14 38 3 17 11 32 16 32 5 0 9 6 9
13 0 17 90 198 107 215 7 7 13 17 13 22 0 18 139 213 193 271 9 10 17 22 17
25 0 7 213 218 256 254 77 64 225 170 238 170 13 0 -77 -604 -134 -890 -6 -30
-15 -77 -20 -105 -5 -27 -26 -120 -46 -205 -20 -85 -42 -182 -49 -215 -23
-102 -54 -227 -76 -300 -35 -120 -40 -148 -34 -177 7 -31 20 -36 100 -40 l50
-3 -3 -385 c-1 -212 -7 -441 -12 -510 -6 -69 -15 -192 -20 -275 -6 -82 -15
-178 -21 -211 -9 -51 -8 -67 5 -91 14 -29 19 -30 119 -42 123 -15 132 -19 122
-57 -10 -41 -6 -406 6 -548 5 -65 8 -121 5 -124 -3 -3 -38 11 -78 30 -151 73
-305 112 -416 106 -83 -5 -107 -15 -164 -67 -29 -27 -40 -47 -49 -90 -35 -171
57 -302 242 -340 42 -9 74 -9 124 -1 116 19 199 62 364 189 l84 65 -7 65 c-19
181 -25 296 -25 509 l-1 232 38 0 c21 0 83 -7 138 -15 132 -20 170 -19 192 3
17 17 19 49 26 408 4 214 9 400 9 414 2 23 6 25 56 28 30 2 145 -4 256 -12
111 -9 211 -16 222 -16 20 0 21 -7 27 -152 3 -84 8 -258 11 -386 4 -128 9
-240 11 -247 9 -23 32 -25 160 -14 69 6 127 9 130 7 25 -26 27 -584 2 -768 -9
-69 -20 -133 -23 -142 -9 -23 42 -72 90 -88 19 -6 35 -15 35 -20 0 -5 15 -12
33 -15 17 -4 37 -11 43 -16 15 -12 146 -53 230 -73 96 -21 172 -20 241 4 68
24 99 51 124 108 49 112 3 252 -106 323 -27 18 -55 34 -62 35 -6 1 -34 7 -63
13 -60 13 -171 -1 -235 -29 -22 -9 -47 -20 -55 -23 -8 -4 -46 -29 -85 -57 -38
-27 -70 -48 -72 -46 -2 1 2 54 7 117 20 218 23 354 11 494 -7 77 -14 150 -17
163 -4 20 -1 22 38 22 24 0 107 -5 186 -12 106 -9 145 -9 154 0 8 8 7 48 -6
159 -24 215 -48 445 -91 888 -7 77 -18 174 -23 215 -6 41 -13 114 -17 163 l-6
87 83 0 c87 0 100 4 111 32 6 16 -6 74 -23 113 -9 22 -60 188 -65 214 -2 9 -4
17 -5 19 -2 1 -3 6 -4 11 0 5 -4 13 -8 17 -5 4 -8 17 -8 28 0 12 -7 34 -15 50
-8 15 -15 33 -15 40 0 13 -75 253 -95 306 -8 19 -17 51 -21 70 -3 19 -10 41
-15 50 -10 18 -77 242 -88 290 -4 19 -13 45 -19 57 -7 12 -12 29 -12 38 0 9
-6 31 -13 48 -8 18 -23 64 -35 102 -57 186 -74 242 -82 260 -5 11 -12 36 -16
55 -3 19 -10 41 -14 50 -14 26 -51 152 -46 157 5 6 103 -44 111 -57 3 -5 13
-10 21 -10 8 0 27 -8 42 -19 15 -10 54 -36 87 -57 234 -149 466 -384 623 -631
29 -45 57 -92 62 -105 6 -13 24 -48 40 -78 30 -57 38 -90 20 -90 -23 0 -99
-84 -120 -132 -32 -74 -30 -172 4 -230 51 -86 111 -130 204 -147 80 -16 178
17 234 76 53 56 78 120 78 197 0 79 -18 126 -74 185 -39 42 -124 81 -175 81
l-39 0 -51 103 c-77 155 -194 331 -296 446 -99 112 -287 291 -304 291 -5 0
-14 7 -21 15 -28 34 -266 180 -367 226 -29 13 -53 27 -53 31 0 3 -14 9 -31 13
-20 5 -34 16 -41 33 -5 15 -14 35 -19 44 -20 39 -11 55 38 67 25 7 55 19 67
27 11 7 27 14 36 14 18 0 164 71 168 82 2 4 10 8 17 8 20 0 166 108 235 174
67 64 170 189 170 205 0 6 3 11 8 11 14 0 132 244 132 274 0 8 5 26 11 39 10
21 15 23 70 19 125 -9 240 65 285 185 20 52 15 161 -10 210 -22 43 -89 108
-127 123 l-31 13 7 61 c4 34 12 72 18 86 15 37 21 294 9 375 -23 152 -33 201
-47 232 -8 17 -15 40 -15 51 0 18 -29 96 -51 135 -6 11 -8 21 -6 24 6 5 43
-15 72 -39 11 -9 36 -20 55 -26 31 -8 37 -6 53 15 18 23 18 25 -13 88 -68 139
-165 263 -279 355 -49 40 -237 150 -255 150 -6 0 -20 6 -31 14 -11 7 -63 28
-115 45 -154 52 -304 85 -515 113 l-90 12 40 12 c22 7 69 13 105 13 74 1 110
19 110 55 0 35 -20 46 -106 57 -192 26 -382 35 -489 23z m150 -114 c-22 -11
-45 -19 -51 -20 -17 0 -54 -36 -54 -52 0 -32 33 -43 164 -54 153 -13 385 -42
397 -50 5 -3 41 -11 81 -19 89 -16 187 -42 209 -54 9 -6 33 -13 53 -16 20 -4
36 -11 36 -15 0 -4 18 -12 40 -19 23 -7 63 -25 91 -42 27 -16 52 -29 54 -29
12 0 129 -87 172 -128 53 -51 143 -155 143 -166 0 -9 -32 8 -98 52 -45 29 -57
33 -77 24 -38 -17 -39 -45 -5 -95 17 -25 42 -72 56 -104 14 -32 30 -67 35 -78
26 -59 58 -177 80 -295 14 -72 7 -453 -8 -472 -6 -7 -13 -29 -15 -48 -3 -31
-7 -35 -33 -38 -16 -2 -34 -8 -39 -13 -9 -8 -76 56 -76 74 0 15 -117 175 -164
224 -92 96 -112 113 -133 113 -38 0 -54 -37 -44 -101 28 -166 23 -175 -44 -83
-22 30 -49 65 -60 78 -11 13 -54 64 -95 115 -88 107 -111 118 -151 73 -15 -17
-33 -48 -39 -69 -16 -57 -23 -212 -12 -262 l10 -44 -45 44 c-25 24 -54 51 -63
59 -9 8 -55 49 -101 91 -46 42 -120 107 -164 145 -44 38 -88 79 -98 91 -9 12
-27 25 -38 28 -26 9 -59 -20 -59 -50 0 -13 29 -83 64 -157 35 -73 71 -151 80
-171 15 -38 15 -38 -7 -31 -12 3 -26 10 -31 15 -6 5 -16 9 -24 9 -8 0 -33 8
-56 19 -23 10 -66 29 -96 42 -96 41 -292 159 -382 230 -91 71 -129 85 -146 52
-11 -22 3 -209 16 -226 5 -7 13 -28 17 -47 4 -19 13 -44 20 -55 7 -11 16 -30
20 -43 6 -21 5 -22 -22 -11 -98 41 -256 125 -261 140 -2 5 -8 9 -14 9 -14 0
-113 78 -182 144 -65 62 -88 68 -112 31 -14 -21 -14 -33 -5 -82 32 -162 39
-198 35 -202 -6 -6 -144 90 -144 100 0 5 -5 9 -11 9 -5 0 -48 38 -95 85 -94
94 -117 103 -151 57 -20 -27 -21 -35 -12 -148 5 -65 11 -140 13 -166 5 -56 -3
-59 -56 -23 -72 49 -108 25 -108 -71 0 -35 -3 -65 -7 -67 -5 -3 -28 -2 -53 2
l-45 6 -17 80 c-41 193 -9 511 69 675 40 86 -2 138 -77 95 -14 -8 -34 -18 -45
-23 -49 -23 -155 -115 -207 -179 -14 -19 -29 -30 -32 -24 -7 11 19 127 47 206
54 155 176 308 319 402 38 24 71 50 74 57 3 7 -11 43 -31 81 -32 62 -35 75
-35 149 0 81 7 126 19 126 3 0 20 -26 36 -57 37 -71 54 -92 136 -173 84 -83
85 -84 177 -131 l77 -39 30 33 c17 18 57 53 90 78 33 24 62 47 65 50 3 4 31
22 63 40 32 19 71 42 85 51 49 32 231 118 302 143 265 94 452 131 680 133
l115 1 -40 -19z m-469 -1448 c28 -20 58 -36 171 -92 67 -33 126 -60 130 -60 4
0 21 -7 37 -15 16 -9 46 -20 65 -25 54 -13 123 -38 155 -57 29 -16 30 -15 53
11 21 24 22 30 10 54 -8 15 -31 63 -52 107 -21 44 -42 88 -47 98 -16 32 -1 30
35 -5 19 -18 59 -54 89 -80 74 -65 113 -99 188 -168 145 -134 163 -144 206
-115 32 20 30 35 -9 97 -19 29 -41 80 -50 114 -19 67 -22 179 -7 219 9 24 10
25 27 8 10 -10 47 -54 82 -98 35 -44 68 -81 72 -83 5 -2 9 -9 9 -15 0 -7 16
-28 35 -47 19 -19 35 -37 35 -40 0 -4 16 -24 34 -45 19 -21 43 -54 53 -72 20
-38 44 -49 73 -33 25 13 26 43 5 182 -9 55 -13 103 -10 106 4 5 24 -15 73 -74
5 -5 15 -21 22 -35 7 -13 16 -26 19 -29 13 -10 47 -68 83 -140 l38 -75 0 -132
c0 -84 -6 -157 -16 -200 -19 -87 -59 -204 -84 -249 -11 -18 -29 -51 -41 -71
-68 -121 -220 -282 -341 -362 -35 -23 -101 -60 -148 -83 -47 -22 -97 -47 -112
-54 -14 -8 -35 -14 -45 -14 -10 0 -23 -4 -28 -9 -15 -14 -160 -48 -280 -66
-245 -37 -571 -9 -785 66 -124 44 -244 96 -326 142 -52 30 -154 102 -154 109
0 4 -6 8 -13 8 -16 0 -201 178 -238 228 -13 19 -29 39 -34 45 -10 11 -37 53
-72 112 -38 63 -86 179 -113 270 -23 81 -38 256 -29 342 3 32 7 52 8 46 0 -7
6 -13 12 -13 6 0 25 -11 42 -24 46 -34 72 -40 92 -20 17 18 17 37 -1 287 -3
42 -2 77 2 77 5 0 34 -23 64 -51 30 -27 67 -57 83 -65 15 -8 27 -19 27 -24 0
-6 4 -10 9 -10 5 0 32 -15 60 -32 146 -93 141 -91 167 -79 23 10 29 22 24 46
-6 31 -32 172 -34 185 -1 9 -6 21 -10 29 -12 18 42 -10 74 -40 33 -31 107 -79
120 -79 5 0 10 -4 10 -9 0 -5 8 -11 18 -15 9 -3 40 -18 67 -33 93 -52 324
-134 355 -126 25 7 34 36 20 64 -7 12 -32 48 -57 80 -24 32 -48 71 -53 86 -5
16 -16 46 -24 68 -8 22 -15 52 -16 67 l0 27 83 -55 c45 -30 87 -57 93 -62z
m1864 -391 c59 -35 85 -84 84 -157 0 -66 -13 -93 -61 -138 -31 -29 -108 -49
-154 -39 -27 5 -30 9 -25 32 14 62 18 211 7 256 -16 65 -4 79 64 72 28 -3 66
-14 85 -26z m-3214 -19 c7 -4 15 -36 18 -72 8 -79 34 -202 52 -251 7 -20 10
-39 7 -43 -11 -11 -144 -6 -187 6 -170 49 -196 263 -42 345 41 22 129 31 152
15z m1152 -1281 c117 -33 162 -41 271 -53 135 -13 454 -4 536 16 82 21 80 21
94 -26 7 -24 16 -52 21 -63 15 -36 60 -190 60 -207 0 -9 4 -19 9 -22 5 -3 15
-30 21 -58 7 -29 16 -57 20 -63 4 -5 10 -27 14 -47 4 -20 13 -50 21 -65 8 -15
15 -34 15 -42 0 -18 51 -183 60 -196 4 -5 11 -29 15 -53 4 -24 13 -56 21 -70
8 -15 14 -35 14 -44 0 -10 6 -32 14 -50 22 -53 56 -162 56 -178 0 -8 6 -27 14
-41 7 -14 16 -42 20 -62 4 -20 13 -49 21 -64 8 -15 15 -38 15 -50 0 -12 6 -37
14 -55 7 -18 24 -67 36 -108 12 -41 29 -93 36 -115 8 -23 14 -46 14 -52 0 -7
5 -24 12 -40 11 -28 19 -50 56 -173 11 -36 27 -87 36 -114 l15 -49 -752 7
c-770 6 -1257 15 -1269 22 -3 2 9 61 28 132 19 70 40 152 46 182 6 30 15 59
19 64 5 6 9 19 9 29 0 11 11 67 25 126 14 58 32 140 41 181 9 41 22 102 30
135 8 33 18 87 24 120 5 33 14 87 20 120 61 341 106 659 137 983 3 34 10 62
15 62 6 0 40 -8 76 -19z m2266 -1356 c47 -20 82 -64 100 -123 15 -52 15 -55
-9 -105 -30 -65 -40 -77 -89 -102 -101 -51 -214 4 -246 120 -24 87 14 169 100
216 38 20 86 18 144 -6z m-3477 -271 c88 -55 127 -177 85 -264 -25 -50 -91
-97 -150 -105 -104 -14 -188 40 -217 142 -27 92 6 170 96 225 45 28 142 29
186 2z m1828 -599 c275 -3 555 -8 623 -11 115 -6 122 -7 127 -28 5 -25 19
-157 41 -381 9 -88 22 -216 29 -285 7 -69 20 -196 29 -283 8 -86 20 -194 25
-240 5 -45 12 -109 15 -142 l5 -60 -297 2 -297 2 -2 333 c-3 399 -6 436 -36
443 -130 30 -675 58 -701 36 -11 -10 -15 -44 -15 -164 -1 -213 -13 -681 -17
-686 -5 -5 -270 21 -474 47 l-55 7 1 45 c1 25 6 106 12 180 27 318 42 645 42
915 l0 288 223 -6 c122 -4 447 -9 722 -12z m-1068 -2224 c81 -27 187 -85 190
-102 3 -15 -84 -82 -162 -124 -201 -109 -425 -45 -425 122 0 54 39 105 95 125
43 15 238 2 302 -21z m2152 -36 c126 -44 161 -186 67 -274 -44 -41 -199 -39
-326 6 -68 24 -199 87 -200 96 0 15 122 110 181 140 90 46 201 59 278 32z"/>
<path d="M9248 7081 c-69 -22 -158 -105 -158 -146 0 -19 27 -44 48 -45 7 0 31
20 53 44 50 54 108 73 170 54 46 -13 95 -66 105 -112 7 -35 19 -46 51 -46 37
0 47 33 27 92 -20 61 -61 109 -118 138 -46 24 -137 34 -178 21z"/>
<path d="M8350 7060 c-60 -23 -122 -100 -118 -144 3 -27 7 -31 36 -34 26 -3
34 1 41 20 11 29 59 74 88 82 61 19 144 -31 156 -94 9 -40 41 -56 73 -35 28
18 29 30 8 81 -27 66 -55 96 -111 120 -62 28 -110 29 -173 4z"/>
<path d="M8028 6499 c-10 -5 -18 -19 -18 -30 0 -20 50 -79 66 -79 5 0 32 -15
60 -33 70 -46 220 -117 248 -117 9 0 16 -4 16 -8 0 -5 6 -9 13 -9 6 -1 39 -9
72 -18 83 -24 277 -54 355 -54 78 -1 293 24 335 38 17 6 71 23 120 38 50 15
137 51 194 80 153 77 178 105 126 139 -24 15 -27 15 -77 -12 -133 -70 -184
-94 -200 -94 -10 0 -18 -4 -18 -9 0 -9 -77 -31 -220 -62 -177 -38 -479 -25
-598 27 -18 8 -40 14 -48 14 -9 0 -30 6 -47 14 -18 8 -61 27 -97 42 -36 16
-67 31 -70 34 -3 4 -25 17 -50 31 -25 13 -61 36 -81 51 -40 30 -54 33 -81 17z"/>
</g>
</svg>
