<?xml version="1.0" standalone="no"?>
<!DOCTYPE svg PUBLIC "-//W3C//DTD SVG 20010904//EN"
 "http://www.w3.org/TR/2001/REC-SVG-20010904/DTD/svg10.dtd">
<svg version="1.0" xmlns="http://www.w3.org/2000/svg"
 width="1276.000000pt" height="1733.000000pt" viewBox="0 0 1276.000000 1733.000000"
 preserveAspectRatio="xMidYMid meet">

<g transform="translate(0.000000,1733.000000) scale(0.100000,-0.100000)"
fill="#000000" stroke="none">
<path d="M4093 15779 c-29 -76 25 -217 115 -301 208 -193 226 -222 227 -363 0
-115 -8 -164 -33 -191 -9 -10 -58 -64 -108 -119 -227 -249 -425 -572 -476
-778 -23 -92 -20 -118 16 -125 38 -8 148 110 252 270 120 187 288 510 344 666
39 107 56 131 134 187 117 83 234 121 298 96 39 -15 59 -67 47 -123 -25 -115
-76 -217 -457 -913 -96 -176 -102 -188 -97 -193 13 -13 69 31 149 117 50 53
129 137 176 186 75 79 262 278 454 485 34 36 74 81 89 99 15 18 30 32 32 29 3
-2 -11 -33 -29 -69 -97 -183 -162 -403 -181 -614 -14 -149 40 -373 120 -505
55 -91 179 -200 296 -260 144 -74 222 -92 399 -93 237 -1 341 39 423 163 48
71 -2 162 -123 222 -121 61 -241 83 -443 81 -147 -1 -183 -5 -278 -29 -74 -18
-107 -30 -100 -37 7 -7 36 -5 88 7 250 53 523 32 689 -52 101 -51 141 -117
114 -187 -31 -81 -110 -123 -258 -136 -156 -14 -317 2 -416 41 -287 112 -467
404 -453 730 12 272 82 497 244 782 21 37 35 70 31 74 -21 20 -61 5 -96 -37
-20 -24 -104 -115 -187 -203 -305 -322 -399 -424 -507 -549 -166 -191 -173
-209 120 313 228 407 294 581 251 663 -16 30 -26 35 -85 43 -95 11 -245 -46
-353 -134 -33 -27 -43 -31 -37 -17 32 83 7 227 -54 303 -20 26 -88 92 -150
146 -128 112 -154 154 -153 246 0 30 3 67 8 83 11 41 -27 38 -42 -4z m279
-976 c-11 -21 -36 -78 -57 -128 -93 -228 -249 -501 -377 -662 -36 -46 -56 -63
-74 -63 -20 0 -24 5 -24 28 0 89 97 278 283 557 74 111 120 170 200 258 65 71
81 75 49 10z"/>
<path d="M6183 14462 c-32 -38 -70 -77 -85 -88 -34 -23 -36 -34 -5 -27 32 9
206 122 217 143 12 23 -6 40 -42 40 -21 0 -39 -14 -85 -68z"/>
<path d="M8643 14253 c-13 -2 -23 -8 -23 -13 0 -4 -21 -22 -47 -38 -27 -16
-57 -38 -68 -49 -11 -10 -38 -32 -60 -48 -22 -17 -68 -53 -102 -82 -64 -54
-131 -93 -157 -93 -9 0 -23 11 -32 25 -22 33 -13 67 47 173 27 48 49 93 49
100 0 32 -39 1 -90 -71 l-55 -77 -67 0 c-38 0 -68 3 -68 8 0 4 11 24 25 44 28
41 34 105 11 114 -22 8 -62 -17 -209 -130 -169 -129 -212 -159 -262 -180 -43
-18 -90 -13 -99 10 -7 17 37 117 82 188 18 28 32 56 32 63 0 34 -46 5 -141
-90 -106 -105 -185 -167 -213 -167 -24 0 -20 13 34 119 29 56 50 111 50 129 0
31 -1 32 -46 32 -27 0 -43 -4 -39 -10 3 -5 13 -10 21 -10 8 0 14 -7 14 -15 0
-35 -65 -135 -87 -135 -6 0 -28 -13 -50 -29 -92 -67 -159 -86 -197 -58 -18 13
-18 16 2 74 12 34 35 84 52 112 40 69 40 100 0 68 -8 -7 -38 -41 -67 -77 -53
-68 -183 -190 -202 -190 -6 0 -11 6 -11 13 0 15 64 126 108 186 32 43 43 101
21 101 -7 0 -26 -17 -43 -37 -108 -127 -207 -209 -302 -249 -61 -26 -118 23
-78 67 13 15 14 19 3 19 -8 0 -19 -8 -25 -18 -18 -29 -202 -115 -230 -108 -45
12 -25 91 50 205 27 42 33 58 25 72 -5 11 -12 19 -15 19 -3 0 -42 -37 -87 -83
-97 -98 -218 -197 -241 -197 -26 0 -19 23 35 126 61 117 62 147 7 152 -41 3
-44 1 -27 -27 48 -76 -145 -241 -281 -241 -33 0 -70 19 -70 36 0 13 41 83 69
118 32 40 36 53 23 73 -5 9 -36 -15 -97 -75 -88 -85 -195 -156 -212 -139 -24
25 129 178 229 228 32 16 56 34 53 39 -10 17 -33 11 -103 -24 -131 -67 -240
-178 -245 -252 -2 -26 1 -29 30 -32 37 -4 77 15 149 70 28 21 54 38 57 38 3 0
7 -21 9 -46 6 -95 79 -102 231 -24 43 22 80 40 82 40 2 0 -3 -16 -11 -35 -16
-39 -18 -71 -5 -80 33 -20 164 54 260 145 l23 23 -8 -34 c-5 -19 -9 -56 -9
-84 l0 -50 40 -3 c33 -2 58 6 127 43 77 41 88 44 101 30 8 -8 17 -20 19 -27 7
-20 87 -14 141 10 59 26 166 103 167 119 0 12 50 56 57 50 2 -2 -15 -38 -37
-79 -45 -85 -49 -104 -20 -113 27 -9 67 15 130 79 30 31 58 56 62 56 4 0 4
-31 1 -69 -5 -61 -4 -70 13 -79 35 -19 166 37 272 116 38 29 40 19 10 -50 -16
-38 -19 -54 -11 -67 25 -38 126 6 228 100 46 42 59 42 44 -1 -6 -15 -9 -48 -7
-71 l3 -44 45 1 c82 1 161 46 401 227 56 42 109 77 117 77 25 0 4 -50 -64
-153 -74 -109 -82 -128 -61 -146 13 -10 23 2 67 73 28 46 57 86 63 88 7 2 40
2 74 0 l63 -4 -7 -58 c-6 -57 -5 -58 25 -74 24 -12 41 -14 71 -7 46 10 117 49
164 90 42 37 244 189 268 202 31 16 36 -17 7 -49 -13 -15 -50 -56 -82 -91 -32
-35 -65 -79 -74 -97 -14 -31 -14 -35 3 -54 22 -24 51 -25 130 -5 98 25 280
123 262 141 -3 3 -43 -17 -89 -45 -47 -28 -110 -57 -146 -66 -136 -34 -135 13
4 157 84 87 95 109 74 149 -11 19 -15 20 -57 12z"/>
<path d="M6067 12305 c-86 -22 -214 -89 -279 -146 -160 -140 -247 -374 -217
-585 14 -99 31 -150 81 -244 74 -136 520 -875 542 -898 l22 -23 20 23 c12 13
99 149 194 303 95 154 207 334 248 400 114 181 172 284 172 306 0 11 7 34 16
50 25 49 22 265 -4 351 -69 221 -220 374 -447 453 -69 24 -269 30 -348 10z
m318 -70 c79 -20 191 -89 260 -159 120 -122 169 -242 170 -416 0 -173 -18
-214 -279 -630 -88 -140 -189 -303 -225 -361 -36 -59 -73 -117 -82 -129 l-15
-23 -28 44 c-99 157 -474 795 -498 845 -127 271 -39 585 211 751 132 88 324
118 486 78z"/>
<path d="M5955 11893 c-48 -25 -66 -45 -91 -98 -41 -86 -28 -160 41 -247 24
-29 100 -125 170 -213 91 -114 134 -160 148 -160 23 0 38 17 243 278 69 86
129 168 133 180 38 99 -26 235 -126 268 -60 19 -145 8 -188 -27 -65 -51 -62
-51 -92 -22 -58 56 -173 76 -238 41z m173 -70 c31 -19 62 -72 62 -104 0 -15 6
-32 14 -38 23 -19 56 3 56 37 0 58 78 132 140 132 40 0 89 -29 119 -71 35 -47
38 -79 13 -126 -32 -59 -303 -392 -315 -387 -7 3 -31 31 -54 62 -22 31 -84
110 -136 174 -116 141 -117 144 -117 207 0 56 32 104 84 126 34 15 101 9 134
-12z"/>
<path d="M8611 11961 c-123 -68 -161 -132 -161 -270 0 -83 20 -141 60 -176 32
-29 115 -27 158 4 35 24 72 87 72 120 0 42 -32 101 -67 122 -49 30 -132 23
-171 -14 -16 -15 -31 -27 -34 -27 -11 0 2 50 22 90 22 43 48 64 138 109 42 21
66 40 72 57 17 45 18 45 -89 -15z m35 -225 c31 -31 34 -39 34 -95 0 -74 -20
-118 -57 -127 -42 -11 -74 7 -100 55 -37 71 -29 143 21 183 32 27 64 22 102
-16z"/>
<path d="M8165 11956 c-122 -38 -185 -115 -185 -223 0 -69 15 -114 54 -160 51
-58 107 -77 215 -71 109 7 131 17 131 63 0 38 -15 47 -25 15 -3 -10 -20 -31
-36 -45 -59 -49 -171 -28 -224 41 -79 104 -86 220 -19 311 62 83 225 78 269
-7 18 -35 35 -31 35 8 0 42 -13 53 -76 68 -71 16 -87 16 -139 0z"/>
<path d="M8899 11786 c-117 -34 -144 -173 -53 -264 33 -33 37 -34 89 -29 94
10 145 63 145 152 0 106 -81 169 -181 141z m75 -27 c40 -31 56 -71 56 -139 0
-51 -4 -65 -25 -85 -47 -48 -112 -25 -146 49 -25 55 -24 111 2 147 11 16 17
29 12 30 -11 1 38 17 58 18 9 1 28 -8 43 -20z"/>
<path d="M9295 11783 c-11 -3 -29 -12 -40 -20 -18 -13 -15 -13 31 -7 44 5 55
3 72 -14 45 -45 50 -137 11 -201 -23 -37 -66 -42 -116 -12 -29 18 -31 24 -35
85 -1 36 0 80 3 99 7 45 -10 67 -51 67 l-33 0 22 -24 c21 -22 22 -31 21 -192
-1 -218 -5 -240 -39 -253 -20 -7 -5 -9 64 -9 56 0 77 3 55 7 l-35 6 -3 98 -3
99 23 -9 c37 -13 102 -7 131 12 45 29 67 76 67 139 0 110 -49 153 -145 129z"/>
<path d="M2624 11640 c-11 -10 -38 -22 -62 -27 -56 -11 -58 -27 -4 -31 l42 -3
0 -77 c0 -42 -3 -107 -7 -144 l-6 -68 -33 0 c-36 0 -53 -14 -28 -24 9 -3 63
-6 121 -6 79 0 104 3 101 13 -3 6 -18 13 -35 15 -41 4 -43 14 -43 203 0 167
-6 188 -46 149z"/>
<path d="M3493 11630 c-65 -39 -82 -103 -33 -127 30 -15 40 -4 40 49 0 46 21
68 66 68 55 0 77 -30 72 -96 -5 -63 -25 -89 -74 -98 -53 -10 -44 -34 16 -42
40 -5 55 -13 71 -36 47 -66 -1 -171 -84 -185 -54 -8 -87 16 -87 66 0 38 -11
51 -45 51 -18 0 -28 -34 -20 -68 11 -54 111 -89 199 -70 35 7 58 21 87 50 35
37 39 45 39 93 0 44 -4 57 -27 80 -16 15 -38 31 -50 36 -28 11 -29 26 -3 34
51 16 78 114 44 163 -37 53 -149 70 -211 32z"/>
<path d="M3886 11620 c-49 -44 -69 -92 -69 -171 0 -51 5 -76 24 -109 37 -67
67 -84 147 -84 101 1 148 31 177 113 21 60 18 116 -8 181 -28 71 -79 100 -174
100 -55 0 -66 -4 -97 -30z m172 -22 c31 -34 42 -72 42 -146 -1 -123 -49 -185
-130 -165 -25 6 -41 18 -58 48 -20 36 -23 50 -19 132 3 86 5 95 32 123 37 39
100 42 133 8z"/>
<path d="M2859 11633 c-1 -18 -20 -172 -25 -210 -7 -49 3 -54 43 -23 39 30
107 27 138 -6 87 -94 -10 -276 -121 -225 -19 8 -24 18 -24 50 0 52 -23 72 -52
44 -40 -40 4 -106 83 -126 39 -10 114 7 153 34 48 33 66 68 66 131 0 66 -24
116 -69 142 -30 17 -42 18 -111 10 -68 -8 -77 -7 -70 6 4 8 11 38 15 67 l7 52
106 3 107 3 3 28 3 27 -125 0 c-69 0 -126 -3 -127 -7z"/>
<path d="M3230 11591 c-15 -30 4 -71 33 -71 29 0 47 17 47 45 0 44 -60 63 -80
26z"/>
<path d="M3232 11335 c-14 -17 -7 -58 14 -75 33 -28 72 16 60 66 -5 18 -13 24
-34 24 -15 -1 -33 -7 -40 -15z"/>
<path d="M9693 11180 c-13 -15 -26 -36 -29 -45 -6 -15 -4 -16 17 -5 41 21 57
40 52 61 -7 25 -14 24 -40 -11z"/>
<path d="M9540 11188 c0 -14 50 -68 62 -68 15 0 8 47 -10 63 -22 20 -52 22
-52 5z"/>
<path d="M8346 11063 c-127 -19 -158 -209 -45 -272 47 -27 103 -23 157 10 86
51 79 206 -11 256 -22 12 -47 14 -101 6z m57 -22 c63 -24 91 -159 46 -222 -37
-52 -105 -36 -148 35 -24 38 -29 132 -8 158 28 35 67 45 110 29z"/>
<path d="M8704 11060 c-51 -12 -92 -47 -104 -88 -37 -135 43 -226 169 -192 47
12 55 29 11 22 -91 -13 -144 37 -144 135 0 43 4 58 24 78 39 38 75 42 102 12
31 -33 64 -40 60 -12 -9 49 -45 63 -118 45z"/>
<path d="M8891 11055 c-9 -11 -21 -55 -16 -55 2 0 15 11 29 25 16 16 36 25 56
25 l31 0 -3 -127 c-3 -126 -3 -127 -28 -134 -16 -5 1 -7 44 -7 57 1 66 3 53
13 -25 18 -36 225 -14 244 32 26 64 9 83 -44 6 -17 8 -15 16 14 6 21 6 37 0
43 -14 14 -241 16 -251 3z"/>
<path d="M9293 11059 c-37 -11 -65 -44 -88 -103 -21 -55 -8 -110 35 -151 27
-26 39 -30 85 -30 35 0 60 5 69 15 14 13 10 15 -29 12 -40 -4 -49 0 -80 31
-33 33 -35 39 -35 102 0 36 4 75 10 85 21 40 120 32 120 -10 0 -17 -7 -20 -52
-21 -44 -1 -48 -2 -23 -8 17 -4 44 -6 60 -5 17 1 38 3 48 3 25 1 21 38 -8 66
-26 26 -56 30 -112 14z"/>
<path d="M7988 11043 c21 -14 22 -23 22 -126 0 -93 -3 -112 -17 -123 -16 -12
-12 -13 30 -14 44 0 47 1 37 19 -5 11 -10 70 -10 131 0 123 3 127 64 116 26
-5 36 -13 41 -34 7 -25 8 -25 15 -7 22 53 18 55 -97 54 -101 0 -107 -1 -85
-16z"/>
<path d="M9503 11042 c14 -15 17 -40 17 -125 0 -60 -4 -109 -10 -112 -22 -13
-8 -25 30 -25 39 0 39 1 33 30 -5 28 1 37 61 97 36 36 64 69 61 72 -3 2 -31
-21 -63 -52 -32 -31 -61 -57 -65 -57 -7 0 -2 97 8 163 4 26 3 27 -42 27 -44 0
-45 -1 -30 -18z"/>
<path d="M9698 11048 c6 -8 10 -65 9 -140 l-2 -128 30 0 30 0 -3 110 c-5 124
0 157 26 163 9 3 -9 5 -42 6 -46 1 -56 -2 -48 -11z"/>
<path d="M5914 9068 c-4 -13 -17 -40 -30 -60 -13 -20 -39 -66 -58 -102 l-35
-66 60 -130 c36 -76 58 -137 55 -147 -3 -10 -23 -27 -43 -38 -53 -29 -144
-120 -192 -194 -67 -104 -93 -202 -94 -351 -1 -112 2 -134 26 -207 47 -138
149 -273 264 -349 30 -20 91 -50 136 -66 76 -29 92 -31 212 -31 116 -1 139 2
213 27 206 69 367 237 427 446 28 96 29 271 2 361 -39 130 -152 282 -267 359
-61 41 -61 42 -1 183 61 142 61 131 -4 254 -31 59 -62 114 -67 121 -8 9 -81
12 -304 12 l-293 0 -7 -22z m151 -53 c-1 -23 -28 -121 -38 -132 -6 -8 -34 -13
-73 -13 -77 0 -80 7 -29 91 23 36 44 59 58 62 36 7 82 2 82 -8z m185 5 l68 0
12 -64 c7 -36 9 -69 5 -75 -6 -11 -223 -7 -233 4 -8 8 28 129 41 137 7 4 18 6
25 3 8 -3 44 -5 82 -5z m263 -65 c20 -35 37 -68 37 -74 0 -13 -109 -15 -128
-2 -11 6 -40 102 -42 134 0 4 21 7 48 7 l47 0 38 -65z m-533 -145 l59 0 25
-77 c13 -43 28 -85 31 -94 5 -13 -4 -20 -41 -33 -26 -9 -54 -16 -61 -16 -17 0
-117 205 -108 221 4 5 14 8 22 5 8 -3 41 -6 73 -6z m348 -37 c-6 -21 -13 -42
-17 -48 -3 -5 -10 -28 -16 -50 l-10 -40 -58 0 -58 0 -30 75 c-16 41 -29 81
-29 88 0 9 29 12 114 12 l114 0 -10 -37z m232 33 c0 -6 -82 -211 -86 -215 -9
-9 -124 33 -124 45 0 7 10 39 21 71 12 32 26 68 30 81 8 20 15 22 84 22 41 0
75 -2 75 -4z m-180 -262 c255 -72 433 -306 432 -569 0 -267 -182 -503 -439
-570 -74 -19 -223 -19 -297 0 -166 43 -304 159 -380 317 -24 51 -47 110 -51
131 -10 59 -7 208 5 263 19 83 78 190 144 258 163 169 372 229 586 170z"/>
<path d="M6059 8426 c-122 -43 -226 -144 -278 -271 -36 -87 -41 -228 -12 -322
26 -85 53 -129 119 -197 91 -93 196 -136 332 -136 134 0 236 37 323 118 109
103 160 216 159 357 0 145 -50 255 -159 355 -97 89 -182 120 -328 120 -68 0
-106 -6 -156 -24z m335 -74 c177 -83 274 -272 236 -459 -59 -283 -383 -423
-625 -268 -258 165 -258 535 1 701 77 50 135 64 236 60 71 -3 98 -9 152 -34z"/>
<path d="M8010 8781 l-25 -7 23 -8 c22 -7 22 -9 22 -206 0 -175 -2 -200 -17
-208 -14 -8 -11 -11 14 -16 17 -4 42 -4 56 -1 25 7 25 8 11 30 -11 17 -14 46
-12 111 l3 89 39 3 c79 7 126 -37 126 -115 0 -53 -19 -84 -60 -99 l-35 -12 33
-1 c18 -1 42 3 52 9 23 12 70 92 70 120 0 36 -32 81 -74 102 l-38 19 22 24
c42 44 43 132 3 153 -24 12 -181 22 -213 13z m185 -31 c24 -27 17 -127 -11
-144 -22 -13 -86 -26 -96 -19 -10 5 -11 167 -1 176 15 16 90 7 108 -13z"/>
<path d="M8396 8599 c13 -14 15 -37 12 -126 -2 -59 -8 -116 -12 -125 -7 -15 1
-16 86 -11 79 4 96 8 110 27 25 31 30 63 16 94 -12 25 -18 27 -78 29 -58 1
-60 0 -22 -6 48 -8 62 -22 62 -64 0 -49 -16 -67 -60 -67 -52 0 -58 14 -59 138
0 99 1 102 26 115 23 13 21 14 -36 14 -58 0 -60 -1 -45 -18z"/>
<path d="M8647 8608 c2 -5 11 -8 19 -8 11 0 14 -19 16 -92 2 -120 2 -118 -7
-150 -6 -25 -5 -28 18 -28 46 0 57 9 46 37 -5 13 -9 69 -9 125 0 91 2 100 20
105 39 10 19 18 -44 18 -35 0 -62 -3 -59 -7z"/>
<path d="M8899 8597 c-19 -12 -44 -43 -57 -69 -31 -62 -23 -109 28 -160 31
-32 44 -38 76 -37 57 2 97 12 101 26 4 10 -7 11 -41 7 -34 -5 -52 -2 -71 10
-36 24 -65 75 -65 114 0 40 29 54 110 52 79 -2 80 -2 80 18 0 59 -96 83 -161
39z m105 -16 c16 -17 16 -19 -6 -25 -31 -8 -118 -8 -118 1 0 3 7 15 17 25 22
24 84 24 107 -1z"/>
<path d="M9152 8608 c-7 -7 -12 -21 -12 -32 0 -21 1 -21 18 0 25 32 77 39 102
14 11 -11 20 -28 20 -38 0 -25 -28 -62 -48 -62 -11 -1 -8 -6 11 -16 52 -28 57
-111 6 -125 -20 -6 -18 -7 13 -8 31 -1 39 4 57 33 27 44 27 49 -11 92 l-32 36
22 18 c26 21 29 62 6 84 -19 19 -134 22 -152 4z"/>
<path d="M9460 8615 c0 -4 6 -13 14 -21 28 -27 -17 -201 -59 -228 -28 -19 -40
-49 -27 -72 8 -15 11 -13 24 12 l14 29 109 -1 c98 -1 110 -3 126 -23 23 -28
27 -27 21 7 -3 15 -14 33 -24 40 -17 13 -19 25 -16 120 2 59 6 114 8 122 4 13
-11 15 -92 18 -54 1 -98 0 -98 -3z m131 -130 c-1 -60 -5 -113 -7 -117 -3 -5
-35 -8 -71 -8 -74 0 -71 -8 -34 92 12 32 21 69 21 83 0 48 17 66 58 63 l36 -3
-3 -110z"/>
<path d="M9755 8610 c-3 -6 -1 -10 4 -10 15 0 15 -232 0 -247 -8 -8 -2 -13 21
-18 17 -4 34 -4 37 -1 4 3 5 35 4 71 l-2 66 73 -3 73 -3 0 -50 c-1 -27 -3 -57
-5 -65 -4 -11 4 -15 30 -15 27 0 34 4 30 15 -3 8 -6 65 -8 126 -3 109 -3 112
20 119 21 6 19 8 -17 16 -51 12 -69 6 -55 -20 12 -23 14 -98 2 -104 -4 -3 -37
-3 -75 0 l-67 6 0 48 c0 26 5 51 10 54 6 4 8 10 6 14 -7 11 -74 12 -81 1z"/>
<path d="M10220 8611 c0 -5 9 -12 19 -16 34 -10 55 -107 29 -133 -9 -9 -9 -12
-1 -12 8 0 11 -19 11 -51 -1 -34 3 -54 13 -60 18 -11 40 -11 59 1 13 9 12 12
-4 25 -16 12 -20 32 -25 114 -5 78 -10 103 -25 120 -19 21 -76 30 -76 12z"/>
<path d="M2947 8594 c-97 -25 -170 -101 -202 -208 -52 -176 50 -330 197 -297
52 12 111 71 127 127 15 54 -3 118 -46 160 -31 32 -38 34 -99 34 -36 0 -74 -5
-85 -10 -15 -9 -19 -7 -19 5 0 47 95 148 151 160 16 4 32 11 35 17 12 20 -12
25 -59 12z m-9 -228 c38 -20 56 -59 56 -119 0 -61 -25 -113 -60 -129 -59 -27
-112 34 -120 139 -6 67 9 104 46 114 39 11 49 10 78 -5z"/>
<path d="M10461 8584 c-31 -40 -28 -73 9 -85 17 -6 30 -16 30 -23 0 -6 -20
-34 -45 -63 -25 -28 -45 -58 -45 -67 0 -35 31 -12 89 64 48 64 56 80 41 80
-30 0 -50 28 -50 71 l0 40 43 -3 42 -3 2 -105 c1 -76 -3 -111 -13 -127 -14
-22 -13 -23 23 -23 l38 0 -3 122 c-3 108 -2 123 14 135 15 11 5 13 -68 13 -82
0 -88 -2 -107 -26z"/>
<path d="M10158 8580 c-30 -23 -37 -50 -15 -50 20 0 49 36 45 55 -3 15 -6 14
-30 -5z"/>
<path d="M2541 8470 c-13 -11 -34 -20 -48 -20 -31 0 -65 -18 -58 -31 4 -5 24
-9 46 -9 l40 0 -3 -137 -3 -137 -45 -9 c-41 -9 -43 -10 -21 -19 32 -12 211 -6
211 7 1 6 -14 12 -32 15 l-33 5 -3 178 c-3 189 -5 195 -51 157z"/>
<path d="M3490 8479 c-36 -14 -69 -48 -93 -94 -42 -80 -16 -210 52 -268 28
-23 41 -27 97 -27 36 0 80 6 99 14 98 41 128 226 53 322 -42 53 -143 79 -208
53z m130 -47 c87 -88 45 -322 -58 -322 -59 0 -98 55 -108 153 -15 150 84 250
166 169z"/>
<path d="M3914 8471 c-52 -24 -83 -67 -93 -130 -16 -102 14 -194 75 -232 30
-18 46 -21 110 -17 74 3 77 5 114 44 153 164 -8 425 -206 335z m134 -36 c43
-36 55 -73 51 -163 -3 -68 -8 -84 -32 -115 -49 -64 -106 -59 -155 13 -21 32
-23 44 -20 128 l3 94 37 34 c45 41 76 43 116 9z"/>
<path d="M3184 8425 c-35 -54 27 -103 70 -56 22 25 14 54 -20 69 -33 16 -31
16 -50 -13z"/>
<path d="M10160 8416 c-26 -9 -36 -19 -38 -38 -5 -38 20 -53 70 -42 45 10 67
35 24 27 -31 -6 -43 16 -26 46 6 12 9 21 8 20 -2 0 -19 -6 -38 -13z"/>
<path d="M9131 8390 c-1 -36 10 -47 51 -52 42 -4 42 4 -1 21 -16 7 -33 22 -39
34 -11 22 -11 22 -11 -3z"/>
<path d="M3180 8165 c-17 -20 -5 -62 20 -70 45 -14 79 20 65 65 -8 24 -66 28
-85 5z"/>
<path d="M8435 7900 c-16 -6 -13 -8 19 -11 48 -5 71 -33 43 -53 -16 -13 -16
-14 5 -20 13 -3 33 -6 46 -6 32 0 29 35 -7 71 -30 30 -65 36 -106 19z"/>
<path d="M8636 7899 c29 -15 34 -59 34 -280 0 -113 -4 -179 -10 -179 -15 0
-12 -17 5 -24 38 -14 45 2 45 106 0 100 0 100 23 93 86 -29 189 33 203 123 13
87 -28 154 -102 168 -29 5 -39 1 -71 -26 -20 -18 -33 -31 -28 -29 6 3 21 10
35 17 19 10 33 10 53 3 85 -32 91 -209 8 -240 -55 -20 -60 -20 -90 10 -30 29
-31 30 -32 134 -1 114 -4 122 -60 130 -30 5 -31 4 -13 -6z"/>
<path d="M9095 7891 c-42 -26 -71 -60 -90 -103 -21 -52 -19 -67 14 -120 24
-37 37 -48 65 -54 43 -8 128 7 133 23 3 8 -4 9 -29 2 -47 -15 -100 9 -122 55
-45 96 15 222 90 187 31 -14 29 -45 -4 -49 -41 -6 -22 -18 28 -18 41 0 50 3
50 17 0 31 -12 49 -41 64 -37 20 -58 19 -94 -4z"/>
<path d="M9809 7900 c-73 -22 -109 -71 -109 -147 0 -81 63 -153 135 -153 l30
0 -32 19 c-49 30 -83 97 -83 163 0 50 3 59 31 82 37 31 58 33 93 5 34 -27 52
-63 61 -121 8 -54 -15 -115 -49 -128 -16 -7 -17 -9 -4 -9 22 -1 75 44 93 80
34 64 3 160 -64 197 -41 23 -59 25 -102 12z"/>
<path d="M7991 7887 c13 -10 17 -34 18 -124 1 -69 -2 -114 -8 -118 -24 -14 -8
-25 36 -25 44 0 45 1 30 18 -14 15 -17 40 -17 121 0 56 5 111 10 122 10 18 7
19 -37 19 -40 -1 -45 -3 -32 -13z"/>
<path d="M8200 7776 c0 -72 -4 -127 -10 -131 -19 -11 -10 -25 16 -25 37 0 62
-17 79 -53 l14 -32 -2 34 c-1 22 -12 44 -31 63 l-28 29 3 117 c4 115 4 117
-18 120 -23 3 -23 2 -23 -122z"/>
<path d="M9313 7878 c16 -26 12 -238 -5 -238 -5 0 -6 -4 -3 -10 3 -5 18 -10
32 -10 20 0 24 3 17 18 -11 23 -17 182 -7 182 4 0 28 -39 53 -87 43 -83 70
-113 70 -78 0 9 6 28 14 43 23 47 29 81 6 40 -11 -21 -22 -38 -23 -38 -2 0
-25 42 -51 94 -43 83 -76 125 -76 96 0 -6 -5 -10 -11 -10 -5 0 -7 5 -4 10 3 6
-1 10 -10 10 -13 0 -14 -3 -2 -22z"/>
<path d="M9556 7892 c-2 -4 -14 -32 -25 -62 l-20 -55 24 28 25 28 2 -73 c2
-97 2 -90 -6 -115 -7 -21 -4 -23 28 -23 41 0 40 -16 15 157 -12 84 -8 103 17
103 8 0 13 4 10 8 -6 10 -63 14 -70 4z"/>
<path d="M10060 7890 c0 -5 5 -10 11 -10 8 0 10 -39 7 -136 -5 -133 -4 -135
16 -130 12 3 26 6 32 6 8 0 10 20 6 65 l-5 65 78 0 77 0 -4 -47 c-3 -27 -8
-56 -12 -65 -7 -16 -2 -18 34 -18 36 0 41 2 35 18 -13 28 -17 143 -8 202 l9
55 -41 0 -42 0 14 -34 c8 -18 13 -47 11 -65 l-3 -31 -72 -3 -73 -3 0 51 c0 28
4 59 9 68 8 15 3 17 -35 20 -26 2 -44 -2 -44 -8z"/>
<path d="M10440 7891 c0 -4 5 -12 11 -18 7 -7 10 -52 8 -132 l-4 -121 32 0
c30 0 31 2 26 33 -4 29 0 35 42 67 26 19 56 47 67 63 33 46 41 34 36 -50 -3
-43 -9 -86 -13 -95 -6 -15 -2 -18 26 -18 l34 0 0 139 0 139 -27 0 c-25 -1 -28
-5 -28 -35 0 -29 -10 -43 -62 -93 -34 -33 -66 -60 -71 -60 -5 0 -7 42 -5 94
l3 93 -37 0 c-21 0 -38 -3 -38 -6z"/>
<path d="M10909 7891 c18 -5 37 -15 42 -23 5 -7 7 -66 5 -130 l-3 -118 26 0
26 0 0 135 c0 74 -2 135 -5 135 -3 1 -32 3 -65 5 -47 3 -53 3 -26 -4z"/>
<path d="M8375 7854 c-56 -74 -53 -169 7 -219 29 -24 38 -27 84 -22 52 5 101
24 90 34 -3 3 -18 0 -34 -6 -40 -17 -95 6 -122 51 -24 40 -27 110 -5 128 12
10 13 15 4 20 -8 6 -8 13 0 29 18 32 7 25 -24 -15z"/>
<path d="M10838 7865 c-27 -36 -23 -71 11 -96 l30 -22 -50 -59 c-27 -32 -49
-61 -49 -64 0 -2 13 -4 29 -4 22 0 31 6 41 30 7 17 30 48 51 70 46 47 47 52
15 44 -31 -7 -46 19 -48 81 -1 51 -6 54 -30 20z"/>
<path d="M8428 7823 c6 -2 18 -2 25 0 6 3 1 5 -13 5 -14 0 -19 -2 -12 -5z"/>
<path d="M8138 7623 c6 -2 18 -2 25 0 6 3 1 5 -13 5 -14 0 -19 -2 -12 -5z"/>
<path d="M8730 7430 c0 -5 5 -10 11 -10 5 0 7 5 4 10 -3 6 -8 10 -11 10 -2 0
-4 -4 -4 -10z"/>
<path d="M7068 5488 c-19 -7 -31 -20 -36 -41 -13 -48 -15 -1327 -3 -1360 20
-51 45 -69 85 -62 19 4 41 14 48 23 10 11 14 94 19 326 4 226 10 337 23 406
28 159 31 281 11 438 -15 115 -24 153 -49 204 -33 66 -55 81 -98 66z m50 -82
c47 -95 66 -412 37 -605 -18 -123 -22 -131 -51 -131 l-24 0 0 386 c0 304 3
385 13 382 6 -3 18 -17 25 -32z m6 -817 c8 -41 8 -422 0 -471 -5 -28 -11 -38
-25 -38 -18 0 -19 13 -19 270 0 257 1 270 19 270 13 0 20 -10 25 -31z"/>
<path d="M5257 5454 c-4 -4 -7 -30 -7 -58 -1 -28 -7 -114 -14 -190 -8 -76 -10
-151 -6 -166 14 -47 40 -89 70 -112 l30 -22 0 -420 c0 -232 4 -426 8 -432 10
-15 47 -34 67 -34 9 0 27 11 41 25 l24 24 -6 421 c-5 299 -4 420 4 420 22 0
71 52 83 87 8 26 9 94 4 250 -7 211 -8 214 -29 211 -21 -3 -21 -7 -21 -188 0
-158 -2 -185 -15 -185 -13 0 -16 28 -20 175 -3 96 -9 181 -13 188 -5 6 -15 12
-23 12 -12 0 -14 -31 -14 -191 0 -176 -1 -190 -17 -187 -16 3 -18 20 -18 188
l0 185 -25 0 -25 0 -3 -188 c-2 -172 -4 -188 -20 -185 -15 3 -17 21 -17 188 0
159 -2 185 -15 188 -9 1 -19 0 -23 -4z m239 -448 c-12 -49 -97 -71 -156 -41
-26 13 -50 42 -50 59 0 5 200 14 209 9 2 -1 1 -13 -3 -27z m-84 -368 c5 -550
4 -582 -20 -552 -11 14 -3 804 8 804 6 0 11 -96 12 -252z"/>
<path d="M6083 5431 c-202 -55 -374 -213 -447 -411 -22 -63 -46 -183 -46 -236
0 -81 30 -197 76 -292 62 -128 170 -238 296 -300 193 -96 398 -94 596 3 158
78 282 223 335 390 19 60 22 92 21 215 0 127 -3 152 -24 205 -41 107 -82 168
-169 255 -87 86 -149 124 -266 165 -78 28 -279 31 -372 6z m321 -51 c204 -52
355 -191 434 -398 23 -59 26 -83 27 -192 0 -105 -4 -135 -23 -192 -45 -129
-131 -239 -249 -318 -185 -124 -402 -138 -601 -40 -303 150 -429 514 -282 816
40 83 89 145 162 203 155 126 346 169 532 121z"/>
<path d="M6156 5264 c-87 -19 -148 -50 -213 -108 -170 -153 -216 -384 -117
-586 65 -131 168 -214 313 -251 88 -23 124 -23 214 -4 107 22 171 57 246 132
153 154 188 358 94 553 -66 136 -191 234 -342 266 -81 17 -107 16 -195 -2z
m277 -82 c299 -139 344 -538 84 -737 -89 -68 -128 -80 -257 -80 -108 0 -119 2
-183 32 -176 83 -270 267 -239 470 14 88 43 144 114 219 51 54 148 113 208
125 19 4 73 7 120 5 72 -2 96 -7 153 -34z"/>
<path d="M8003 5339 c-15 -5 -15 -6 0 -12 15 -6 17 -29 17 -212 l0 -205 -32
-1 c-27 -1 -23 -3 19 -12 57 -11 150 0 103 12 l-25 7 0 204 0 205 105 3 c58 2
115 0 128 -3 l22 -5 -2 -202 -3 -202 -25 -6 c-22 -5 -23 -7 -7 -13 24 -9 90
-9 114 0 16 6 16 8 -5 13 -22 5 -22 6 -25 205 l-2 199 25 13 c14 7 21 13 15
14 -37 4 -409 3 -422 -2z"/>
<path d="M11748 5313 c-24 -6 -23 -15 10 -49 l27 -29 3 28 c4 32 -3 58 -15 56
-4 -1 -16 -3 -25 -6z"/>
<path d="M11877 5288 c-12 -28 -12 -34 0 -36 21 -5 44 19 41 41 -5 33 -26 31
-41 -5z"/>
<path d="M11818 5243 c7 -3 16 -2 19 1 4 3 -2 6 -13 5 -11 0 -14 -3 -6 -6z"/>
<path d="M8521 5173 c-23 -5 -23 -5 -3 -19 18 -13 20 -26 21 -218 1 -175 -1
-206 -14 -220 -15 -15 -12 -16 42 -15 56 0 57 1 36 16 -21 14 -23 24 -23 97
l0 81 69 0 c55 0 76 4 98 21 46 34 65 80 61 152 -5 79 -25 103 -97 110 -45 4
-54 1 -88 -27 l-38 -32 -5 28 c-5 28 -17 34 -59 26z m208 -42 c49 -49 51 -152
5 -198 -22 -22 -32 -25 -72 -20 -35 4 -52 12 -69 34 -13 16 -20 35 -17 43 4 8
6 35 5 59 -2 36 3 49 25 72 34 36 93 40 123 10z"/>
<path d="M8980 5173 c-36 -7 -90 -51 -90 -74 0 -38 38 -14 60 39 11 24 51 30
68 10 15 -18 34 -133 31 -187 -3 -68 -1 -71 27 -71 24 0 26 3 19 28 -4 15 -10
74 -13 132 -4 58 -11 111 -15 118 -8 12 -38 14 -87 5z"/>
<path d="M9194 5171 c-2 -2 -4 -15 -4 -28 0 -28 16 -30 25 -2 6 17 14 20 53
17 l47 -3 5 -56 c5 -55 4 -56 -16 -48 -22 8 -34 3 -34 -13 0 -4 11 -8 24 -8
27 0 36 -17 36 -63 0 -51 -12 -61 -66 -54 -33 3 -54 12 -66 27 -25 31 -33 19
-14 -18 15 -30 17 -30 85 -29 65 2 70 4 90 33 26 38 26 54 1 100 -17 33 -18
40 -5 65 11 20 12 34 4 57 -10 29 -10 29 -85 28 -42 0 -77 -3 -80 -5z"/>
<path d="M9504 5168 c-3 -4 2 -8 10 -8 24 0 28 -18 16 -73 -30 -127 -40 -146
-82 -168 -27 -14 -38 -25 -34 -35 3 -9 6 -32 7 -52 l1 -37 12 40 c7 25 21 44
36 52 27 14 117 16 190 5 43 -7 45 -9 57 -52 l12 -45 -2 60 c-2 54 -4 60 -24
63 -22 3 -23 7 -23 117 0 95 3 114 16 119 9 4 14 10 10 14 -10 10 -196 10
-202 0z m131 -128 l0 -115 -65 -6 c-36 -4 -67 -5 -69 -3 -3 3 3 28 12 57 10
29 22 76 27 106 12 68 25 83 64 79 l31 -3 0 -115z"/>
<path d="M9829 5173 c0 -5 0 -63 1 -129 1 -108 -1 -122 -17 -128 -26 -10 3
-26 49 -26 41 0 61 18 29 27 -18 4 -21 13 -21 54 l0 48 43 6 c23 4 58 5 77 3
l35 -3 0 -55 c0 -50 -2 -55 -23 -58 -39 -6 -13 -22 36 -22 55 0 86 14 52 23
-21 6 -22 9 -19 136 l4 131 -37 0 c-38 0 -51 -13 -23 -24 11 -4 15 -20 15 -56
0 -27 -3 -50 -7 -51 -5 0 -41 -2 -80 -5 l-73 -4 0 54 c0 39 4 55 15 60 27 10
15 26 -20 26 -19 0 -35 -3 -36 -7z"/>
<path d="M10190 5160 c11 -20 10 -217 0 -250 -4 -11 4 -16 29 -18 38 -4 65 13
38 24 -9 3 -17 13 -17 21 0 15 128 153 142 153 12 0 10 -168 -2 -175 -20 -12
-10 -25 19 -25 40 0 66 11 51 20 -12 7 -18 198 -9 245 3 16 -2 21 -30 23 -18
2 -38 -1 -44 -7 -8 -8 -6 -11 6 -11 49 0 -1 -74 -112 -165 l-24 -20 7 85 c4
47 9 93 12 103 5 14 -1 17 -36 17 -38 0 -40 -1 -30 -20z"/>
<path d="M10539 5175 c-3 -2 -1 -38 5 -78 8 -66 12 -76 37 -91 34 -20 53 -20
85 0 33 22 46 8 42 -47 -2 -37 -7 -45 -26 -47 -12 -2 -20 -8 -17 -13 8 -12
102 -12 110 1 3 6 -1 10 -9 10 -14 0 -16 18 -16 124 0 90 3 126 13 129 6 2 0
8 -15 12 -43 11 -60 1 -47 -29 7 -15 9 -43 5 -70 -6 -38 -11 -45 -35 -51 -46
-10 -79 9 -87 49 -3 20 -2 49 4 65 6 16 8 32 5 35 -7 7 -48 8 -54 1z"/>
<path d="M10875 5174 c-6 -2 -9 -53 -7 -131 2 -88 0 -128 -8 -133 -7 -4 9 -11
35 -14 52 -8 69 -1 42 18 -12 10 -17 27 -17 65 l0 51 75 0 75 0 0 -60 c0 -47
-3 -60 -15 -60 -8 0 -15 -4 -15 -10 0 -13 97 -13 105 1 4 6 -2 13 -14 16 -20
5 -21 12 -21 118 0 78 4 115 12 117 6 2 8 10 4 16 -9 14 -76 16 -76 2 0 -5 5
-10 10 -10 6 0 10 -27 10 -61 l0 -60 -75 2 -75 3 0 53 c0 38 4 55 15 59 8 4
12 10 9 15 -5 9 -50 11 -69 3z"/>
<path d="M11236 5171 c-3 -5 1 -11 9 -15 12 -4 15 -28 15 -120 0 -106 -2 -115
-20 -121 -48 -15 -13 -24 78 -18 87 5 99 8 120 31 24 27 28 56 13 95 -11 27
-57 45 -74 28 -8 -8 -7 -11 1 -11 14 0 42 -52 42 -79 0 -34 -28 -52 -74 -49
l-41 3 -3 118 c-2 98 0 118 13 123 8 3 15 10 15 15 0 12 -87 12 -94 0z"/>
<path d="M11528 5050 c4 -112 2 -131 -12 -136 -27 -10 -7 -24 34 -24 39 0 60
13 40 25 -6 4 -10 54 -10 120 0 66 4 116 10 120 18 11 0 25 -33 25 l-33 0 4
-130z"/>
<path d="M11696 5171 c-4 -5 -2 -11 4 -13 6 -2 10 -49 11 -118 0 -97 -2 -116
-17 -127 -27 -20 -12 -24 52 -16 44 5 53 8 34 13 -14 3 -26 12 -28 20 -1 8 34
51 78 95 l80 80 0 -94 c0 -84 -2 -93 -20 -98 -35 -9 -22 -19 23 -18 70 3 75 4
55 16 -16 9 -18 26 -18 124 0 109 1 114 23 122 18 6 15 8 -23 13 -58 7 -77 2
-54 -15 9 -6 15 -16 13 -22 -2 -6 -36 -45 -75 -86 l-72 -75 -6 30 c-12 61 -7
148 9 154 8 4 12 10 9 15 -7 12 -71 12 -78 0z"/>
<path d="M2600 5042 c0 -10 -57 -40 -93 -48 -30 -7 -46 -23 -25 -25 7 -1 28 0
46 1 17 1 32 -2 33 -7 5 -57 4 -233 -2 -249 -5 -14 -20 -24 -44 -28 -67 -13
-24 -26 86 -26 105 0 139 10 82 25 -52 13 -53 16 -53 196 0 144 -2 169 -15
169 -8 0 -15 -3 -15 -8z"/>
<path d="M3490 5039 c-82 -33 -131 -146 -109 -250 8 -37 22 -62 53 -94 36 -38
48 -44 100 -50 72 -9 129 14 172 71 57 74 42 231 -27 288 -49 42 -133 57 -189
35z m133 -52 c65 -75 61 -219 -8 -293 -41 -43 -68 -43 -110 -1 -74 74 -74 230
0 304 41 41 75 38 118 -10z"/>
<path d="M3910 5028 c-62 -32 -92 -92 -92 -186 -1 -143 81 -219 212 -197 89
15 138 75 147 182 4 61 2 73 -24 122 -32 62 -73 89 -149 97 -39 4 -58 1 -94
-18z m135 -30 c38 -30 55 -76 55 -153 0 -73 -16 -119 -51 -152 -47 -43 -97
-31 -134 30 -20 36 -25 57 -25 115 0 81 11 116 48 155 31 33 69 35 107 5z"/>
<path d="M2776 5003 c-5 -27 -9 -88 -7 -107 1 -5 14 9 30 31 26 36 35 41 82
46 77 10 147 8 153 -2 4 -5 -44 -102 -105 -215 -101 -188 -119 -236 -90 -236
5 0 40 57 77 128 37 70 95 180 130 246 35 65 61 123 58 127 -3 5 -77 9 -164 9
l-158 0 -6 -27z"/>
<path d="M9020 5016 c0 -8 5 -18 10 -21 6 -3 10 3 10 14 0 12 -4 21 -10 21 -5
0 -10 -6 -10 -14z"/>
<path d="M3185 4976 c-25 -37 -10 -58 39 -54 33 2 42 7 44 24 4 26 -22 54 -48
54 -11 0 -26 -11 -35 -24z"/>
<path d="M8925 4981 c-24 -14 -30 -24 -30 -52 0 -32 2 -34 36 -37 25 -2 43 3
60 18 22 19 22 20 2 11 -12 -6 -29 -8 -37 -5 -19 7 -21 55 -4 72 16 16 9 14
-27 -7z"/>
<path d="M3180 4715 c-12 -31 -4 -52 21 -60 44 -14 89 46 53 72 -29 21 -63 16
-74 -12z"/>
<path d="M8001 4621 c-11 -7 -9 -10 8 -16 20 -6 21 -11 21 -205 0 -197 0 -199
-22 -206 -44 -14 12 -23 107 -18 128 7 132 9 165 61 35 55 37 86 10 131 -28
46 -80 66 -152 59 l-58 -5 0 78 c0 107 2 110 64 110 69 0 96 -9 96 -30 0 -26
10 -50 22 -50 5 0 8 21 6 48 l-3 47 -125 3 c-69 1 -131 -2 -139 -7z m220 -237
c20 -22 24 -36 24 -89 0 -79 -14 -96 -84 -103 -75 -7 -81 2 -81 113 0 50 3 95
7 98 3 4 30 7 58 7 42 0 56 -5 76 -26z"/>
<path d="M8470 4450 c-11 -7 -8 -10 16 -10 36 0 44 -16 44 -92 0 -32 -4 -48
-12 -48 -10 0 -10 -2 -1 -8 6 -4 13 -32 15 -62 3 -50 5 -55 28 -58 14 -1 32 2
40 8 13 9 12 12 -5 26 -17 13 -21 30 -25 125 -6 117 -11 129 -60 129 -14 0
-32 -5 -40 -10z"/>
<path d="M8705 4444 c12 -9 15 -35 15 -122 0 -63 -4 -113 -10 -117 -24 -15 -9
-35 24 -35 38 0 55 15 37 33 -6 6 -11 33 -11 59 l0 48 80 0 80 0 0 -49 c0 -34
-4 -51 -15 -55 -40 -15 12 -45 55 -31 16 5 19 10 10 20 -7 8 -10 59 -9 137 l1
123 -41 2 c-22 1 -41 -3 -41 -8 0 -5 6 -9 14 -9 15 0 26 -30 26 -77 0 -26 -4
-32 -27 -37 -16 -3 -50 -2 -78 2 l-50 7 -3 50 c-2 35 1 52 12 60 12 9 4 11
-35 11 -39 -1 -46 -3 -34 -12z"/>
<path d="M9075 4441 c3 -11 8 -67 10 -125 4 -92 2 -107 -13 -116 -15 -8 -15
-11 -2 -20 8 -5 28 -10 44 -10 25 0 27 3 21 23 -13 39 -17 109 -8 118 17 17
56 -9 91 -60 17 -26 32 -52 32 -58 0 -20 44 -29 68 -14 10 6 7 15 -15 37 -15
16 -42 47 -58 68 -25 32 -39 40 -75 45 l-45 6 0 60 c0 58 -1 60 -28 63 -25 3
-28 1 -22 -17z"/>
<path d="M9245 4423 c-14 -21 -25 -42 -25 -48 0 -5 7 1 16 14 13 18 24 22 50
19 35 -4 40 4 28 36 -11 27 -42 18 -69 -21z"/>
<path d="M9455 4446 c-40 -18 -61 -43 -80 -95 -20 -57 -6 -112 38 -153 30 -28
36 -29 93 -25 34 2 70 9 80 15 15 9 6 11 -47 12 -74 0 -87 9 -114 75 -20 48
-13 117 16 146 15 15 31 19 62 17 39 -3 42 -5 42 -33 0 -26 3 -30 29 -30 39 0
42 16 11 54 -30 35 -76 41 -130 17z"/>
<path d="M9674 4452 c-6 -4 -11 -25 -12 -47 0 -36 0 -37 9 -15 5 14 22 35 37
47 l27 23 -25 0 c-14 0 -30 -4 -36 -8z"/>
<path d="M9768 4335 c3 -112 2 -128 -14 -140 -17 -12 -16 -13 4 -19 13 -4 36
-4 53 -1 28 6 29 8 14 25 -13 14 -15 38 -13 126 l3 109 38 3 c39 3 40 2 52
-52 9 -42 27 -18 23 30 l-3 39 -80 3 -80 3 3 -126z"/>
<path d="M8405 4410 c-23 -24 -26 -33 -16 -43 10 -10 17 -6 37 16 24 28 32 57
16 57 -5 0 -21 -14 -37 -30z"/>
<path d="M8406 4249 c-29 -23 -35 -66 -11 -75 20 -8 85 4 85 15 0 5 -11 12
-25 15 -29 7 -33 33 -7 52 15 12 15 13 1 14 -9 0 -28 -9 -43 -21z"/>
<path d="M6365 2001 l-50 -49 -65 14 c-36 7 -71 12 -77 9 -19 -7 -16 -51 7
-95 27 -53 25 -71 -11 -137 l-31 -55 23 -24 c15 -16 25 -20 30 -13 4 6 31 15
60 20 l53 8 49 -55 c68 -76 87 -72 103 19 14 73 27 97 53 97 25 1 96 45 99 62
2 10 -20 28 -62 52 -63 35 -65 38 -71 84 -10 75 -25 112 -43 112 -10 0 -40
-22 -67 -49z m49 -83 c3 -13 6 -33 6 -46 0 -17 9 -27 35 -38 37 -15 39 -38 4
-49 -29 -9 -60 -46 -54 -64 2 -9 0 -23 -5 -31 -9 -13 -13 -12 -28 6 -27 32
-57 44 -91 38 -26 -6 -31 -3 -31 13 0 10 5 24 11 30 12 12 8 74 -6 107 -7 17
-4 18 44 11 48 -6 53 -5 72 19 25 32 35 33 43 4z"/>
<path d="M8151 1862 c14 -11 31 -39 38 -62 11 -36 10 -46 -6 -77 -19 -39 -31
-48 -78 -59 -29 -7 -28 -7 19 -18 40 -9 52 -17 68 -46 38 -70 2 -170 -62 -170
-66 0 -90 12 -113 54 l-22 41 -3 -44 c-2 -28 1 -47 10 -53 7 -5 53 -7 101 -6
88 3 89 3 123 40 27 30 34 46 34 78 0 57 -23 97 -60 105 -16 4 -30 8 -30 10 0
2 16 21 35 42 42 46 51 82 31 120 -19 38 -34 49 -76 58 l-35 7 26 -20z"/>
<path d="M8005 1846 c-9 -14 -15 -36 -13 -51 3 -24 5 -23 40 25 37 50 37 50
13 50 -15 0 -31 -10 -40 -24z"/>
<path d="M2576 1829 c-57 -14 -66 -25 -66 -81 0 -35 4 -50 16 -55 19 -7 34 13
34 44 0 27 36 63 63 63 33 0 84 -30 96 -56 30 -66 1 -124 -115 -233 -48 -44
-91 -81 -95 -81 -5 0 -9 -11 -9 -24 0 -25 0 -25 118 -28 64 -2 138 -1 165 0
l47 4 0 64 c0 73 -17 86 -41 32 -14 -33 -14 -33 -102 -38 -48 -3 -87 -2 -87 2
0 4 20 21 43 37 95 65 167 168 167 237 0 26 -34 80 -62 98 -30 19 -123 27
-172 15z"/>
<path d="M2966 1825 c-58 -21 -69 -36 -61 -83 10 -62 54 -66 55 -4 0 27 33 62
59 62 32 0 81 -22 91 -40 6 -10 10 -37 10 -58 0 -32 -7 -47 -35 -75 -21 -21
-49 -37 -70 -41 -27 -5 -35 -12 -33 -24 2 -13 15 -18 52 -19 117 -6 149 -95
60 -172 -28 -25 -95 -52 -159 -63 -11 -2 -21 -12 -23 -22 -4 -17 1 -18 44 -13
111 14 211 62 250 121 44 69 22 154 -48 186 -39 17 -40 18 -19 30 32 17 61 70
61 112 0 90 -121 144 -234 103z"/>
<path d="M3614 1820 c-78 -39 -119 -128 -112 -242 9 -132 63 -198 169 -206
132 -10 218 87 219 244 1 167 -140 271 -276 204z m110 -34 c51 -21 79 -75 84
-165 7 -133 -28 -211 -97 -211 -81 0 -131 76 -130 200 0 96 15 138 58 167 40
27 42 27 85 9z"/>
<path d="M4077 1825 c-52 -18 -81 -47 -107 -108 -27 -63 -25 -190 4 -250 50
-102 195 -131 282 -55 68 60 96 157 74 261 -15 73 -45 117 -100 145 -50 25
-97 27 -153 7z m103 -42 c54 -37 78 -92 79 -179 1 -76 -23 -158 -52 -179 -66
-46 -155 13 -177 118 -9 45 -9 74 0 129 15 89 40 117 115 127 6 0 22 -7 35
-16z"/>
<path d="M3333 1773 c-19 -7 -16 -64 5 -79 24 -19 38 -17 62 8 41 44 -7 96
-67 71z m41 -38 c-4 -8 -11 -15 -16 -15 -6 0 -5 6 2 15 7 8 14 15 16 15 2 0 1
-7 -2 -15z"/>
<path d="M8425 1694 c-59 -30 -98 -84 -62 -84 18 0 47 33 47 53 0 10 11 19 27
23 21 6 31 2 45 -16 17 -20 19 -38 17 -125 -3 -108 2 -125 31 -125 47 0 70 32
30 43 -18 5 -20 14 -20 84 0 100 -13 149 -43 157 -32 8 -39 8 -72 -10z"/>
<path d="M9260 1700 l-25 -6 23 -12 c22 -13 22 -15 22 -217 l0 -203 -27 -21
-28 -20 62 -1 c74 0 115 11 68 20 l-30 5 -3 86 -3 86 76 5 c80 5 104 18 131
70 19 36 18 132 -1 168 -29 56 -98 67 -155 25 -38 -28 -37 -30 9 -14 67 24
122 -31 123 -122 0 -89 -50 -131 -128 -110 -50 13 -56 29 -54 140 1 42 1 84 1
93 -1 23 -30 36 -61 28z"/>
<path d="M9637 1701 c-17 -6 -17 -8 -3 -20 13 -11 16 -34 16 -118 0 -57 -5
-113 -10 -124 -10 -19 -5 -19 206 -19 191 0 215 2 210 15 -3 9 -9 64 -12 124
-7 103 -6 109 15 123 22 15 22 16 -15 22 -20 4 -38 5 -41 2 -3 -3 -4 -66 -4
-140 l2 -136 -66 0 -66 0 2 138 c1 148 5 138 -53 134 -18 -2 -20 -4 -9 -11 17
-11 28 -209 13 -238 -10 -17 -29 -20 -110 -15 l-24 2 4 130 c2 72 0 130 -4
130 -3 0 -12 2 -20 4 -7 3 -21 1 -31 -3z"/>
<path d="M10290 1702 c-77 -6 -122 -45 -138 -119 -12 -54 1 -101 37 -137 29
-29 36 -31 97 -30 83 1 114 24 33 24 -60 1 -75 9 -107 61 -26 42 -28 82 -7
132 23 55 76 75 109 41 32 -31 20 -44 -41 -45 l-58 -2 70 -7 c98 -10 109 -3
84 54 -13 27 -28 33 -79 28z"/>
<path d="M10665 1700 c-25 -6 -27 -8 -12 -14 13 -6 17 -20 17 -62 l0 -54 -75
0 -75 0 0 53 c0 29 5 58 12 65 9 9 1 12 -37 12 -46 0 -47 -1 -32 -18 14 -15
17 -40 17 -128 0 -72 -4 -114 -12 -122 -9 -9 -4 -12 23 -12 l34 0 -3 65 -4 65
76 0 76 0 0 -55 c0 -41 -4 -56 -17 -64 -15 -8 -10 -10 22 -11 l40 0 0 128 c0
70 2 133 5 141 6 18 -14 22 -55 11z"/>
<path d="M11310 1700 c-58 -8 -87 -26 -111 -72 -58 -113 22 -233 141 -213 62
10 70 25 15 25 -81 0 -126 48 -124 132 2 81 11 101 47 112 41 11 82 -5 82 -34
0 -11 -6 -20 -12 -20 -10 0 -10 -2 0 -9 7 -4 24 -6 38 -3 27 5 33 37 12 64
-18 21 -36 25 -88 18z"/>
<path d="M8659 1686 c8 -10 12 -57 11 -143 l-2 -128 24 3 c12 1 37 2 53 2 70
-2 105 11 129 47 29 42 25 58 -22 99 -36 31 -36 31 -14 43 29 15 29 55 0 75
-31 22 -197 23 -179 2z m130 -6 c21 -10 33 -56 24 -89 -4 -17 -13 -21 -44 -21
-22 0 -39 -3 -39 -8 0 -4 17 -7 39 -7 49 0 71 -19 71 -61 0 -44 -35 -69 -84
-60 -19 4 -36 12 -38 19 -2 6 -5 58 -7 115 -2 98 -1 103 21 111 30 13 36 13
57 1z"/>
<path d="M9004 1667 c-65 -60 -66 -183 -1 -229 39 -28 139 -30 166 -4 14 15
13 16 -16 10 -18 -3 -48 -3 -68 0 -109 21 -115 246 -6 246 22 0 61 -32 61 -50
0 -5 -26 -10 -57 -11 -72 -1 -59 -6 30 -12 l67 -5 0 32 c0 45 -16 56 -82 56
-52 0 -62 -4 -94 -33z"/>
<path d="M10840 1685 c8 -10 11 -52 8 -140 l-3 -125 32 0 c31 0 32 2 27 30 -4
18 -1 36 6 45 10 12 10 15 0 15 -9 0 -11 25 -8 95 l3 95 -39 0 c-32 0 -37 -2
-26 -15z"/>
<path d="M11036 1672 c5 -24 -2 -37 -50 -86 -31 -31 -56 -62 -56 -69 1 -7 22
12 48 41 26 28 51 52 55 52 5 0 7 -43 5 -95 -3 -98 1 -107 42 -98 13 3 14 24
11 130 -3 113 -1 128 15 140 16 11 12 13 -29 13 -46 0 -46 0 -41 -28z"/>
<path d="M7093 1654 c-7 -3 -17 -22 -24 -42 -16 -50 -37 -72 -69 -72 -54 0
-70 -57 -22 -87 15 -9 29 -18 31 -20 3 -2 8 -33 13 -70 4 -36 10 -68 13 -71 7
-7 56 18 79 41 14 15 27 18 54 13 19 -3 39 -10 42 -17 4 -6 18 -9 31 -7 20 2
25 10 27 39 2 23 -2 40 -12 49 -22 18 -20 25 18 76 49 64 41 84 -33 84 -56 0
-58 1 -89 45 -31 45 -36 48 -59 39z m79 -148 c23 -4 28 -9 20 -18 -5 -7 -12
-24 -14 -38 -2 -19 -10 -26 -33 -28 -16 -2 -36 -8 -42 -14 -13 -11 -15 -7 -26
37 -3 11 -8 28 -12 38 -5 13 -2 17 12 17 12 0 25 11 33 28 12 27 13 27 22 6 6
-13 23 -25 40 -28z"/>
<path d="M11288 1623 c6 -2 18 -2 25 0 6 3 1 5 -13 5 -14 0 -19 -2 -12 -5z"/>
<path d="M6254 1589 c-15 -16 -20 -42 -25 -113 -10 -143 0 -357 17 -383 8 -12
14 -32 14 -43 0 -12 18 -58 39 -103 63 -129 180 -247 216 -217 24 20 18 34
-42 91 -61 57 -143 188 -143 227 0 13 -7 37 -16 54 -13 25 -15 67 -15 242 1
116 3 222 4 236 3 32 -23 37 -49 9z"/>
<path d="M8450 1530 c0 -5 5 -10 10 -10 6 0 10 5 10 10 0 6 -4 10 -10 10 -5 0
-10 -4 -10 -10z"/>
<path d="M5445 1503 c-8 -16 -30 -57 -48 -93 -35 -71 -37 -72 -157 -89 -77
-11 -100 -20 -100 -37 0 -8 34 -49 75 -90 83 -83 86 -93 60 -180 -17 -58 -19
-110 -4 -119 6 -4 53 14 106 39 52 25 99 46 104 46 5 0 41 -18 79 -39 86 -49
101 -53 123 -37 15 12 16 20 8 57 -5 24 -15 68 -22 97 l-11 53 76 79 c42 43
76 82 76 86 -1 27 -23 37 -106 45 -49 5 -95 11 -102 14 -7 3 -26 34 -43 70
-16 36 -34 65 -39 65 -6 0 -10 8 -10 18 0 21 -18 42 -36 42 -7 0 -20 -12 -29
-27z m65 -153 c35 -68 45 -75 123 -85 32 -4 57 -12 57 -19 0 -6 -20 -31 -45
-55 -49 -47 -50 -52 -35 -132 6 -29 6 -57 2 -61 -5 -5 -33 5 -63 22 -58 32
-79 36 -107 20 -41 -23 -101 -47 -106 -43 -2 3 -1 17 4 31 5 15 11 47 15 71 5
42 4 45 -45 91 -27 26 -50 52 -50 58 0 7 13 12 30 12 16 0 50 5 74 12 40 11
47 17 75 75 18 35 34 63 36 63 3 0 18 -27 35 -60z"/>
<path d="M8373 1492 c-20 -16 -27 -32 -24 -59 1 -17 95 -17 109 0 8 9 3 12
-21 12 -30 0 -32 2 -29 33 2 36 -4 39 -35 14z"/>
<path d="M3331 1451 c-15 -27 -14 -56 3 -71 39 -32 100 23 72 65 -19 28 -62
32 -75 6z"/>
<path d="M6850 1400 c-8 -5 -26 -10 -40 -10 -38 0 -141 -54 -176 -91 -73 -80
-102 -149 -119 -279 -13 -101 -7 -130 27 -130 10 0 18 1 18 3 1 1 7 38 15 82
8 44 15 91 15 105 0 27 37 105 66 142 36 45 99 86 157 102 32 9 62 14 67 11
14 -9 50 32 44 50 -4 8 -12 15 -19 15 -7 0 -19 2 -27 5 -7 3 -20 0 -28 -5z"/>
<path d="M5749 1113 c-12 -31 -7 -39 32 -47 53 -10 186 -73 257 -120 134 -90
233 -203 294 -335 22 -47 41 -87 43 -89 8 -8 43 10 49 24 4 9 -18 63 -51 126
-62 120 -141 214 -244 294 -73 56 -235 138 -312 158 l-58 14 -10 -25z"/>
<path d="M8378 970 c-44 -24 -62 -48 -83 -111 -16 -46 -15 -49 9 -97 20 -39
33 -53 61 -62 39 -13 103 -6 131 14 15 12 10 13 -33 9 -45 -5 -54 -2 -83 24
-80 71 -34 239 60 218 29 -6 32 -10 26 -35 -6 -30 6 -40 37 -32 45 11 -8 92
-60 92 -15 -1 -45 -10 -65 -20z"/>
<path d="M8995 980 c-17 -7 -16 -9 11 -9 16 -1 39 -7 50 -15 16 -13 17 -18 7
-35 -15 -24 -7 -31 30 -24 35 7 36 35 2 68 -25 26 -62 31 -100 15z"/>
<path d="M9185 981 c-17 -7 -17 -8 8 -15 l27 -6 0 -204 c0 -113 -3 -211 -6
-220 -3 -9 -14 -16 -23 -16 -14 0 -14 -2 -1 -10 8 -5 42 -9 75 -9 41 1 52 3
35 8 -35 10 -49 46 -47 121 l2 65 65 -2 c45 -2 57 0 40 6 -38 12 -94 42 -102
55 -9 14 -10 102 -2 145 11 54 83 79 135 46 55 -36 68 -143 24 -208 -28 -41
-18 -50 16 -14 57 60 70 110 48 190 -12 43 -57 77 -101 77 -15 0 -45 -9 -67
-21 l-41 -21 -26 21 c-29 23 -30 23 -59 12z"/>
<path d="M9630 964 c-49 -28 -60 -40 -60 -66 0 -32 29 -19 50 22 20 39 29 45
60 40 25 -4 29 -21 29 -128 0 -66 4 -109 12 -118 13 -16 47 -18 68 -5 11 7 9
11 -8 20 -19 11 -21 20 -21 102 0 90 -9 123 -39 146 -24 18 -41 16 -91 -13z"/>
<path d="M7970 970 c0 -5 9 -10 20 -10 19 0 20 -7 20 -120 0 -100 -2 -120 -15
-120 -8 0 -15 -4 -15 -10 0 -6 35 -10 85 -10 89 0 137 15 149 45 12 32 6 74
-12 87 -31 22 -34 37 -15 69 l18 31 -28 24 c-25 22 -37 24 -118 24 -53 0 -89
-4 -89 -10z m161 -10 c15 -8 19 -22 19 -60 l0 -50 -50 0 -50 0 0 53 c0 30 3
57 7 60 10 10 52 8 74 -3z m36 -133 c2 -3 6 -20 10 -40 4 -27 1 -39 -16 -56
-25 -25 -73 -28 -95 -5 -17 16 -22 94 -8 108 7 8 100 1 109 -7z"/>
<path d="M8571 958 c0 -13 8 -52 17 -88 l17 -65 50 0 c28 1 59 3 70 5 27 7 32
-29 11 -72 -9 -17 -16 -33 -16 -35 0 -1 17 -3 38 -3 l37 0 -3 125 c-3 85 0
130 8 140 9 11 4 14 -29 13 -36 0 -40 -3 -36 -22 6 -28 8 -54 6 -93 -1 -26 -6
-34 -26 -39 -49 -12 -72 2 -90 56 -16 47 -16 53 -1 75 16 25 16 25 -19 25 -30
0 -35 -3 -34 -22z"/>
<path d="M8952 962 c-6 -5 -23 -23 -37 -42 -19 -26 -25 -46 -25 -87 0 -119 71
-164 203 -127 36 11 15 23 -31 17 -58 -6 -85 6 -112 50 -25 41 -25 93 0 151
10 25 18 46 17 46 -1 0 -8 -4 -15 -8z"/>
<path d="M9608 784 c-29 -15 -48 -42 -48 -68 0 -12 11 -16 49 -16 66 0 99 13
52 20 -19 3 -39 13 -45 23 -9 15 -6 21 14 37 29 23 17 25 -22 4z"/>
</g>
</svg>
