<?xml version="1.0" standalone="no"?>
<!DOCTYPE svg PUBLIC "-//W3C//DTD SVG 20010904//EN"
 "http://www.w3.org/TR/2001/REC-SVG-20010904/DTD/svg10.dtd">
<svg version="1.0" xmlns="http://www.w3.org/2000/svg"
 width="1472.000000pt" height="1196.000000pt" viewBox="0 0 1472.000000 1196.000000"
 preserveAspectRatio="xMidYMid meet">

<g transform="translate(0.000000,1196.000000) scale(0.100000,-0.100000)"
fill="#000000" stroke="none">
<path d="M4405 11250 c-354 -40 -608 -162 -860 -415 -180 -180 -301 -374 -418
-670 -174 -442 -261 -913 -261 -1410 0 -255 15 -415 70 -715 212 -1162 868
-2482 1809 -3641 397 -489 985 -1086 1530 -1555 172 -148 369 -313 453 -378
35 -27 61 -55 58 -61 -2 -7 -71 -97 -152 -201 -445 -570 -626 -811 -799 -1064
-91 -133 -110 -169 -59 -115 20 22 121 130 223 240 102 110 233 250 292 310
58 61 132 139 164 175 33 36 74 81 93 100 18 19 117 126 219 237 122 133 190
200 197 194 6 -5 88 -67 183 -138 332 -248 1004 -647 1538 -913 260 -129 660
-289 904 -361 75 -22 187 -58 250 -81 248 -88 433 -118 502 -82 27 14 30 19
27 57 -2 34 -9 45 -35 63 -37 25 -321 124 -355 124 -38 0 -201 57 -329 116
-64 29 -195 85 -290 124 -165 68 -297 133 -854 422 -293 152 -555 312 -930
566 -132 90 -409 287 -434 308 -4 4 23 36 183 215 216 244 589 671 766 879 96
113 187 219 201 235 131 149 832 990 1105 1324 60 74 146 179 192 235 45 56
103 135 127 176 25 41 99 149 166 240 312 428 724 1035 969 1429 401 646 713
1271 860 1726 111 342 157 623 147 895 -11 303 -85 540 -236 755 -325 465
-1056 716 -1701 585 -427 -87 -851 -356 -1207 -765 -359 -414 -691 -1050 -893
-1715 -18 -58 -35 -108 -39 -112 -4 -4 -35 47 -71 115 -294 563 -756 1165
-1230 1605 -309 286 -684 563 -930 687 -163 82 -418 173 -605 214 -177 40
-399 56 -540 41z m315 -420 c300 -37 666 -201 1012 -454 362 -263 750 -653
1094 -1097 372 -481 596 -856 760 -1271 l37 -92 -27 -176 c-49 -325 -60 -471
-61 -820 0 -261 4 -351 18 -460 21 -154 56 -299 85 -357 72 -139 256 -210 404
-154 71 27 151 98 183 162 49 96 81 398 72 678 -13 406 -80 734 -232 1132
l-34 87 50 194 c128 498 251 838 474 1302 93 194 143 268 322 485 388 467 788
734 1208 808 126 21 386 13 505 -16 219 -55 398 -132 516 -223 439 -338 468
-912 91 -1808 -266 -632 -781 -1457 -1673 -2680 -82 -113 -185 -257 -228 -320
-535 -779 -1113 -1561 -1905 -2575 -107 -137 -246 -316 -309 -398 -63 -81
-118 -147 -124 -147 -18 0 -511 402 -638 520 -471 440 -895 897 -1270 1370
-434 546 -786 1085 -1083 1660 -365 704 -591 1363 -677 1965 -17 121 -20 194
-20 530 1 413 9 570 35 609 11 17 13 30 6 48 -7 19 1 65 34 194 109 426 232
712 404 939 63 82 200 214 231 222 14 3 54 20 90 38 200 99 414 134 650 105z"/>
</g>
</svg>
